%TF.GenerationSoftware,KiCad,Pcbnew,9.0.4*%
%TF.CreationDate,2025-08-28T14:40:31+05:30*%
%TF.ProjectId,new_1,6e65775f-312e-46b6-9963-61645f706362,rev?*%
%TF.SameCoordinates,Original*%
%TF.FileFunction,Legend,Top*%
%TF.FilePolarity,Positive*%
%FSLAX46Y46*%
G04 Gerber Fmt 4.6, Leading zero omitted, Abs format (unit mm)*
G04 Created by KiCad (PCBNEW 9.0.4) date 2025-08-28 14:40:31*
%MOMM*%
%LPD*%
G01*
G04 APERTURE LIST*
%ADD10C,0.150000*%
%ADD11C,0.010000*%
%ADD12C,0.120000*%
G04 APERTURE END LIST*
D10*
X176333333Y-70954819D02*
X176000000Y-70478628D01*
X175761905Y-70954819D02*
X175761905Y-69954819D01*
X175761905Y-69954819D02*
X176142857Y-69954819D01*
X176142857Y-69954819D02*
X176238095Y-70002438D01*
X176238095Y-70002438D02*
X176285714Y-70050057D01*
X176285714Y-70050057D02*
X176333333Y-70145295D01*
X176333333Y-70145295D02*
X176333333Y-70288152D01*
X176333333Y-70288152D02*
X176285714Y-70383390D01*
X176285714Y-70383390D02*
X176238095Y-70431009D01*
X176238095Y-70431009D02*
X176142857Y-70478628D01*
X176142857Y-70478628D02*
X175761905Y-70478628D01*
X177285714Y-70954819D02*
X176714286Y-70954819D01*
X177000000Y-70954819D02*
X177000000Y-69954819D01*
X177000000Y-69954819D02*
X176904762Y-70097676D01*
X176904762Y-70097676D02*
X176809524Y-70192914D01*
X176809524Y-70192914D02*
X176714286Y-70240533D01*
X157166667Y-108407200D02*
X157309524Y-108454819D01*
X157309524Y-108454819D02*
X157547619Y-108454819D01*
X157547619Y-108454819D02*
X157642857Y-108407200D01*
X157642857Y-108407200D02*
X157690476Y-108359580D01*
X157690476Y-108359580D02*
X157738095Y-108264342D01*
X157738095Y-108264342D02*
X157738095Y-108169104D01*
X157738095Y-108169104D02*
X157690476Y-108073866D01*
X157690476Y-108073866D02*
X157642857Y-108026247D01*
X157642857Y-108026247D02*
X157547619Y-107978628D01*
X157547619Y-107978628D02*
X157357143Y-107931009D01*
X157357143Y-107931009D02*
X157261905Y-107883390D01*
X157261905Y-107883390D02*
X157214286Y-107835771D01*
X157214286Y-107835771D02*
X157166667Y-107740533D01*
X157166667Y-107740533D02*
X157166667Y-107645295D01*
X157166667Y-107645295D02*
X157214286Y-107550057D01*
X157214286Y-107550057D02*
X157261905Y-107502438D01*
X157261905Y-107502438D02*
X157357143Y-107454819D01*
X157357143Y-107454819D02*
X157595238Y-107454819D01*
X157595238Y-107454819D02*
X157738095Y-107502438D01*
X158071429Y-107454819D02*
X158309524Y-108454819D01*
X158309524Y-108454819D02*
X158500000Y-107740533D01*
X158500000Y-107740533D02*
X158690476Y-108454819D01*
X158690476Y-108454819D02*
X158928572Y-107454819D01*
X159261905Y-107550057D02*
X159309524Y-107502438D01*
X159309524Y-107502438D02*
X159404762Y-107454819D01*
X159404762Y-107454819D02*
X159642857Y-107454819D01*
X159642857Y-107454819D02*
X159738095Y-107502438D01*
X159738095Y-107502438D02*
X159785714Y-107550057D01*
X159785714Y-107550057D02*
X159833333Y-107645295D01*
X159833333Y-107645295D02*
X159833333Y-107740533D01*
X159833333Y-107740533D02*
X159785714Y-107883390D01*
X159785714Y-107883390D02*
X159214286Y-108454819D01*
X159214286Y-108454819D02*
X159833333Y-108454819D01*
X172254819Y-88166666D02*
X171778628Y-88499999D01*
X172254819Y-88738094D02*
X171254819Y-88738094D01*
X171254819Y-88738094D02*
X171254819Y-88357142D01*
X171254819Y-88357142D02*
X171302438Y-88261904D01*
X171302438Y-88261904D02*
X171350057Y-88214285D01*
X171350057Y-88214285D02*
X171445295Y-88166666D01*
X171445295Y-88166666D02*
X171588152Y-88166666D01*
X171588152Y-88166666D02*
X171683390Y-88214285D01*
X171683390Y-88214285D02*
X171731009Y-88261904D01*
X171731009Y-88261904D02*
X171778628Y-88357142D01*
X171778628Y-88357142D02*
X171778628Y-88738094D01*
X171588152Y-87309523D02*
X172254819Y-87309523D01*
X171207200Y-87547618D02*
X171921485Y-87785713D01*
X171921485Y-87785713D02*
X171921485Y-87166666D01*
X132525199Y-80811009D02*
X132668056Y-80858628D01*
X132668056Y-80858628D02*
X132715675Y-80906247D01*
X132715675Y-80906247D02*
X132763294Y-81001485D01*
X132763294Y-81001485D02*
X132763294Y-81144342D01*
X132763294Y-81144342D02*
X132715675Y-81239580D01*
X132715675Y-81239580D02*
X132668056Y-81287200D01*
X132668056Y-81287200D02*
X132572818Y-81334819D01*
X132572818Y-81334819D02*
X132191866Y-81334819D01*
X132191866Y-81334819D02*
X132191866Y-80334819D01*
X132191866Y-80334819D02*
X132525199Y-80334819D01*
X132525199Y-80334819D02*
X132620437Y-80382438D01*
X132620437Y-80382438D02*
X132668056Y-80430057D01*
X132668056Y-80430057D02*
X132715675Y-80525295D01*
X132715675Y-80525295D02*
X132715675Y-80620533D01*
X132715675Y-80620533D02*
X132668056Y-80715771D01*
X132668056Y-80715771D02*
X132620437Y-80763390D01*
X132620437Y-80763390D02*
X132525199Y-80811009D01*
X132525199Y-80811009D02*
X132191866Y-80811009D01*
X133049009Y-80334819D02*
X133620437Y-80334819D01*
X133334723Y-81334819D02*
X133334723Y-80334819D01*
X133906152Y-80430057D02*
X133953771Y-80382438D01*
X133953771Y-80382438D02*
X134049009Y-80334819D01*
X134049009Y-80334819D02*
X134287104Y-80334819D01*
X134287104Y-80334819D02*
X134382342Y-80382438D01*
X134382342Y-80382438D02*
X134429961Y-80430057D01*
X134429961Y-80430057D02*
X134477580Y-80525295D01*
X134477580Y-80525295D02*
X134477580Y-80620533D01*
X134477580Y-80620533D02*
X134429961Y-80763390D01*
X134429961Y-80763390D02*
X133858533Y-81334819D01*
X133858533Y-81334819D02*
X134477580Y-81334819D01*
X182833333Y-79454819D02*
X182500000Y-78978628D01*
X182261905Y-79454819D02*
X182261905Y-78454819D01*
X182261905Y-78454819D02*
X182642857Y-78454819D01*
X182642857Y-78454819D02*
X182738095Y-78502438D01*
X182738095Y-78502438D02*
X182785714Y-78550057D01*
X182785714Y-78550057D02*
X182833333Y-78645295D01*
X182833333Y-78645295D02*
X182833333Y-78788152D01*
X182833333Y-78788152D02*
X182785714Y-78883390D01*
X182785714Y-78883390D02*
X182738095Y-78931009D01*
X182738095Y-78931009D02*
X182642857Y-78978628D01*
X182642857Y-78978628D02*
X182261905Y-78978628D01*
X183166667Y-78454819D02*
X183785714Y-78454819D01*
X183785714Y-78454819D02*
X183452381Y-78835771D01*
X183452381Y-78835771D02*
X183595238Y-78835771D01*
X183595238Y-78835771D02*
X183690476Y-78883390D01*
X183690476Y-78883390D02*
X183738095Y-78931009D01*
X183738095Y-78931009D02*
X183785714Y-79026247D01*
X183785714Y-79026247D02*
X183785714Y-79264342D01*
X183785714Y-79264342D02*
X183738095Y-79359580D01*
X183738095Y-79359580D02*
X183690476Y-79407200D01*
X183690476Y-79407200D02*
X183595238Y-79454819D01*
X183595238Y-79454819D02*
X183309524Y-79454819D01*
X183309524Y-79454819D02*
X183214286Y-79407200D01*
X183214286Y-79407200D02*
X183166667Y-79359580D01*
X168044819Y-103571904D02*
X168854342Y-103571904D01*
X168854342Y-103571904D02*
X168949580Y-103524285D01*
X168949580Y-103524285D02*
X168997200Y-103476666D01*
X168997200Y-103476666D02*
X169044819Y-103381428D01*
X169044819Y-103381428D02*
X169044819Y-103190952D01*
X169044819Y-103190952D02*
X168997200Y-103095714D01*
X168997200Y-103095714D02*
X168949580Y-103048095D01*
X168949580Y-103048095D02*
X168854342Y-103000476D01*
X168854342Y-103000476D02*
X168044819Y-103000476D01*
X169044819Y-102000476D02*
X169044819Y-102571904D01*
X169044819Y-102286190D02*
X168044819Y-102286190D01*
X168044819Y-102286190D02*
X168187676Y-102381428D01*
X168187676Y-102381428D02*
X168282914Y-102476666D01*
X168282914Y-102476666D02*
X168330533Y-102571904D01*
X182833333Y-76454819D02*
X182500000Y-75978628D01*
X182261905Y-76454819D02*
X182261905Y-75454819D01*
X182261905Y-75454819D02*
X182642857Y-75454819D01*
X182642857Y-75454819D02*
X182738095Y-75502438D01*
X182738095Y-75502438D02*
X182785714Y-75550057D01*
X182785714Y-75550057D02*
X182833333Y-75645295D01*
X182833333Y-75645295D02*
X182833333Y-75788152D01*
X182833333Y-75788152D02*
X182785714Y-75883390D01*
X182785714Y-75883390D02*
X182738095Y-75931009D01*
X182738095Y-75931009D02*
X182642857Y-75978628D01*
X182642857Y-75978628D02*
X182261905Y-75978628D01*
X183214286Y-75550057D02*
X183261905Y-75502438D01*
X183261905Y-75502438D02*
X183357143Y-75454819D01*
X183357143Y-75454819D02*
X183595238Y-75454819D01*
X183595238Y-75454819D02*
X183690476Y-75502438D01*
X183690476Y-75502438D02*
X183738095Y-75550057D01*
X183738095Y-75550057D02*
X183785714Y-75645295D01*
X183785714Y-75645295D02*
X183785714Y-75740533D01*
X183785714Y-75740533D02*
X183738095Y-75883390D01*
X183738095Y-75883390D02*
X183166667Y-76454819D01*
X183166667Y-76454819D02*
X183785714Y-76454819D01*
X165991905Y-83994819D02*
X165991905Y-82994819D01*
X165991905Y-82994819D02*
X166230000Y-82994819D01*
X166230000Y-82994819D02*
X166372857Y-83042438D01*
X166372857Y-83042438D02*
X166468095Y-83137676D01*
X166468095Y-83137676D02*
X166515714Y-83232914D01*
X166515714Y-83232914D02*
X166563333Y-83423390D01*
X166563333Y-83423390D02*
X166563333Y-83566247D01*
X166563333Y-83566247D02*
X166515714Y-83756723D01*
X166515714Y-83756723D02*
X166468095Y-83851961D01*
X166468095Y-83851961D02*
X166372857Y-83947200D01*
X166372857Y-83947200D02*
X166230000Y-83994819D01*
X166230000Y-83994819D02*
X165991905Y-83994819D01*
X166944286Y-83090057D02*
X166991905Y-83042438D01*
X166991905Y-83042438D02*
X167087143Y-82994819D01*
X167087143Y-82994819D02*
X167325238Y-82994819D01*
X167325238Y-82994819D02*
X167420476Y-83042438D01*
X167420476Y-83042438D02*
X167468095Y-83090057D01*
X167468095Y-83090057D02*
X167515714Y-83185295D01*
X167515714Y-83185295D02*
X167515714Y-83280533D01*
X167515714Y-83280533D02*
X167468095Y-83423390D01*
X167468095Y-83423390D02*
X166896667Y-83994819D01*
X166896667Y-83994819D02*
X167515714Y-83994819D01*
X184690476Y-84954819D02*
X184690476Y-83954819D01*
X184690476Y-83954819D02*
X185023809Y-84669104D01*
X185023809Y-84669104D02*
X185357142Y-83954819D01*
X185357142Y-83954819D02*
X185357142Y-84954819D01*
X185833333Y-84954819D02*
X185833333Y-83954819D01*
X186404761Y-84954819D02*
X185976190Y-84383390D01*
X186404761Y-83954819D02*
X185833333Y-84526247D01*
X187357142Y-84954819D02*
X186785714Y-84954819D01*
X187071428Y-84954819D02*
X187071428Y-83954819D01*
X187071428Y-83954819D02*
X186976190Y-84097676D01*
X186976190Y-84097676D02*
X186880952Y-84192914D01*
X186880952Y-84192914D02*
X186785714Y-84240533D01*
D11*
%TO.C,REF\u002A\u002A*%
X165200322Y-70642069D02*
X165224035Y-70656839D01*
X165250686Y-70678419D01*
X165250686Y-70999965D01*
X165250601Y-71094022D01*
X165250237Y-71168124D01*
X165249432Y-71224896D01*
X165248021Y-71266960D01*
X165245841Y-71296940D01*
X165242729Y-71317459D01*
X165238522Y-71331141D01*
X165233056Y-71340608D01*
X165229180Y-71345274D01*
X165197742Y-71365767D01*
X165161941Y-71364931D01*
X165130581Y-71347456D01*
X165103930Y-71325876D01*
X165103930Y-70678419D01*
X165130581Y-70656839D01*
X165156302Y-70641141D01*
X165177308Y-70635259D01*
X165200322Y-70642069D01*
G36*
X165200322Y-70642069D02*
G01*
X165224035Y-70656839D01*
X165250686Y-70678419D01*
X165250686Y-70999965D01*
X165250601Y-71094022D01*
X165250237Y-71168124D01*
X165249432Y-71224896D01*
X165248021Y-71266960D01*
X165245841Y-71296940D01*
X165242729Y-71317459D01*
X165238522Y-71331141D01*
X165233056Y-71340608D01*
X165229180Y-71345274D01*
X165197742Y-71365767D01*
X165161941Y-71364931D01*
X165130581Y-71347456D01*
X165103930Y-71325876D01*
X165103930Y-70678419D01*
X165130581Y-70656839D01*
X165156302Y-70641141D01*
X165177308Y-70635259D01*
X165200322Y-70642069D01*
G37*
X158087886Y-70657837D02*
X158094466Y-70665410D01*
X158099629Y-70675179D01*
X158103544Y-70689763D01*
X158106384Y-70711777D01*
X158108321Y-70743840D01*
X158109525Y-70788567D01*
X158110169Y-70848577D01*
X158110424Y-70926486D01*
X158110463Y-71002148D01*
X158110394Y-71095994D01*
X158110070Y-71169881D01*
X158109322Y-71226424D01*
X158107976Y-71268241D01*
X158105862Y-71297949D01*
X158102808Y-71318165D01*
X158098642Y-71331506D01*
X158093192Y-71340590D01*
X158087886Y-71346459D01*
X158054882Y-71366139D01*
X158019717Y-71364373D01*
X157988253Y-71342909D01*
X157981024Y-71334529D01*
X157975374Y-71324806D01*
X157971109Y-71311053D01*
X157968035Y-71290581D01*
X157965956Y-71260704D01*
X157964678Y-71218733D01*
X157964007Y-71161981D01*
X157963749Y-71087759D01*
X157963708Y-71003729D01*
X157963708Y-70690677D01*
X157991417Y-70662968D01*
X158025571Y-70639655D01*
X158058702Y-70638815D01*
X158087886Y-70657837D01*
G36*
X158087886Y-70657837D02*
G01*
X158094466Y-70665410D01*
X158099629Y-70675179D01*
X158103544Y-70689763D01*
X158106384Y-70711777D01*
X158108321Y-70743840D01*
X158109525Y-70788567D01*
X158110169Y-70848577D01*
X158110424Y-70926486D01*
X158110463Y-71002148D01*
X158110394Y-71095994D01*
X158110070Y-71169881D01*
X158109322Y-71226424D01*
X158107976Y-71268241D01*
X158105862Y-71297949D01*
X158102808Y-71318165D01*
X158098642Y-71331506D01*
X158093192Y-71340590D01*
X158087886Y-71346459D01*
X158054882Y-71366139D01*
X158019717Y-71364373D01*
X157988253Y-71342909D01*
X157981024Y-71334529D01*
X157975374Y-71324806D01*
X157971109Y-71311053D01*
X157968035Y-71290581D01*
X157965956Y-71260704D01*
X157964678Y-71218733D01*
X157964007Y-71161981D01*
X157963749Y-71087759D01*
X157963708Y-71003729D01*
X157963708Y-70690677D01*
X157991417Y-70662968D01*
X158025571Y-70639655D01*
X158058702Y-70638815D01*
X158087886Y-70657837D01*
G37*
X158273921Y-64036490D02*
X158377027Y-64072238D01*
X158473022Y-64128507D01*
X158558753Y-64205288D01*
X158631070Y-64302573D01*
X158663555Y-64363892D01*
X158691668Y-64449660D01*
X158705295Y-64548677D01*
X158703786Y-64650471D01*
X158687031Y-64742714D01*
X158641237Y-64855432D01*
X158574832Y-64953207D01*
X158491191Y-65034115D01*
X158393688Y-65096232D01*
X158285700Y-65137634D01*
X158170601Y-65156397D01*
X158051766Y-65150598D01*
X157993189Y-65138206D01*
X157879028Y-65093797D01*
X157777635Y-65026033D01*
X157691455Y-64937001D01*
X157622934Y-64828791D01*
X157617136Y-64816973D01*
X157597096Y-64772628D01*
X157584513Y-64735280D01*
X157577681Y-64695880D01*
X157574895Y-64645381D01*
X157574432Y-64590433D01*
X157575197Y-64524415D01*
X157578648Y-64476689D01*
X157586523Y-64438103D01*
X157600557Y-64399506D01*
X157617880Y-64361426D01*
X157682495Y-64253328D01*
X157762066Y-64165803D01*
X157853440Y-64098841D01*
X157953464Y-64052436D01*
X158058988Y-64026581D01*
X158166858Y-64021268D01*
X158273921Y-64036490D01*
G36*
X158273921Y-64036490D02*
G01*
X158377027Y-64072238D01*
X158473022Y-64128507D01*
X158558753Y-64205288D01*
X158631070Y-64302573D01*
X158663555Y-64363892D01*
X158691668Y-64449660D01*
X158705295Y-64548677D01*
X158703786Y-64650471D01*
X158687031Y-64742714D01*
X158641237Y-64855432D01*
X158574832Y-64953207D01*
X158491191Y-65034115D01*
X158393688Y-65096232D01*
X158285700Y-65137634D01*
X158170601Y-65156397D01*
X158051766Y-65150598D01*
X157993189Y-65138206D01*
X157879028Y-65093797D01*
X157777635Y-65026033D01*
X157691455Y-64937001D01*
X157622934Y-64828791D01*
X157617136Y-64816973D01*
X157597096Y-64772628D01*
X157584513Y-64735280D01*
X157577681Y-64695880D01*
X157574895Y-64645381D01*
X157574432Y-64590433D01*
X157575197Y-64524415D01*
X157578648Y-64476689D01*
X157586523Y-64438103D01*
X157600557Y-64399506D01*
X157617880Y-64361426D01*
X157682495Y-64253328D01*
X157762066Y-64165803D01*
X157853440Y-64098841D01*
X157953464Y-64052436D01*
X158058988Y-64026581D01*
X158166858Y-64021268D01*
X158273921Y-64036490D01*
G37*
X165974773Y-70635355D02*
X166053480Y-70635734D01*
X166114571Y-70636525D01*
X166160525Y-70637862D01*
X166193822Y-70639875D01*
X166216944Y-70642698D01*
X166232370Y-70646461D01*
X166242579Y-70651297D01*
X166247521Y-70655014D01*
X166273165Y-70687550D01*
X166276267Y-70721330D01*
X166260419Y-70752018D01*
X166250056Y-70764281D01*
X166238904Y-70772642D01*
X166222743Y-70777849D01*
X166197350Y-70780649D01*
X166158506Y-70781788D01*
X166101988Y-70782013D01*
X166090888Y-70782014D01*
X165944952Y-70782014D01*
X165944952Y-71052948D01*
X165944856Y-71138346D01*
X165944419Y-71204056D01*
X165943420Y-71252966D01*
X165941636Y-71287965D01*
X165938845Y-71311941D01*
X165934825Y-71327785D01*
X165929353Y-71338383D01*
X165922374Y-71346459D01*
X165889442Y-71366304D01*
X165855062Y-71364740D01*
X165823884Y-71342098D01*
X165821594Y-71339292D01*
X165814137Y-71328684D01*
X165808455Y-71316273D01*
X165804309Y-71299042D01*
X165801458Y-71273976D01*
X165799662Y-71238059D01*
X165798680Y-71188275D01*
X165798272Y-71121609D01*
X165798197Y-71045781D01*
X165798197Y-70782014D01*
X165658835Y-70782014D01*
X165599030Y-70781610D01*
X165557626Y-70780032D01*
X165530456Y-70776739D01*
X165513354Y-70771184D01*
X165502151Y-70762823D01*
X165500791Y-70761370D01*
X165484433Y-70728131D01*
X165485880Y-70690554D01*
X165504686Y-70657837D01*
X165511958Y-70651490D01*
X165521335Y-70646458D01*
X165535317Y-70642588D01*
X165556404Y-70639729D01*
X165587097Y-70637727D01*
X165629897Y-70636431D01*
X165687303Y-70635690D01*
X165761818Y-70635350D01*
X165855941Y-70635260D01*
X165875968Y-70635259D01*
X165974773Y-70635355D01*
G36*
X165974773Y-70635355D02*
G01*
X166053480Y-70635734D01*
X166114571Y-70636525D01*
X166160525Y-70637862D01*
X166193822Y-70639875D01*
X166216944Y-70642698D01*
X166232370Y-70646461D01*
X166242579Y-70651297D01*
X166247521Y-70655014D01*
X166273165Y-70687550D01*
X166276267Y-70721330D01*
X166260419Y-70752018D01*
X166250056Y-70764281D01*
X166238904Y-70772642D01*
X166222743Y-70777849D01*
X166197350Y-70780649D01*
X166158506Y-70781788D01*
X166101988Y-70782013D01*
X166090888Y-70782014D01*
X165944952Y-70782014D01*
X165944952Y-71052948D01*
X165944856Y-71138346D01*
X165944419Y-71204056D01*
X165943420Y-71252966D01*
X165941636Y-71287965D01*
X165938845Y-71311941D01*
X165934825Y-71327785D01*
X165929353Y-71338383D01*
X165922374Y-71346459D01*
X165889442Y-71366304D01*
X165855062Y-71364740D01*
X165823884Y-71342098D01*
X165821594Y-71339292D01*
X165814137Y-71328684D01*
X165808455Y-71316273D01*
X165804309Y-71299042D01*
X165801458Y-71273976D01*
X165799662Y-71238059D01*
X165798680Y-71188275D01*
X165798272Y-71121609D01*
X165798197Y-71045781D01*
X165798197Y-70782014D01*
X165658835Y-70782014D01*
X165599030Y-70781610D01*
X165557626Y-70780032D01*
X165530456Y-70776739D01*
X165513354Y-70771184D01*
X165502151Y-70762823D01*
X165500791Y-70761370D01*
X165484433Y-70728131D01*
X165485880Y-70690554D01*
X165504686Y-70657837D01*
X165511958Y-70651490D01*
X165521335Y-70646458D01*
X165535317Y-70642588D01*
X165556404Y-70639729D01*
X165587097Y-70637727D01*
X165629897Y-70636431D01*
X165687303Y-70635690D01*
X165761818Y-70635350D01*
X165855941Y-70635260D01*
X165875968Y-70635259D01*
X165974773Y-70635355D01*
G37*
X167240531Y-70640725D02*
X167271910Y-70662968D01*
X167299619Y-70690677D01*
X167299619Y-71000112D01*
X167299546Y-71091991D01*
X167299203Y-71164032D01*
X167298400Y-71218972D01*
X167296949Y-71259552D01*
X167294660Y-71288509D01*
X167291344Y-71308583D01*
X167286813Y-71322513D01*
X167280877Y-71333037D01*
X167276222Y-71339292D01*
X167245491Y-71363865D01*
X167210204Y-71366533D01*
X167177953Y-71351463D01*
X167167296Y-71342566D01*
X167160172Y-71330749D01*
X167155875Y-71311718D01*
X167153699Y-71281184D01*
X167152936Y-71234854D01*
X167152863Y-71199063D01*
X167152863Y-71064237D01*
X166656152Y-71064237D01*
X166656152Y-71186892D01*
X166655639Y-71242979D01*
X166653584Y-71281525D01*
X166649216Y-71307553D01*
X166641764Y-71326089D01*
X166632755Y-71339292D01*
X166601852Y-71363796D01*
X166566904Y-71366698D01*
X166533446Y-71349281D01*
X166524312Y-71340151D01*
X166517860Y-71328047D01*
X166513605Y-71309193D01*
X166511060Y-71279812D01*
X166509737Y-71236129D01*
X166509151Y-71174367D01*
X166509083Y-71160192D01*
X166508599Y-71043823D01*
X166508349Y-70947919D01*
X166508431Y-70870369D01*
X166508939Y-70809061D01*
X166509970Y-70761882D01*
X166511621Y-70726722D01*
X166513987Y-70701468D01*
X166517165Y-70684009D01*
X166521252Y-70672233D01*
X166526342Y-70664027D01*
X166531974Y-70657837D01*
X166563836Y-70638036D01*
X166597065Y-70640725D01*
X166628443Y-70662968D01*
X166641141Y-70677318D01*
X166649234Y-70693170D01*
X166653750Y-70715746D01*
X166655714Y-70750270D01*
X166656152Y-70801968D01*
X166656152Y-70917481D01*
X167152863Y-70917481D01*
X167152863Y-70798948D01*
X167153370Y-70744340D01*
X167155406Y-70707467D01*
X167159743Y-70683499D01*
X167167155Y-70667607D01*
X167175441Y-70657837D01*
X167207302Y-70638036D01*
X167240531Y-70640725D01*
G36*
X167240531Y-70640725D02*
G01*
X167271910Y-70662968D01*
X167299619Y-70690677D01*
X167299619Y-71000112D01*
X167299546Y-71091991D01*
X167299203Y-71164032D01*
X167298400Y-71218972D01*
X167296949Y-71259552D01*
X167294660Y-71288509D01*
X167291344Y-71308583D01*
X167286813Y-71322513D01*
X167280877Y-71333037D01*
X167276222Y-71339292D01*
X167245491Y-71363865D01*
X167210204Y-71366533D01*
X167177953Y-71351463D01*
X167167296Y-71342566D01*
X167160172Y-71330749D01*
X167155875Y-71311718D01*
X167153699Y-71281184D01*
X167152936Y-71234854D01*
X167152863Y-71199063D01*
X167152863Y-71064237D01*
X166656152Y-71064237D01*
X166656152Y-71186892D01*
X166655639Y-71242979D01*
X166653584Y-71281525D01*
X166649216Y-71307553D01*
X166641764Y-71326089D01*
X166632755Y-71339292D01*
X166601852Y-71363796D01*
X166566904Y-71366698D01*
X166533446Y-71349281D01*
X166524312Y-71340151D01*
X166517860Y-71328047D01*
X166513605Y-71309193D01*
X166511060Y-71279812D01*
X166509737Y-71236129D01*
X166509151Y-71174367D01*
X166509083Y-71160192D01*
X166508599Y-71043823D01*
X166508349Y-70947919D01*
X166508431Y-70870369D01*
X166508939Y-70809061D01*
X166509970Y-70761882D01*
X166511621Y-70726722D01*
X166513987Y-70701468D01*
X166517165Y-70684009D01*
X166521252Y-70672233D01*
X166526342Y-70664027D01*
X166531974Y-70657837D01*
X166563836Y-70638036D01*
X166597065Y-70640725D01*
X166628443Y-70662968D01*
X166641141Y-70677318D01*
X166649234Y-70693170D01*
X166653750Y-70715746D01*
X166655714Y-70750270D01*
X166656152Y-70801968D01*
X166656152Y-70917481D01*
X167152863Y-70917481D01*
X167152863Y-70798948D01*
X167153370Y-70744340D01*
X167155406Y-70707467D01*
X167159743Y-70683499D01*
X167167155Y-70667607D01*
X167175441Y-70657837D01*
X167207302Y-70638036D01*
X167240531Y-70640725D01*
G37*
X162030017Y-70635467D02*
X162158996Y-70639828D01*
X162268699Y-70653053D01*
X162360934Y-70675933D01*
X162437510Y-70709262D01*
X162500235Y-70753830D01*
X162550920Y-70810428D01*
X162591371Y-70879850D01*
X162592167Y-70881543D01*
X162616309Y-70943675D01*
X162624911Y-70998701D01*
X162617939Y-71054079D01*
X162595362Y-71117265D01*
X162591080Y-71126881D01*
X162561880Y-71183158D01*
X162529064Y-71226643D01*
X162486710Y-71263609D01*
X162428898Y-71300327D01*
X162425539Y-71302244D01*
X162375212Y-71326419D01*
X162318329Y-71344474D01*
X162251235Y-71357031D01*
X162170273Y-71364714D01*
X162071790Y-71368145D01*
X162036994Y-71368443D01*
X161871302Y-71369037D01*
X161847905Y-71339292D01*
X161840965Y-71329511D01*
X161835550Y-71318089D01*
X161831473Y-71302287D01*
X161828545Y-71279367D01*
X161826575Y-71246588D01*
X161825933Y-71222281D01*
X161825376Y-71201213D01*
X161824758Y-71140503D01*
X161824533Y-71061718D01*
X161824508Y-71000112D01*
X161824508Y-70782014D01*
X161982552Y-70782014D01*
X161982552Y-71222281D01*
X162076434Y-71222281D01*
X162131372Y-71220675D01*
X162187768Y-71216447D01*
X162234053Y-71210484D01*
X162236847Y-71209982D01*
X162319056Y-71187928D01*
X162382822Y-71154792D01*
X162430160Y-71109039D01*
X162463090Y-71049131D01*
X162468816Y-71033253D01*
X162474429Y-71008525D01*
X162471999Y-70984094D01*
X162460175Y-70951592D01*
X162453048Y-70935626D01*
X162429708Y-70893198D01*
X162401588Y-70863432D01*
X162370648Y-70842703D01*
X162308674Y-70815729D01*
X162229359Y-70796190D01*
X162136961Y-70784938D01*
X162070041Y-70782462D01*
X161982552Y-70782014D01*
X161824508Y-70782014D01*
X161824508Y-70690677D01*
X161852217Y-70662968D01*
X161864514Y-70651736D01*
X161877811Y-70644045D01*
X161896380Y-70639232D01*
X161924494Y-70636638D01*
X161966425Y-70635602D01*
X162026445Y-70635462D01*
X162030017Y-70635467D01*
G36*
X162030017Y-70635467D02*
G01*
X162158996Y-70639828D01*
X162268699Y-70653053D01*
X162360934Y-70675933D01*
X162437510Y-70709262D01*
X162500235Y-70753830D01*
X162550920Y-70810428D01*
X162591371Y-70879850D01*
X162592167Y-70881543D01*
X162616309Y-70943675D01*
X162624911Y-70998701D01*
X162617939Y-71054079D01*
X162595362Y-71117265D01*
X162591080Y-71126881D01*
X162561880Y-71183158D01*
X162529064Y-71226643D01*
X162486710Y-71263609D01*
X162428898Y-71300327D01*
X162425539Y-71302244D01*
X162375212Y-71326419D01*
X162318329Y-71344474D01*
X162251235Y-71357031D01*
X162170273Y-71364714D01*
X162071790Y-71368145D01*
X162036994Y-71368443D01*
X161871302Y-71369037D01*
X161847905Y-71339292D01*
X161840965Y-71329511D01*
X161835550Y-71318089D01*
X161831473Y-71302287D01*
X161828545Y-71279367D01*
X161826575Y-71246588D01*
X161825933Y-71222281D01*
X161825376Y-71201213D01*
X161824758Y-71140503D01*
X161824533Y-71061718D01*
X161824508Y-71000112D01*
X161824508Y-70782014D01*
X161982552Y-70782014D01*
X161982552Y-71222281D01*
X162076434Y-71222281D01*
X162131372Y-71220675D01*
X162187768Y-71216447D01*
X162234053Y-71210484D01*
X162236847Y-71209982D01*
X162319056Y-71187928D01*
X162382822Y-71154792D01*
X162430160Y-71109039D01*
X162463090Y-71049131D01*
X162468816Y-71033253D01*
X162474429Y-71008525D01*
X162471999Y-70984094D01*
X162460175Y-70951592D01*
X162453048Y-70935626D01*
X162429708Y-70893198D01*
X162401588Y-70863432D01*
X162370648Y-70842703D01*
X162308674Y-70815729D01*
X162229359Y-70796190D01*
X162136961Y-70784938D01*
X162070041Y-70782462D01*
X161982552Y-70782014D01*
X161824508Y-70782014D01*
X161824508Y-70690677D01*
X161852217Y-70662968D01*
X161864514Y-70651736D01*
X161877811Y-70644045D01*
X161896380Y-70639232D01*
X161924494Y-70636638D01*
X161966425Y-70635602D01*
X162026445Y-70635462D01*
X162030017Y-70635467D01*
G37*
X154890337Y-70635258D02*
X154929819Y-70635659D01*
X155045508Y-70638451D01*
X155142397Y-70646742D01*
X155223789Y-70661424D01*
X155292985Y-70683385D01*
X155353288Y-70713514D01*
X155408000Y-70752702D01*
X155427541Y-70769724D01*
X155459958Y-70809555D01*
X155489188Y-70863605D01*
X155511717Y-70923515D01*
X155524029Y-70980931D01*
X155525308Y-71002148D01*
X155517291Y-71060961D01*
X155495809Y-71125205D01*
X155464709Y-71186013D01*
X155427842Y-71234522D01*
X155421854Y-71240374D01*
X155371129Y-71281513D01*
X155315583Y-71313627D01*
X155252012Y-71337557D01*
X155177214Y-71354145D01*
X155087986Y-71364233D01*
X154981126Y-71368661D01*
X154932180Y-71369037D01*
X154869946Y-71368737D01*
X154826180Y-71367484D01*
X154796777Y-71364746D01*
X154777629Y-71359993D01*
X154764631Y-71352693D01*
X154757663Y-71346459D01*
X154751082Y-71338886D01*
X154745920Y-71329116D01*
X154742005Y-71314532D01*
X154739165Y-71292518D01*
X154737228Y-71260456D01*
X154736200Y-71222281D01*
X154881841Y-71222281D01*
X154974974Y-71222196D01*
X155031015Y-71220588D01*
X155089709Y-71216448D01*
X155138680Y-71210656D01*
X155140170Y-71210418D01*
X155219316Y-71191282D01*
X155280706Y-71161479D01*
X155327403Y-71119070D01*
X155357073Y-71073153D01*
X155375355Y-71022218D01*
X155373937Y-70974392D01*
X155352720Y-70923125D01*
X155311219Y-70870091D01*
X155253710Y-70830792D01*
X155178958Y-70804523D01*
X155129000Y-70795227D01*
X155072292Y-70788699D01*
X155012189Y-70783974D01*
X154961069Y-70782009D01*
X154958041Y-70782000D01*
X154881841Y-70782014D01*
X154881841Y-71222281D01*
X154736200Y-71222281D01*
X154736024Y-71215728D01*
X154735380Y-71155718D01*
X154735125Y-71077809D01*
X154735086Y-71002148D01*
X154734838Y-70901233D01*
X154734891Y-70820619D01*
X154735851Y-70782014D01*
X154736448Y-70758043D01*
X154740710Y-70711247D01*
X154748878Y-70677970D01*
X154762152Y-70655951D01*
X154781734Y-70642931D01*
X154808825Y-70636649D01*
X154844626Y-70634845D01*
X154890337Y-70635258D01*
G36*
X154890337Y-70635258D02*
G01*
X154929819Y-70635659D01*
X155045508Y-70638451D01*
X155142397Y-70646742D01*
X155223789Y-70661424D01*
X155292985Y-70683385D01*
X155353288Y-70713514D01*
X155408000Y-70752702D01*
X155427541Y-70769724D01*
X155459958Y-70809555D01*
X155489188Y-70863605D01*
X155511717Y-70923515D01*
X155524029Y-70980931D01*
X155525308Y-71002148D01*
X155517291Y-71060961D01*
X155495809Y-71125205D01*
X155464709Y-71186013D01*
X155427842Y-71234522D01*
X155421854Y-71240374D01*
X155371129Y-71281513D01*
X155315583Y-71313627D01*
X155252012Y-71337557D01*
X155177214Y-71354145D01*
X155087986Y-71364233D01*
X154981126Y-71368661D01*
X154932180Y-71369037D01*
X154869946Y-71368737D01*
X154826180Y-71367484D01*
X154796777Y-71364746D01*
X154777629Y-71359993D01*
X154764631Y-71352693D01*
X154757663Y-71346459D01*
X154751082Y-71338886D01*
X154745920Y-71329116D01*
X154742005Y-71314532D01*
X154739165Y-71292518D01*
X154737228Y-71260456D01*
X154736200Y-71222281D01*
X154881841Y-71222281D01*
X154974974Y-71222196D01*
X155031015Y-71220588D01*
X155089709Y-71216448D01*
X155138680Y-71210656D01*
X155140170Y-71210418D01*
X155219316Y-71191282D01*
X155280706Y-71161479D01*
X155327403Y-71119070D01*
X155357073Y-71073153D01*
X155375355Y-71022218D01*
X155373937Y-70974392D01*
X155352720Y-70923125D01*
X155311219Y-70870091D01*
X155253710Y-70830792D01*
X155178958Y-70804523D01*
X155129000Y-70795227D01*
X155072292Y-70788699D01*
X155012189Y-70783974D01*
X154961069Y-70782009D01*
X154958041Y-70782000D01*
X154881841Y-70782014D01*
X154881841Y-71222281D01*
X154736200Y-71222281D01*
X154736024Y-71215728D01*
X154735380Y-71155718D01*
X154735125Y-71077809D01*
X154735086Y-71002148D01*
X154734838Y-70901233D01*
X154734891Y-70820619D01*
X154735851Y-70782014D01*
X154736448Y-70758043D01*
X154740710Y-70711247D01*
X154748878Y-70677970D01*
X154762152Y-70655951D01*
X154781734Y-70642931D01*
X154808825Y-70636649D01*
X154844626Y-70634845D01*
X154890337Y-70635258D01*
G37*
X159711594Y-70639640D02*
X159735160Y-70653465D01*
X159765973Y-70676073D01*
X159805630Y-70708530D01*
X159855728Y-70751900D01*
X159917865Y-70807250D01*
X159993636Y-70875643D01*
X160080374Y-70954276D01*
X160260997Y-71118070D01*
X160266641Y-70898221D01*
X160268679Y-70822543D01*
X160270645Y-70766186D01*
X160272974Y-70725898D01*
X160276102Y-70698427D01*
X160280463Y-70680521D01*
X160286492Y-70668929D01*
X160294624Y-70660400D01*
X160298936Y-70656815D01*
X160333467Y-70637862D01*
X160366325Y-70640633D01*
X160392390Y-70656825D01*
X160419041Y-70678391D01*
X160422356Y-70993343D01*
X160423273Y-71085971D01*
X160423740Y-71158736D01*
X160423595Y-71214353D01*
X160422676Y-71255534D01*
X160420821Y-71284995D01*
X160417869Y-71305447D01*
X160413658Y-71319605D01*
X160408026Y-71330183D01*
X160401781Y-71338666D01*
X160388269Y-71354399D01*
X160374825Y-71364828D01*
X160359584Y-71368831D01*
X160340682Y-71365286D01*
X160316253Y-71353071D01*
X160284435Y-71331063D01*
X160243360Y-71298141D01*
X160191166Y-71253183D01*
X160125986Y-71195067D01*
X160052152Y-71128291D01*
X159786863Y-70887650D01*
X159781219Y-71106781D01*
X159779177Y-71182320D01*
X159777206Y-71238546D01*
X159774869Y-71278716D01*
X159771727Y-71306088D01*
X159767344Y-71323920D01*
X159761284Y-71335471D01*
X159753108Y-71343999D01*
X159748924Y-71347474D01*
X159711943Y-71366564D01*
X159677000Y-71363685D01*
X159646572Y-71339292D01*
X159639611Y-71329478D01*
X159634185Y-71318018D01*
X159630105Y-71302160D01*
X159627179Y-71279155D01*
X159625216Y-71246254D01*
X159624025Y-71200708D01*
X159623416Y-71139765D01*
X159623197Y-71060678D01*
X159623174Y-71002148D01*
X159623248Y-70910599D01*
X159623595Y-70838879D01*
X159624407Y-70784237D01*
X159625875Y-70743924D01*
X159628189Y-70715190D01*
X159631541Y-70695285D01*
X159636120Y-70681460D01*
X159642119Y-70670964D01*
X159646572Y-70665003D01*
X159657858Y-70650883D01*
X159668407Y-70640221D01*
X159679815Y-70634084D01*
X159693678Y-70633535D01*
X159711594Y-70639640D01*
G36*
X159711594Y-70639640D02*
G01*
X159735160Y-70653465D01*
X159765973Y-70676073D01*
X159805630Y-70708530D01*
X159855728Y-70751900D01*
X159917865Y-70807250D01*
X159993636Y-70875643D01*
X160080374Y-70954276D01*
X160260997Y-71118070D01*
X160266641Y-70898221D01*
X160268679Y-70822543D01*
X160270645Y-70766186D01*
X160272974Y-70725898D01*
X160276102Y-70698427D01*
X160280463Y-70680521D01*
X160286492Y-70668929D01*
X160294624Y-70660400D01*
X160298936Y-70656815D01*
X160333467Y-70637862D01*
X160366325Y-70640633D01*
X160392390Y-70656825D01*
X160419041Y-70678391D01*
X160422356Y-70993343D01*
X160423273Y-71085971D01*
X160423740Y-71158736D01*
X160423595Y-71214353D01*
X160422676Y-71255534D01*
X160420821Y-71284995D01*
X160417869Y-71305447D01*
X160413658Y-71319605D01*
X160408026Y-71330183D01*
X160401781Y-71338666D01*
X160388269Y-71354399D01*
X160374825Y-71364828D01*
X160359584Y-71368831D01*
X160340682Y-71365286D01*
X160316253Y-71353071D01*
X160284435Y-71331063D01*
X160243360Y-71298141D01*
X160191166Y-71253183D01*
X160125986Y-71195067D01*
X160052152Y-71128291D01*
X159786863Y-70887650D01*
X159781219Y-71106781D01*
X159779177Y-71182320D01*
X159777206Y-71238546D01*
X159774869Y-71278716D01*
X159771727Y-71306088D01*
X159767344Y-71323920D01*
X159761284Y-71335471D01*
X159753108Y-71343999D01*
X159748924Y-71347474D01*
X159711943Y-71366564D01*
X159677000Y-71363685D01*
X159646572Y-71339292D01*
X159639611Y-71329478D01*
X159634185Y-71318018D01*
X159630105Y-71302160D01*
X159627179Y-71279155D01*
X159625216Y-71246254D01*
X159624025Y-71200708D01*
X159623416Y-71139765D01*
X159623197Y-71060678D01*
X159623174Y-71002148D01*
X159623248Y-70910599D01*
X159623595Y-70838879D01*
X159624407Y-70784237D01*
X159625875Y-70743924D01*
X159628189Y-70715190D01*
X159631541Y-70695285D01*
X159636120Y-70681460D01*
X159642119Y-70670964D01*
X159646572Y-70665003D01*
X159657858Y-70650883D01*
X159668407Y-70640221D01*
X159679815Y-70634084D01*
X159693678Y-70633535D01*
X159711594Y-70639640D01*
G37*
X159061627Y-70640791D02*
X159130143Y-70652287D01*
X159182765Y-70670159D01*
X159217000Y-70693691D01*
X159226329Y-70707116D01*
X159235815Y-70738340D01*
X159229431Y-70766587D01*
X159209278Y-70793374D01*
X159177963Y-70805905D01*
X159132525Y-70804888D01*
X159097382Y-70798098D01*
X159019289Y-70785163D01*
X158939482Y-70783934D01*
X158850153Y-70794433D01*
X158825479Y-70798882D01*
X158742417Y-70822300D01*
X158677435Y-70857137D01*
X158631247Y-70902796D01*
X158604563Y-70958686D01*
X158599045Y-70987580D01*
X158602657Y-71046204D01*
X158625979Y-71098071D01*
X158666884Y-71142170D01*
X158723249Y-71177491D01*
X158792948Y-71203021D01*
X158873856Y-71217751D01*
X158963848Y-71220670D01*
X159060798Y-71210767D01*
X159066272Y-71209833D01*
X159104833Y-71202651D01*
X159126214Y-71195713D01*
X159135481Y-71185419D01*
X159137702Y-71168168D01*
X159137752Y-71159033D01*
X159137752Y-71120681D01*
X159069277Y-71120681D01*
X159008808Y-71116539D01*
X158967543Y-71103339D01*
X158943533Y-71079922D01*
X158934831Y-71045128D01*
X158934725Y-71040586D01*
X158939816Y-71010846D01*
X158957275Y-70989611D01*
X158989769Y-70975558D01*
X159039965Y-70967365D01*
X159088585Y-70964353D01*
X159159252Y-70962625D01*
X159210510Y-70965262D01*
X159245469Y-70974992D01*
X159267238Y-70994545D01*
X159278928Y-71026648D01*
X159283648Y-71074030D01*
X159284508Y-71136263D01*
X159283099Y-71205727D01*
X159278860Y-71252978D01*
X159271772Y-71278204D01*
X159270397Y-71280180D01*
X159231480Y-71311700D01*
X159174422Y-71336662D01*
X159102839Y-71354532D01*
X159020350Y-71364778D01*
X158930569Y-71366865D01*
X158837116Y-71360260D01*
X158782152Y-71352148D01*
X158695942Y-71327746D01*
X158615816Y-71287854D01*
X158548731Y-71236079D01*
X158538535Y-71225731D01*
X158505406Y-71182227D01*
X158475514Y-71128310D01*
X158452351Y-71071784D01*
X158439410Y-71020451D01*
X158437850Y-71000736D01*
X158444490Y-70959611D01*
X158462140Y-70908444D01*
X158487411Y-70854586D01*
X158516919Y-70805387D01*
X158542989Y-70772526D01*
X158603943Y-70723644D01*
X158682739Y-70684737D01*
X158776551Y-70656686D01*
X158882558Y-70640371D01*
X158979708Y-70636384D01*
X159061627Y-70640791D01*
G36*
X159061627Y-70640791D02*
G01*
X159130143Y-70652287D01*
X159182765Y-70670159D01*
X159217000Y-70693691D01*
X159226329Y-70707116D01*
X159235815Y-70738340D01*
X159229431Y-70766587D01*
X159209278Y-70793374D01*
X159177963Y-70805905D01*
X159132525Y-70804888D01*
X159097382Y-70798098D01*
X159019289Y-70785163D01*
X158939482Y-70783934D01*
X158850153Y-70794433D01*
X158825479Y-70798882D01*
X158742417Y-70822300D01*
X158677435Y-70857137D01*
X158631247Y-70902796D01*
X158604563Y-70958686D01*
X158599045Y-70987580D01*
X158602657Y-71046204D01*
X158625979Y-71098071D01*
X158666884Y-71142170D01*
X158723249Y-71177491D01*
X158792948Y-71203021D01*
X158873856Y-71217751D01*
X158963848Y-71220670D01*
X159060798Y-71210767D01*
X159066272Y-71209833D01*
X159104833Y-71202651D01*
X159126214Y-71195713D01*
X159135481Y-71185419D01*
X159137702Y-71168168D01*
X159137752Y-71159033D01*
X159137752Y-71120681D01*
X159069277Y-71120681D01*
X159008808Y-71116539D01*
X158967543Y-71103339D01*
X158943533Y-71079922D01*
X158934831Y-71045128D01*
X158934725Y-71040586D01*
X158939816Y-71010846D01*
X158957275Y-70989611D01*
X158989769Y-70975558D01*
X159039965Y-70967365D01*
X159088585Y-70964353D01*
X159159252Y-70962625D01*
X159210510Y-70965262D01*
X159245469Y-70974992D01*
X159267238Y-70994545D01*
X159278928Y-71026648D01*
X159283648Y-71074030D01*
X159284508Y-71136263D01*
X159283099Y-71205727D01*
X159278860Y-71252978D01*
X159271772Y-71278204D01*
X159270397Y-71280180D01*
X159231480Y-71311700D01*
X159174422Y-71336662D01*
X159102839Y-71354532D01*
X159020350Y-71364778D01*
X158930569Y-71366865D01*
X158837116Y-71360260D01*
X158782152Y-71352148D01*
X158695942Y-71327746D01*
X158615816Y-71287854D01*
X158548731Y-71236079D01*
X158538535Y-71225731D01*
X158505406Y-71182227D01*
X158475514Y-71128310D01*
X158452351Y-71071784D01*
X158439410Y-71020451D01*
X158437850Y-71000736D01*
X158444490Y-70959611D01*
X158462140Y-70908444D01*
X158487411Y-70854586D01*
X158516919Y-70805387D01*
X158542989Y-70772526D01*
X158603943Y-70723644D01*
X158682739Y-70684737D01*
X158776551Y-70656686D01*
X158882558Y-70640371D01*
X158979708Y-70636384D01*
X159061627Y-70640791D01*
G37*
X161242051Y-70635452D02*
X161318409Y-70636366D01*
X161376925Y-70638503D01*
X161419963Y-70642367D01*
X161449891Y-70648459D01*
X161469076Y-70657282D01*
X161479884Y-70669338D01*
X161484681Y-70685131D01*
X161485835Y-70705162D01*
X161485841Y-70707527D01*
X161484839Y-70730184D01*
X161480104Y-70747695D01*
X161469041Y-70760766D01*
X161449056Y-70770105D01*
X161417554Y-70776419D01*
X161371940Y-70780414D01*
X161309621Y-70782798D01*
X161228001Y-70784278D01*
X161202985Y-70784606D01*
X160960908Y-70787659D01*
X160957522Y-70852570D01*
X160954137Y-70917481D01*
X161122284Y-70917481D01*
X161187974Y-70917723D01*
X161234880Y-70918748D01*
X161266791Y-70921003D01*
X161287499Y-70924934D01*
X161300792Y-70930990D01*
X161310463Y-70939616D01*
X161310525Y-70939685D01*
X161328064Y-70973304D01*
X161327430Y-71009640D01*
X161309022Y-71040615D01*
X161305379Y-71043799D01*
X161292449Y-71052004D01*
X161274732Y-71057713D01*
X161248278Y-71061354D01*
X161209140Y-71063359D01*
X161153370Y-71064156D01*
X161117702Y-71064237D01*
X160955263Y-71064237D01*
X160955263Y-71222281D01*
X161201869Y-71222281D01*
X161283288Y-71222423D01*
X161345118Y-71223006D01*
X161390345Y-71224260D01*
X161421956Y-71226419D01*
X161442939Y-71229715D01*
X161456281Y-71234381D01*
X161464969Y-71240649D01*
X161467158Y-71242925D01*
X161483322Y-71274472D01*
X161484505Y-71310360D01*
X161471244Y-71341477D01*
X161460751Y-71351463D01*
X161449837Y-71356961D01*
X161432925Y-71361214D01*
X161407341Y-71364372D01*
X161370409Y-71366584D01*
X161319454Y-71367998D01*
X161251802Y-71368764D01*
X161164777Y-71369030D01*
X161145102Y-71369037D01*
X161056619Y-71368979D01*
X160987935Y-71368659D01*
X160936272Y-71367859D01*
X160898853Y-71366359D01*
X160872898Y-71363941D01*
X160855630Y-71360386D01*
X160844270Y-71355474D01*
X160836040Y-71348987D01*
X160831525Y-71344330D01*
X160824729Y-71336081D01*
X160819420Y-71325861D01*
X160815414Y-71310992D01*
X160812529Y-71288794D01*
X160810582Y-71256585D01*
X160809389Y-71211688D01*
X160808769Y-71151420D01*
X160808537Y-71073103D01*
X160808508Y-71007186D01*
X160808579Y-70914820D01*
X160808916Y-70842309D01*
X160809706Y-70786929D01*
X160811134Y-70745957D01*
X160813387Y-70716670D01*
X160816651Y-70696345D01*
X160821112Y-70682258D01*
X160826956Y-70671687D01*
X160831905Y-70665003D01*
X160855302Y-70635259D01*
X161145482Y-70635259D01*
X161242051Y-70635452D01*
G36*
X161242051Y-70635452D02*
G01*
X161318409Y-70636366D01*
X161376925Y-70638503D01*
X161419963Y-70642367D01*
X161449891Y-70648459D01*
X161469076Y-70657282D01*
X161479884Y-70669338D01*
X161484681Y-70685131D01*
X161485835Y-70705162D01*
X161485841Y-70707527D01*
X161484839Y-70730184D01*
X161480104Y-70747695D01*
X161469041Y-70760766D01*
X161449056Y-70770105D01*
X161417554Y-70776419D01*
X161371940Y-70780414D01*
X161309621Y-70782798D01*
X161228001Y-70784278D01*
X161202985Y-70784606D01*
X160960908Y-70787659D01*
X160957522Y-70852570D01*
X160954137Y-70917481D01*
X161122284Y-70917481D01*
X161187974Y-70917723D01*
X161234880Y-70918748D01*
X161266791Y-70921003D01*
X161287499Y-70924934D01*
X161300792Y-70930990D01*
X161310463Y-70939616D01*
X161310525Y-70939685D01*
X161328064Y-70973304D01*
X161327430Y-71009640D01*
X161309022Y-71040615D01*
X161305379Y-71043799D01*
X161292449Y-71052004D01*
X161274732Y-71057713D01*
X161248278Y-71061354D01*
X161209140Y-71063359D01*
X161153370Y-71064156D01*
X161117702Y-71064237D01*
X160955263Y-71064237D01*
X160955263Y-71222281D01*
X161201869Y-71222281D01*
X161283288Y-71222423D01*
X161345118Y-71223006D01*
X161390345Y-71224260D01*
X161421956Y-71226419D01*
X161442939Y-71229715D01*
X161456281Y-71234381D01*
X161464969Y-71240649D01*
X161467158Y-71242925D01*
X161483322Y-71274472D01*
X161484505Y-71310360D01*
X161471244Y-71341477D01*
X161460751Y-71351463D01*
X161449837Y-71356961D01*
X161432925Y-71361214D01*
X161407341Y-71364372D01*
X161370409Y-71366584D01*
X161319454Y-71367998D01*
X161251802Y-71368764D01*
X161164777Y-71369030D01*
X161145102Y-71369037D01*
X161056619Y-71368979D01*
X160987935Y-71368659D01*
X160936272Y-71367859D01*
X160898853Y-71366359D01*
X160872898Y-71363941D01*
X160855630Y-71360386D01*
X160844270Y-71355474D01*
X160836040Y-71348987D01*
X160831525Y-71344330D01*
X160824729Y-71336081D01*
X160819420Y-71325861D01*
X160815414Y-71310992D01*
X160812529Y-71288794D01*
X160810582Y-71256585D01*
X160809389Y-71211688D01*
X160808769Y-71151420D01*
X160808537Y-71073103D01*
X160808508Y-71007186D01*
X160808579Y-70914820D01*
X160808916Y-70842309D01*
X160809706Y-70786929D01*
X160811134Y-70745957D01*
X160813387Y-70716670D01*
X160816651Y-70696345D01*
X160821112Y-70682258D01*
X160826956Y-70671687D01*
X160831905Y-70665003D01*
X160855302Y-70635259D01*
X161145482Y-70635259D01*
X161242051Y-70635452D01*
G37*
X156298914Y-70635338D02*
X156368322Y-70635710D01*
X156420711Y-70636577D01*
X156458861Y-70638138D01*
X156485549Y-70640595D01*
X156503555Y-70644149D01*
X156515659Y-70649002D01*
X156524639Y-70655353D01*
X156527890Y-70658276D01*
X156547665Y-70689334D01*
X156551226Y-70725020D01*
X156538217Y-70756702D01*
X156532202Y-70763105D01*
X156522473Y-70769313D01*
X156506807Y-70774102D01*
X156482300Y-70777706D01*
X156446047Y-70780356D01*
X156395143Y-70782287D01*
X156326682Y-70783731D01*
X156264091Y-70784610D01*
X156016374Y-70787659D01*
X156012989Y-70852570D01*
X156009603Y-70917481D01*
X156177750Y-70917481D01*
X156250749Y-70918111D01*
X156304191Y-70920745D01*
X156341080Y-70926501D01*
X156364420Y-70936496D01*
X156377214Y-70951848D01*
X156382466Y-70973674D01*
X156383263Y-70993930D01*
X156380785Y-71018784D01*
X156371431Y-71037098D01*
X156352325Y-71049829D01*
X156320590Y-71057933D01*
X156273349Y-71062368D01*
X156207725Y-71064091D01*
X156171907Y-71064237D01*
X156010730Y-71064237D01*
X156010730Y-71222281D01*
X156259086Y-71222281D01*
X156340495Y-71222394D01*
X156402366Y-71222904D01*
X156447740Y-71224062D01*
X156479654Y-71226122D01*
X156501149Y-71229338D01*
X156515265Y-71233964D01*
X156525040Y-71240251D01*
X156530019Y-71244859D01*
X156547098Y-71271752D01*
X156552597Y-71295659D01*
X156544745Y-71324859D01*
X156530019Y-71346459D01*
X156522162Y-71353258D01*
X156512020Y-71358538D01*
X156496864Y-71362490D01*
X156473967Y-71365305D01*
X156440599Y-71367174D01*
X156394033Y-71368290D01*
X156331541Y-71368843D01*
X156250394Y-71369025D01*
X156208286Y-71369037D01*
X156118110Y-71368957D01*
X156047784Y-71368590D01*
X155994579Y-71367744D01*
X155955768Y-71366228D01*
X155928621Y-71363851D01*
X155910410Y-71360421D01*
X155898408Y-71355746D01*
X155889886Y-71349636D01*
X155886552Y-71346459D01*
X155879953Y-71338862D01*
X155874781Y-71329062D01*
X155870862Y-71314431D01*
X155868024Y-71292344D01*
X155866093Y-71260174D01*
X155864896Y-71215295D01*
X155864260Y-71155081D01*
X155864011Y-71076905D01*
X155863974Y-71004115D01*
X155864008Y-70910899D01*
X155864243Y-70837623D01*
X155864878Y-70781650D01*
X155866114Y-70740343D01*
X155868152Y-70711064D01*
X155871191Y-70691176D01*
X155875431Y-70678042D01*
X155881073Y-70669024D01*
X155888317Y-70661485D01*
X155890102Y-70659804D01*
X155898763Y-70652364D01*
X155908826Y-70646601D01*
X155923083Y-70642304D01*
X155944325Y-70639256D01*
X155975344Y-70637243D01*
X156018931Y-70636052D01*
X156077877Y-70635467D01*
X156154974Y-70635275D01*
X156209707Y-70635259D01*
X156298914Y-70635338D01*
G36*
X156298914Y-70635338D02*
G01*
X156368322Y-70635710D01*
X156420711Y-70636577D01*
X156458861Y-70638138D01*
X156485549Y-70640595D01*
X156503555Y-70644149D01*
X156515659Y-70649002D01*
X156524639Y-70655353D01*
X156527890Y-70658276D01*
X156547665Y-70689334D01*
X156551226Y-70725020D01*
X156538217Y-70756702D01*
X156532202Y-70763105D01*
X156522473Y-70769313D01*
X156506807Y-70774102D01*
X156482300Y-70777706D01*
X156446047Y-70780356D01*
X156395143Y-70782287D01*
X156326682Y-70783731D01*
X156264091Y-70784610D01*
X156016374Y-70787659D01*
X156012989Y-70852570D01*
X156009603Y-70917481D01*
X156177750Y-70917481D01*
X156250749Y-70918111D01*
X156304191Y-70920745D01*
X156341080Y-70926501D01*
X156364420Y-70936496D01*
X156377214Y-70951848D01*
X156382466Y-70973674D01*
X156383263Y-70993930D01*
X156380785Y-71018784D01*
X156371431Y-71037098D01*
X156352325Y-71049829D01*
X156320590Y-71057933D01*
X156273349Y-71062368D01*
X156207725Y-71064091D01*
X156171907Y-71064237D01*
X156010730Y-71064237D01*
X156010730Y-71222281D01*
X156259086Y-71222281D01*
X156340495Y-71222394D01*
X156402366Y-71222904D01*
X156447740Y-71224062D01*
X156479654Y-71226122D01*
X156501149Y-71229338D01*
X156515265Y-71233964D01*
X156525040Y-71240251D01*
X156530019Y-71244859D01*
X156547098Y-71271752D01*
X156552597Y-71295659D01*
X156544745Y-71324859D01*
X156530019Y-71346459D01*
X156522162Y-71353258D01*
X156512020Y-71358538D01*
X156496864Y-71362490D01*
X156473967Y-71365305D01*
X156440599Y-71367174D01*
X156394033Y-71368290D01*
X156331541Y-71368843D01*
X156250394Y-71369025D01*
X156208286Y-71369037D01*
X156118110Y-71368957D01*
X156047784Y-71368590D01*
X155994579Y-71367744D01*
X155955768Y-71366228D01*
X155928621Y-71363851D01*
X155910410Y-71360421D01*
X155898408Y-71355746D01*
X155889886Y-71349636D01*
X155886552Y-71346459D01*
X155879953Y-71338862D01*
X155874781Y-71329062D01*
X155870862Y-71314431D01*
X155868024Y-71292344D01*
X155866093Y-71260174D01*
X155864896Y-71215295D01*
X155864260Y-71155081D01*
X155864011Y-71076905D01*
X155863974Y-71004115D01*
X155864008Y-70910899D01*
X155864243Y-70837623D01*
X155864878Y-70781650D01*
X155866114Y-70740343D01*
X155868152Y-70711064D01*
X155871191Y-70691176D01*
X155875431Y-70678042D01*
X155881073Y-70669024D01*
X155888317Y-70661485D01*
X155890102Y-70659804D01*
X155898763Y-70652364D01*
X155908826Y-70646601D01*
X155923083Y-70642304D01*
X155944325Y-70639256D01*
X155975344Y-70637243D01*
X156018931Y-70636052D01*
X156077877Y-70635467D01*
X156154974Y-70635275D01*
X156209707Y-70635259D01*
X156298914Y-70635338D01*
G37*
X164756373Y-70637226D02*
X164775963Y-70644227D01*
X164776718Y-70644569D01*
X164803321Y-70664870D01*
X164817978Y-70685753D01*
X164820846Y-70695544D01*
X164820704Y-70708553D01*
X164816669Y-70727087D01*
X164807854Y-70753449D01*
X164793377Y-70789944D01*
X164772353Y-70838879D01*
X164743896Y-70902557D01*
X164707123Y-70983285D01*
X164686883Y-71027408D01*
X164650333Y-71106177D01*
X164616023Y-71178615D01*
X164585260Y-71242072D01*
X164559356Y-71293900D01*
X164539618Y-71331451D01*
X164527358Y-71352076D01*
X164524932Y-71354925D01*
X164493891Y-71367494D01*
X164458829Y-71365811D01*
X164430708Y-71350524D01*
X164429562Y-71349281D01*
X164418376Y-71332346D01*
X164399612Y-71299362D01*
X164375583Y-71254572D01*
X164348605Y-71202224D01*
X164338909Y-71182934D01*
X164265722Y-71036342D01*
X164185948Y-71195585D01*
X164157475Y-71250607D01*
X164131058Y-71298324D01*
X164108856Y-71335085D01*
X164093027Y-71357236D01*
X164087662Y-71361933D01*
X164045965Y-71368294D01*
X164011557Y-71354925D01*
X164001436Y-71340638D01*
X163983922Y-71308884D01*
X163960443Y-71262789D01*
X163932428Y-71205477D01*
X163901307Y-71140072D01*
X163868507Y-71069699D01*
X163835458Y-70997483D01*
X163803589Y-70926547D01*
X163774327Y-70860017D01*
X163749103Y-70801018D01*
X163729344Y-70752673D01*
X163716480Y-70718107D01*
X163711939Y-70700445D01*
X163711985Y-70699805D01*
X163723034Y-70677580D01*
X163745118Y-70654945D01*
X163746418Y-70653960D01*
X163773561Y-70638617D01*
X163798666Y-70638766D01*
X163808076Y-70641658D01*
X163819542Y-70647910D01*
X163831718Y-70660206D01*
X163846065Y-70681100D01*
X163864044Y-70713141D01*
X163887115Y-70758880D01*
X163916738Y-70820869D01*
X163943453Y-70878090D01*
X163974188Y-70944418D01*
X164001729Y-71004066D01*
X164024646Y-71053917D01*
X164041506Y-71090856D01*
X164050881Y-71111765D01*
X164052248Y-71115037D01*
X164058397Y-71109689D01*
X164072530Y-71087301D01*
X164092765Y-71051138D01*
X164117223Y-71004469D01*
X164126956Y-70985214D01*
X164159925Y-70920196D01*
X164185351Y-70872846D01*
X164205320Y-70840411D01*
X164221918Y-70820138D01*
X164237232Y-70809274D01*
X164253348Y-70805067D01*
X164263851Y-70804592D01*
X164282378Y-70806234D01*
X164298612Y-70813023D01*
X164314743Y-70827758D01*
X164332959Y-70853236D01*
X164355447Y-70892253D01*
X164384397Y-70947606D01*
X164400370Y-70979095D01*
X164426278Y-71029279D01*
X164448875Y-71070896D01*
X164466166Y-71100434D01*
X164476158Y-71114381D01*
X164477517Y-71114962D01*
X164483969Y-71103985D01*
X164498416Y-71075482D01*
X164519411Y-71032436D01*
X164545505Y-70977830D01*
X164575254Y-70914646D01*
X164589888Y-70883263D01*
X164627958Y-70802270D01*
X164658613Y-70739948D01*
X164683445Y-70694263D01*
X164704045Y-70663181D01*
X164722006Y-70644670D01*
X164738918Y-70636696D01*
X164756373Y-70637226D01*
G36*
X164756373Y-70637226D02*
G01*
X164775963Y-70644227D01*
X164776718Y-70644569D01*
X164803321Y-70664870D01*
X164817978Y-70685753D01*
X164820846Y-70695544D01*
X164820704Y-70708553D01*
X164816669Y-70727087D01*
X164807854Y-70753449D01*
X164793377Y-70789944D01*
X164772353Y-70838879D01*
X164743896Y-70902557D01*
X164707123Y-70983285D01*
X164686883Y-71027408D01*
X164650333Y-71106177D01*
X164616023Y-71178615D01*
X164585260Y-71242072D01*
X164559356Y-71293900D01*
X164539618Y-71331451D01*
X164527358Y-71352076D01*
X164524932Y-71354925D01*
X164493891Y-71367494D01*
X164458829Y-71365811D01*
X164430708Y-71350524D01*
X164429562Y-71349281D01*
X164418376Y-71332346D01*
X164399612Y-71299362D01*
X164375583Y-71254572D01*
X164348605Y-71202224D01*
X164338909Y-71182934D01*
X164265722Y-71036342D01*
X164185948Y-71195585D01*
X164157475Y-71250607D01*
X164131058Y-71298324D01*
X164108856Y-71335085D01*
X164093027Y-71357236D01*
X164087662Y-71361933D01*
X164045965Y-71368294D01*
X164011557Y-71354925D01*
X164001436Y-71340638D01*
X163983922Y-71308884D01*
X163960443Y-71262789D01*
X163932428Y-71205477D01*
X163901307Y-71140072D01*
X163868507Y-71069699D01*
X163835458Y-70997483D01*
X163803589Y-70926547D01*
X163774327Y-70860017D01*
X163749103Y-70801018D01*
X163729344Y-70752673D01*
X163716480Y-70718107D01*
X163711939Y-70700445D01*
X163711985Y-70699805D01*
X163723034Y-70677580D01*
X163745118Y-70654945D01*
X163746418Y-70653960D01*
X163773561Y-70638617D01*
X163798666Y-70638766D01*
X163808076Y-70641658D01*
X163819542Y-70647910D01*
X163831718Y-70660206D01*
X163846065Y-70681100D01*
X163864044Y-70713141D01*
X163887115Y-70758880D01*
X163916738Y-70820869D01*
X163943453Y-70878090D01*
X163974188Y-70944418D01*
X164001729Y-71004066D01*
X164024646Y-71053917D01*
X164041506Y-71090856D01*
X164050881Y-71111765D01*
X164052248Y-71115037D01*
X164058397Y-71109689D01*
X164072530Y-71087301D01*
X164092765Y-71051138D01*
X164117223Y-71004469D01*
X164126956Y-70985214D01*
X164159925Y-70920196D01*
X164185351Y-70872846D01*
X164205320Y-70840411D01*
X164221918Y-70820138D01*
X164237232Y-70809274D01*
X164253348Y-70805067D01*
X164263851Y-70804592D01*
X164282378Y-70806234D01*
X164298612Y-70813023D01*
X164314743Y-70827758D01*
X164332959Y-70853236D01*
X164355447Y-70892253D01*
X164384397Y-70947606D01*
X164400370Y-70979095D01*
X164426278Y-71029279D01*
X164448875Y-71070896D01*
X164466166Y-71100434D01*
X164476158Y-71114381D01*
X164477517Y-71114962D01*
X164483969Y-71103985D01*
X164498416Y-71075482D01*
X164519411Y-71032436D01*
X164545505Y-70977830D01*
X164575254Y-70914646D01*
X164589888Y-70883263D01*
X164627958Y-70802270D01*
X164658613Y-70739948D01*
X164683445Y-70694263D01*
X164704045Y-70663181D01*
X164722006Y-70644670D01*
X164738918Y-70636696D01*
X164756373Y-70637226D01*
G37*
X157320005Y-70636543D02*
X157394820Y-70641773D01*
X157464402Y-70649942D01*
X157524706Y-70660742D01*
X157571688Y-70673865D01*
X157601302Y-70689005D01*
X157605848Y-70693461D01*
X157621654Y-70728042D01*
X157616861Y-70763543D01*
X157592344Y-70793917D01*
X157591174Y-70794788D01*
X157576754Y-70804146D01*
X157561700Y-70809068D01*
X157540703Y-70809665D01*
X157508451Y-70806053D01*
X157459635Y-70798346D01*
X157455708Y-70797697D01*
X157382969Y-70788761D01*
X157304491Y-70784353D01*
X157225781Y-70784311D01*
X157152347Y-70788471D01*
X157089697Y-70796671D01*
X157043338Y-70808749D01*
X157040292Y-70809963D01*
X157006660Y-70828807D01*
X156994844Y-70847877D01*
X157004094Y-70866631D01*
X157033661Y-70884529D01*
X157082797Y-70901029D01*
X157150751Y-70915588D01*
X157196063Y-70922598D01*
X157290252Y-70936081D01*
X157365164Y-70948406D01*
X157423991Y-70960641D01*
X157469923Y-70973853D01*
X157506153Y-70989109D01*
X157535870Y-71007477D01*
X157562266Y-71030023D01*
X157583478Y-71052163D01*
X157608643Y-71083011D01*
X157621027Y-71109537D01*
X157624900Y-71142218D01*
X157625041Y-71154187D01*
X157622132Y-71193904D01*
X157610506Y-71223451D01*
X157590385Y-71249678D01*
X157549492Y-71289768D01*
X157503891Y-71320341D01*
X157450195Y-71342395D01*
X157385016Y-71356927D01*
X157304964Y-71364933D01*
X157206651Y-71367410D01*
X157190419Y-71367369D01*
X157124859Y-71366010D01*
X157059842Y-71362922D01*
X157002456Y-71358548D01*
X156959786Y-71353332D01*
X156956336Y-71352733D01*
X156913912Y-71342683D01*
X156877928Y-71329988D01*
X156857558Y-71318382D01*
X156838601Y-71287764D01*
X156837281Y-71252110D01*
X156853623Y-71220336D01*
X156857279Y-71216743D01*
X156872393Y-71206068D01*
X156891293Y-71201468D01*
X156920546Y-71202251D01*
X156956057Y-71206319D01*
X156995738Y-71209954D01*
X157051363Y-71213020D01*
X157116302Y-71215245D01*
X157183923Y-71216356D01*
X157201708Y-71216429D01*
X157269580Y-71216156D01*
X157319254Y-71214838D01*
X157355098Y-71212019D01*
X157381484Y-71207242D01*
X157402782Y-71200049D01*
X157415582Y-71194059D01*
X157443708Y-71177425D01*
X157461640Y-71162360D01*
X157464261Y-71158089D01*
X157458732Y-71140455D01*
X157432448Y-71123384D01*
X157387230Y-71107650D01*
X157324900Y-71094030D01*
X157306537Y-71090996D01*
X157210618Y-71075930D01*
X157134067Y-71063338D01*
X157073928Y-71052303D01*
X157027248Y-71041912D01*
X156991071Y-71031248D01*
X156962443Y-71019397D01*
X156938410Y-71005443D01*
X156916016Y-70988473D01*
X156892306Y-70967570D01*
X156884328Y-70960241D01*
X156856355Y-70932891D01*
X156841548Y-70911221D01*
X156835756Y-70886424D01*
X156834819Y-70855175D01*
X156845133Y-70793897D01*
X156875956Y-70741832D01*
X156927113Y-70699150D01*
X156998425Y-70666017D01*
X157049308Y-70651156D01*
X157104608Y-70641558D01*
X157170855Y-70636128D01*
X157244002Y-70634559D01*
X157320005Y-70636543D01*
G36*
X157320005Y-70636543D02*
G01*
X157394820Y-70641773D01*
X157464402Y-70649942D01*
X157524706Y-70660742D01*
X157571688Y-70673865D01*
X157601302Y-70689005D01*
X157605848Y-70693461D01*
X157621654Y-70728042D01*
X157616861Y-70763543D01*
X157592344Y-70793917D01*
X157591174Y-70794788D01*
X157576754Y-70804146D01*
X157561700Y-70809068D01*
X157540703Y-70809665D01*
X157508451Y-70806053D01*
X157459635Y-70798346D01*
X157455708Y-70797697D01*
X157382969Y-70788761D01*
X157304491Y-70784353D01*
X157225781Y-70784311D01*
X157152347Y-70788471D01*
X157089697Y-70796671D01*
X157043338Y-70808749D01*
X157040292Y-70809963D01*
X157006660Y-70828807D01*
X156994844Y-70847877D01*
X157004094Y-70866631D01*
X157033661Y-70884529D01*
X157082797Y-70901029D01*
X157150751Y-70915588D01*
X157196063Y-70922598D01*
X157290252Y-70936081D01*
X157365164Y-70948406D01*
X157423991Y-70960641D01*
X157469923Y-70973853D01*
X157506153Y-70989109D01*
X157535870Y-71007477D01*
X157562266Y-71030023D01*
X157583478Y-71052163D01*
X157608643Y-71083011D01*
X157621027Y-71109537D01*
X157624900Y-71142218D01*
X157625041Y-71154187D01*
X157622132Y-71193904D01*
X157610506Y-71223451D01*
X157590385Y-71249678D01*
X157549492Y-71289768D01*
X157503891Y-71320341D01*
X157450195Y-71342395D01*
X157385016Y-71356927D01*
X157304964Y-71364933D01*
X157206651Y-71367410D01*
X157190419Y-71367369D01*
X157124859Y-71366010D01*
X157059842Y-71362922D01*
X157002456Y-71358548D01*
X156959786Y-71353332D01*
X156956336Y-71352733D01*
X156913912Y-71342683D01*
X156877928Y-71329988D01*
X156857558Y-71318382D01*
X156838601Y-71287764D01*
X156837281Y-71252110D01*
X156853623Y-71220336D01*
X156857279Y-71216743D01*
X156872393Y-71206068D01*
X156891293Y-71201468D01*
X156920546Y-71202251D01*
X156956057Y-71206319D01*
X156995738Y-71209954D01*
X157051363Y-71213020D01*
X157116302Y-71215245D01*
X157183923Y-71216356D01*
X157201708Y-71216429D01*
X157269580Y-71216156D01*
X157319254Y-71214838D01*
X157355098Y-71212019D01*
X157381484Y-71207242D01*
X157402782Y-71200049D01*
X157415582Y-71194059D01*
X157443708Y-71177425D01*
X157461640Y-71162360D01*
X157464261Y-71158089D01*
X157458732Y-71140455D01*
X157432448Y-71123384D01*
X157387230Y-71107650D01*
X157324900Y-71094030D01*
X157306537Y-71090996D01*
X157210618Y-71075930D01*
X157134067Y-71063338D01*
X157073928Y-71052303D01*
X157027248Y-71041912D01*
X156991071Y-71031248D01*
X156962443Y-71019397D01*
X156938410Y-71005443D01*
X156916016Y-70988473D01*
X156892306Y-70967570D01*
X156884328Y-70960241D01*
X156856355Y-70932891D01*
X156841548Y-70911221D01*
X156835756Y-70886424D01*
X156834819Y-70855175D01*
X156845133Y-70793897D01*
X156875956Y-70741832D01*
X156927113Y-70699150D01*
X156998425Y-70666017D01*
X157049308Y-70651156D01*
X157104608Y-70641558D01*
X157170855Y-70636128D01*
X157244002Y-70634559D01*
X157320005Y-70636543D01*
G37*
X161439962Y-65160499D02*
X161588014Y-65176707D01*
X161731452Y-65205718D01*
X161876110Y-65249045D01*
X162027824Y-65308201D01*
X162192428Y-65384700D01*
X162222071Y-65399517D01*
X162290098Y-65433031D01*
X162354256Y-65463208D01*
X162408215Y-65487166D01*
X162445640Y-65502024D01*
X162451389Y-65503895D01*
X162506486Y-65520402D01*
X162259851Y-65879201D01*
X162199552Y-65966893D01*
X162144422Y-66047012D01*
X162096336Y-66116836D01*
X162057168Y-66173647D01*
X162028794Y-66214723D01*
X162013087Y-66237346D01*
X162010536Y-66240928D01*
X162000171Y-66233438D01*
X161974660Y-66210918D01*
X161938563Y-66177461D01*
X161918642Y-66158550D01*
X161805773Y-66068778D01*
X161679014Y-66000561D01*
X161569783Y-65963195D01*
X161504214Y-65951460D01*
X161422116Y-65944308D01*
X161333144Y-65941874D01*
X161246956Y-65944288D01*
X161173205Y-65951683D01*
X161143776Y-65957347D01*
X161011133Y-66002982D01*
X160891606Y-66072663D01*
X160785283Y-66166260D01*
X160692253Y-66283649D01*
X160612605Y-66424700D01*
X160546426Y-66589286D01*
X160493806Y-66777280D01*
X160462533Y-66938217D01*
X160454374Y-67009263D01*
X160448815Y-67101046D01*
X160445802Y-67206968D01*
X160445281Y-67320434D01*
X160447200Y-67434849D01*
X160451503Y-67543617D01*
X160458137Y-67640143D01*
X160467049Y-67717831D01*
X160468979Y-67729817D01*
X160511499Y-67922892D01*
X160569433Y-68093773D01*
X160643133Y-68243224D01*
X160732951Y-68372011D01*
X160796707Y-68441639D01*
X160911286Y-68536173D01*
X161036942Y-68606246D01*
X161171557Y-68651477D01*
X161313011Y-68671484D01*
X161459183Y-68665885D01*
X161607955Y-68634300D01*
X161695911Y-68603394D01*
X161817629Y-68541506D01*
X161943080Y-68452729D01*
X162013353Y-68392694D01*
X162052811Y-68357947D01*
X162083812Y-68332454D01*
X162101458Y-68320170D01*
X162103648Y-68319795D01*
X162111524Y-68332347D01*
X162131932Y-68365516D01*
X162163132Y-68416458D01*
X162203386Y-68482331D01*
X162250957Y-68560289D01*
X162304104Y-68647490D01*
X162333687Y-68696067D01*
X162559648Y-69067215D01*
X162277527Y-69206639D01*
X162175522Y-69256719D01*
X162092889Y-69296210D01*
X162024578Y-69327073D01*
X161965537Y-69351268D01*
X161910714Y-69370758D01*
X161855060Y-69387503D01*
X161793523Y-69403465D01*
X161734540Y-69417482D01*
X161682115Y-69428329D01*
X161627288Y-69436526D01*
X161564572Y-69442528D01*
X161488477Y-69446790D01*
X161393516Y-69449767D01*
X161329513Y-69451052D01*
X161238192Y-69451930D01*
X161150627Y-69451487D01*
X161072612Y-69449852D01*
X161009942Y-69447149D01*
X160968413Y-69443505D01*
X160965952Y-69443142D01*
X160750303Y-69396487D01*
X160547793Y-69325729D01*
X160358495Y-69230914D01*
X160182479Y-69112089D01*
X160019816Y-68969300D01*
X159870578Y-68802594D01*
X159762496Y-68654433D01*
X159647434Y-68460502D01*
X159554423Y-68255699D01*
X159483013Y-68038383D01*
X159432756Y-67806912D01*
X159403201Y-67559643D01*
X159393889Y-67308559D01*
X159401548Y-67065670D01*
X159425613Y-66841570D01*
X159466852Y-66632477D01*
X159526027Y-66434613D01*
X159603904Y-66244196D01*
X159613203Y-66224468D01*
X159715648Y-66040059D01*
X159841472Y-65864576D01*
X159987112Y-65701650D01*
X160149001Y-65554914D01*
X160323576Y-65428001D01*
X160486244Y-65334905D01*
X160650573Y-65261991D01*
X160815251Y-65209174D01*
X160986652Y-65175015D01*
X161171153Y-65158078D01*
X161281459Y-65155580D01*
X161439962Y-65160499D01*
G36*
X161439962Y-65160499D02*
G01*
X161588014Y-65176707D01*
X161731452Y-65205718D01*
X161876110Y-65249045D01*
X162027824Y-65308201D01*
X162192428Y-65384700D01*
X162222071Y-65399517D01*
X162290098Y-65433031D01*
X162354256Y-65463208D01*
X162408215Y-65487166D01*
X162445640Y-65502024D01*
X162451389Y-65503895D01*
X162506486Y-65520402D01*
X162259851Y-65879201D01*
X162199552Y-65966893D01*
X162144422Y-66047012D01*
X162096336Y-66116836D01*
X162057168Y-66173647D01*
X162028794Y-66214723D01*
X162013087Y-66237346D01*
X162010536Y-66240928D01*
X162000171Y-66233438D01*
X161974660Y-66210918D01*
X161938563Y-66177461D01*
X161918642Y-66158550D01*
X161805773Y-66068778D01*
X161679014Y-66000561D01*
X161569783Y-65963195D01*
X161504214Y-65951460D01*
X161422116Y-65944308D01*
X161333144Y-65941874D01*
X161246956Y-65944288D01*
X161173205Y-65951683D01*
X161143776Y-65957347D01*
X161011133Y-66002982D01*
X160891606Y-66072663D01*
X160785283Y-66166260D01*
X160692253Y-66283649D01*
X160612605Y-66424700D01*
X160546426Y-66589286D01*
X160493806Y-66777280D01*
X160462533Y-66938217D01*
X160454374Y-67009263D01*
X160448815Y-67101046D01*
X160445802Y-67206968D01*
X160445281Y-67320434D01*
X160447200Y-67434849D01*
X160451503Y-67543617D01*
X160458137Y-67640143D01*
X160467049Y-67717831D01*
X160468979Y-67729817D01*
X160511499Y-67922892D01*
X160569433Y-68093773D01*
X160643133Y-68243224D01*
X160732951Y-68372011D01*
X160796707Y-68441639D01*
X160911286Y-68536173D01*
X161036942Y-68606246D01*
X161171557Y-68651477D01*
X161313011Y-68671484D01*
X161459183Y-68665885D01*
X161607955Y-68634300D01*
X161695911Y-68603394D01*
X161817629Y-68541506D01*
X161943080Y-68452729D01*
X162013353Y-68392694D01*
X162052811Y-68357947D01*
X162083812Y-68332454D01*
X162101458Y-68320170D01*
X162103648Y-68319795D01*
X162111524Y-68332347D01*
X162131932Y-68365516D01*
X162163132Y-68416458D01*
X162203386Y-68482331D01*
X162250957Y-68560289D01*
X162304104Y-68647490D01*
X162333687Y-68696067D01*
X162559648Y-69067215D01*
X162277527Y-69206639D01*
X162175522Y-69256719D01*
X162092889Y-69296210D01*
X162024578Y-69327073D01*
X161965537Y-69351268D01*
X161910714Y-69370758D01*
X161855060Y-69387503D01*
X161793523Y-69403465D01*
X161734540Y-69417482D01*
X161682115Y-69428329D01*
X161627288Y-69436526D01*
X161564572Y-69442528D01*
X161488477Y-69446790D01*
X161393516Y-69449767D01*
X161329513Y-69451052D01*
X161238192Y-69451930D01*
X161150627Y-69451487D01*
X161072612Y-69449852D01*
X161009942Y-69447149D01*
X160968413Y-69443505D01*
X160965952Y-69443142D01*
X160750303Y-69396487D01*
X160547793Y-69325729D01*
X160358495Y-69230914D01*
X160182479Y-69112089D01*
X160019816Y-68969300D01*
X159870578Y-68802594D01*
X159762496Y-68654433D01*
X159647434Y-68460502D01*
X159554423Y-68255699D01*
X159483013Y-68038383D01*
X159432756Y-67806912D01*
X159403201Y-67559643D01*
X159393889Y-67308559D01*
X159401548Y-67065670D01*
X159425613Y-66841570D01*
X159466852Y-66632477D01*
X159526027Y-66434613D01*
X159603904Y-66244196D01*
X159613203Y-66224468D01*
X159715648Y-66040059D01*
X159841472Y-65864576D01*
X159987112Y-65701650D01*
X160149001Y-65554914D01*
X160323576Y-65428001D01*
X160486244Y-65334905D01*
X160650573Y-65261991D01*
X160815251Y-65209174D01*
X160986652Y-65175015D01*
X161171153Y-65158078D01*
X161281459Y-65155580D01*
X161439962Y-65160499D01*
G37*
X167842270Y-64956825D02*
X167959041Y-64957304D01*
X167998729Y-64957545D01*
X168544486Y-64961135D01*
X168551351Y-67054919D01*
X168552258Y-67338842D01*
X168553062Y-67596640D01*
X168553815Y-67829646D01*
X168554569Y-68039194D01*
X168555375Y-68226618D01*
X168556285Y-68393250D01*
X168557351Y-68540425D01*
X168558624Y-68669477D01*
X168560156Y-68781739D01*
X168561998Y-68878544D01*
X168564203Y-68961226D01*
X168566822Y-69031119D01*
X168569906Y-69089557D01*
X168573508Y-69137872D01*
X168577678Y-69177400D01*
X168582469Y-69209473D01*
X168587931Y-69235424D01*
X168594118Y-69256589D01*
X168601080Y-69274299D01*
X168608869Y-69289889D01*
X168617537Y-69304693D01*
X168627135Y-69320044D01*
X168637715Y-69337276D01*
X168639884Y-69340946D01*
X168676268Y-69403031D01*
X168150431Y-69399434D01*
X167624594Y-69395838D01*
X167617729Y-69280331D01*
X167613992Y-69224899D01*
X167610097Y-69192851D01*
X167604811Y-69180135D01*
X167596903Y-69182696D01*
X167590270Y-69190024D01*
X167561374Y-69216714D01*
X167514279Y-69251021D01*
X167455620Y-69288846D01*
X167392031Y-69326090D01*
X167330149Y-69358653D01*
X167282634Y-69380077D01*
X167171316Y-69415283D01*
X167043596Y-69440222D01*
X166908901Y-69453941D01*
X166776663Y-69455486D01*
X166656308Y-69443906D01*
X166654326Y-69443574D01*
X166489641Y-69402250D01*
X166335479Y-69336412D01*
X166193328Y-69247474D01*
X166064675Y-69136852D01*
X165951007Y-69005961D01*
X165853810Y-68856216D01*
X165774572Y-68689033D01*
X165731430Y-68565190D01*
X165702979Y-68461581D01*
X165681880Y-68361252D01*
X165667488Y-68258109D01*
X165659158Y-68146057D01*
X165656245Y-68019001D01*
X165657535Y-67915252D01*
X166670650Y-67915252D01*
X166675444Y-68089222D01*
X166690568Y-68238895D01*
X166716485Y-68365597D01*
X166753663Y-68470658D01*
X166802565Y-68555406D01*
X166863658Y-68621169D01*
X166934177Y-68667659D01*
X166970871Y-68685014D01*
X167002696Y-68695419D01*
X167038177Y-68700179D01*
X167085841Y-68700601D01*
X167137189Y-68698748D01*
X167238169Y-68689841D01*
X167318035Y-68672398D01*
X167343135Y-68663661D01*
X167400448Y-68637857D01*
X167460897Y-68605453D01*
X167487297Y-68589233D01*
X167555946Y-68544205D01*
X167555946Y-67116982D01*
X167480432Y-67071718D01*
X167375121Y-67020572D01*
X167267525Y-66990324D01*
X167161581Y-66980795D01*
X167061224Y-66991807D01*
X166970387Y-67023181D01*
X166893007Y-67074740D01*
X166868039Y-67099488D01*
X166807856Y-67180577D01*
X166759145Y-67278734D01*
X166721499Y-67395643D01*
X166694512Y-67532985D01*
X166677775Y-67692444D01*
X166670883Y-67875700D01*
X166670650Y-67915252D01*
X165657535Y-67915252D01*
X165658073Y-67872067D01*
X165669647Y-67646053D01*
X165692920Y-67442192D01*
X165728504Y-67257513D01*
X165777013Y-67089048D01*
X165839060Y-66933826D01*
X165861201Y-66887808D01*
X165950385Y-66737739D01*
X166058159Y-66604377D01*
X166181990Y-66489877D01*
X166319342Y-66396389D01*
X166467683Y-66326068D01*
X166556604Y-66297060D01*
X166643933Y-66279840D01*
X166749011Y-66269594D01*
X166863029Y-66266318D01*
X166977177Y-66270009D01*
X167082648Y-66280660D01*
X167167334Y-66297370D01*
X167268128Y-66330140D01*
X167365822Y-66372279D01*
X167451296Y-66419519D01*
X167496789Y-66451581D01*
X167528169Y-66475422D01*
X167550142Y-66489939D01*
X167555141Y-66492000D01*
X167556690Y-66478718D01*
X167558135Y-66440663D01*
X167559443Y-66380519D01*
X167560583Y-66300973D01*
X167561521Y-66204711D01*
X167562226Y-66094419D01*
X167562667Y-65972781D01*
X167562811Y-65848885D01*
X167562730Y-65690196D01*
X167562335Y-65556408D01*
X167561395Y-65444960D01*
X167559680Y-65353295D01*
X167556957Y-65278853D01*
X167552997Y-65219075D01*
X167547569Y-65171402D01*
X167540441Y-65133274D01*
X167531384Y-65102134D01*
X167520167Y-65075421D01*
X167506558Y-65050577D01*
X167490328Y-65025043D01*
X167488240Y-65021881D01*
X167467306Y-64988810D01*
X167454667Y-64966069D01*
X167452973Y-64961272D01*
X167466216Y-64959759D01*
X167504002Y-64958528D01*
X167563416Y-64957599D01*
X167641542Y-64956992D01*
X167735465Y-64956727D01*
X167842270Y-64956825D01*
G36*
X167842270Y-64956825D02*
G01*
X167959041Y-64957304D01*
X167998729Y-64957545D01*
X168544486Y-64961135D01*
X168551351Y-67054919D01*
X168552258Y-67338842D01*
X168553062Y-67596640D01*
X168553815Y-67829646D01*
X168554569Y-68039194D01*
X168555375Y-68226618D01*
X168556285Y-68393250D01*
X168557351Y-68540425D01*
X168558624Y-68669477D01*
X168560156Y-68781739D01*
X168561998Y-68878544D01*
X168564203Y-68961226D01*
X168566822Y-69031119D01*
X168569906Y-69089557D01*
X168573508Y-69137872D01*
X168577678Y-69177400D01*
X168582469Y-69209473D01*
X168587931Y-69235424D01*
X168594118Y-69256589D01*
X168601080Y-69274299D01*
X168608869Y-69289889D01*
X168617537Y-69304693D01*
X168627135Y-69320044D01*
X168637715Y-69337276D01*
X168639884Y-69340946D01*
X168676268Y-69403031D01*
X168150431Y-69399434D01*
X167624594Y-69395838D01*
X167617729Y-69280331D01*
X167613992Y-69224899D01*
X167610097Y-69192851D01*
X167604811Y-69180135D01*
X167596903Y-69182696D01*
X167590270Y-69190024D01*
X167561374Y-69216714D01*
X167514279Y-69251021D01*
X167455620Y-69288846D01*
X167392031Y-69326090D01*
X167330149Y-69358653D01*
X167282634Y-69380077D01*
X167171316Y-69415283D01*
X167043596Y-69440222D01*
X166908901Y-69453941D01*
X166776663Y-69455486D01*
X166656308Y-69443906D01*
X166654326Y-69443574D01*
X166489641Y-69402250D01*
X166335479Y-69336412D01*
X166193328Y-69247474D01*
X166064675Y-69136852D01*
X165951007Y-69005961D01*
X165853810Y-68856216D01*
X165774572Y-68689033D01*
X165731430Y-68565190D01*
X165702979Y-68461581D01*
X165681880Y-68361252D01*
X165667488Y-68258109D01*
X165659158Y-68146057D01*
X165656245Y-68019001D01*
X165657535Y-67915252D01*
X166670650Y-67915252D01*
X166675444Y-68089222D01*
X166690568Y-68238895D01*
X166716485Y-68365597D01*
X166753663Y-68470658D01*
X166802565Y-68555406D01*
X166863658Y-68621169D01*
X166934177Y-68667659D01*
X166970871Y-68685014D01*
X167002696Y-68695419D01*
X167038177Y-68700179D01*
X167085841Y-68700601D01*
X167137189Y-68698748D01*
X167238169Y-68689841D01*
X167318035Y-68672398D01*
X167343135Y-68663661D01*
X167400448Y-68637857D01*
X167460897Y-68605453D01*
X167487297Y-68589233D01*
X167555946Y-68544205D01*
X167555946Y-67116982D01*
X167480432Y-67071718D01*
X167375121Y-67020572D01*
X167267525Y-66990324D01*
X167161581Y-66980795D01*
X167061224Y-66991807D01*
X166970387Y-67023181D01*
X166893007Y-67074740D01*
X166868039Y-67099488D01*
X166807856Y-67180577D01*
X166759145Y-67278734D01*
X166721499Y-67395643D01*
X166694512Y-67532985D01*
X166677775Y-67692444D01*
X166670883Y-67875700D01*
X166670650Y-67915252D01*
X165657535Y-67915252D01*
X165658073Y-67872067D01*
X165669647Y-67646053D01*
X165692920Y-67442192D01*
X165728504Y-67257513D01*
X165777013Y-67089048D01*
X165839060Y-66933826D01*
X165861201Y-66887808D01*
X165950385Y-66737739D01*
X166058159Y-66604377D01*
X166181990Y-66489877D01*
X166319342Y-66396389D01*
X166467683Y-66326068D01*
X166556604Y-66297060D01*
X166643933Y-66279840D01*
X166749011Y-66269594D01*
X166863029Y-66266318D01*
X166977177Y-66270009D01*
X167082648Y-66280660D01*
X167167334Y-66297370D01*
X167268128Y-66330140D01*
X167365822Y-66372279D01*
X167451296Y-66419519D01*
X167496789Y-66451581D01*
X167528169Y-66475422D01*
X167550142Y-66489939D01*
X167555141Y-66492000D01*
X167556690Y-66478718D01*
X167558135Y-66440663D01*
X167559443Y-66380519D01*
X167560583Y-66300973D01*
X167561521Y-66204711D01*
X167562226Y-66094419D01*
X167562667Y-65972781D01*
X167562811Y-65848885D01*
X167562730Y-65690196D01*
X167562335Y-65556408D01*
X167561395Y-65444960D01*
X167559680Y-65353295D01*
X167556957Y-65278853D01*
X167552997Y-65219075D01*
X167547569Y-65171402D01*
X167540441Y-65133274D01*
X167531384Y-65102134D01*
X167520167Y-65075421D01*
X167506558Y-65050577D01*
X167490328Y-65025043D01*
X167488240Y-65021881D01*
X167467306Y-64988810D01*
X167454667Y-64966069D01*
X167452973Y-64961272D01*
X167466216Y-64959759D01*
X167504002Y-64958528D01*
X167563416Y-64957599D01*
X167641542Y-64956992D01*
X167735465Y-64956727D01*
X167842270Y-64956825D01*
G37*
X164167505Y-66264229D02*
X164235531Y-66269378D01*
X164430163Y-66295273D01*
X164602529Y-66336575D01*
X164753470Y-66393853D01*
X164883825Y-66467674D01*
X164994434Y-66558608D01*
X165086135Y-66667222D01*
X165159770Y-66794085D01*
X165213539Y-66931352D01*
X165227187Y-66975137D01*
X165239073Y-67016141D01*
X165249334Y-67056569D01*
X165258113Y-67098630D01*
X165265548Y-67144531D01*
X165271780Y-67196480D01*
X165276950Y-67256685D01*
X165281196Y-67327352D01*
X165284660Y-67410689D01*
X165287481Y-67508905D01*
X165289800Y-67624205D01*
X165291757Y-67758799D01*
X165293491Y-67914893D01*
X165295143Y-68094695D01*
X165296324Y-68235676D01*
X165304270Y-69203622D01*
X165355756Y-69296770D01*
X165380137Y-69341645D01*
X165398280Y-69376501D01*
X165406935Y-69395054D01*
X165407243Y-69396311D01*
X165394014Y-69397749D01*
X165356326Y-69399074D01*
X165297183Y-69400249D01*
X165219586Y-69401237D01*
X165126536Y-69401999D01*
X165021035Y-69402500D01*
X164906084Y-69402701D01*
X164892378Y-69402703D01*
X164377513Y-69402703D01*
X164377513Y-69286000D01*
X164376635Y-69233260D01*
X164374292Y-69192926D01*
X164370921Y-69171300D01*
X164369431Y-69169298D01*
X164355804Y-69177683D01*
X164327757Y-69199692D01*
X164291303Y-69230601D01*
X164290485Y-69231316D01*
X164223962Y-69280843D01*
X164139948Y-69330575D01*
X164047937Y-69375626D01*
X163957421Y-69411110D01*
X163917567Y-69423236D01*
X163838255Y-69438637D01*
X163740935Y-69448465D01*
X163634516Y-69452580D01*
X163527907Y-69450841D01*
X163430017Y-69443108D01*
X163361513Y-69431981D01*
X163193520Y-69382648D01*
X163042281Y-69312342D01*
X162908782Y-69221933D01*
X162794006Y-69112295D01*
X162698937Y-68984299D01*
X162624560Y-68838818D01*
X162592474Y-68750541D01*
X162572365Y-68664739D01*
X162559038Y-68561736D01*
X162552872Y-68451034D01*
X162553074Y-68434925D01*
X163481648Y-68434925D01*
X163489348Y-68517184D01*
X163514989Y-68585546D01*
X163562378Y-68648970D01*
X163580579Y-68667567D01*
X163645282Y-68717846D01*
X163720066Y-68750056D01*
X163809662Y-68765648D01*
X163904012Y-68766796D01*
X163993501Y-68759216D01*
X164062018Y-68744389D01*
X164091775Y-68733253D01*
X164145408Y-68702904D01*
X164202235Y-68660221D01*
X164254082Y-68612317D01*
X164292778Y-68566301D01*
X164303054Y-68549421D01*
X164311042Y-68525782D01*
X164316721Y-68488168D01*
X164320356Y-68432985D01*
X164322211Y-68356640D01*
X164322594Y-68283981D01*
X164322335Y-68199270D01*
X164321287Y-68138018D01*
X164319045Y-68096227D01*
X164315206Y-68069899D01*
X164309365Y-68055035D01*
X164301118Y-68047639D01*
X164298567Y-68046461D01*
X164276400Y-68042833D01*
X164232680Y-68039866D01*
X164173311Y-68037827D01*
X164104196Y-68036983D01*
X164089189Y-68036982D01*
X163996805Y-68038457D01*
X163925432Y-68042842D01*
X163868719Y-68050738D01*
X163821872Y-68062270D01*
X163705669Y-68106215D01*
X163614543Y-68160243D01*
X163547705Y-68225219D01*
X163504365Y-68302005D01*
X163483734Y-68391467D01*
X163481648Y-68434925D01*
X162553074Y-68434925D01*
X162554244Y-68342133D01*
X162563532Y-68244536D01*
X162570777Y-68205105D01*
X162617039Y-68058701D01*
X162687384Y-67923995D01*
X162780484Y-67802280D01*
X162895012Y-67694847D01*
X163029640Y-67602988D01*
X163183040Y-67527996D01*
X163313459Y-67482458D01*
X163400623Y-67458533D01*
X163483996Y-67439943D01*
X163568976Y-67426084D01*
X163660965Y-67416351D01*
X163765362Y-67410141D01*
X163887568Y-67406851D01*
X163998055Y-67405924D01*
X164325677Y-67405027D01*
X164319401Y-67306547D01*
X164301579Y-67199695D01*
X164263667Y-67107852D01*
X164207280Y-67033310D01*
X164134031Y-66978364D01*
X164069535Y-66951552D01*
X163977123Y-66934654D01*
X163867111Y-66932227D01*
X163744656Y-66943378D01*
X163614914Y-66967210D01*
X163483042Y-67002830D01*
X163354198Y-67049343D01*
X163260566Y-67091883D01*
X163215517Y-67113728D01*
X163181156Y-67128984D01*
X163163681Y-67134937D01*
X163162733Y-67134746D01*
X163156703Y-67121412D01*
X163141645Y-67086068D01*
X163118977Y-67032101D01*
X163090115Y-66962896D01*
X163056477Y-66881840D01*
X163022284Y-66799118D01*
X162885586Y-66467803D01*
X162982820Y-66451833D01*
X163024964Y-66443820D01*
X163088319Y-66430361D01*
X163167457Y-66412679D01*
X163256951Y-66391996D01*
X163351373Y-66369532D01*
X163388973Y-66360403D01*
X163551637Y-66322674D01*
X163694050Y-66294388D01*
X163821527Y-66274972D01*
X163939384Y-66263854D01*
X164052938Y-66260464D01*
X164167505Y-66264229D01*
G36*
X164167505Y-66264229D02*
G01*
X164235531Y-66269378D01*
X164430163Y-66295273D01*
X164602529Y-66336575D01*
X164753470Y-66393853D01*
X164883825Y-66467674D01*
X164994434Y-66558608D01*
X165086135Y-66667222D01*
X165159770Y-66794085D01*
X165213539Y-66931352D01*
X165227187Y-66975137D01*
X165239073Y-67016141D01*
X165249334Y-67056569D01*
X165258113Y-67098630D01*
X165265548Y-67144531D01*
X165271780Y-67196480D01*
X165276950Y-67256685D01*
X165281196Y-67327352D01*
X165284660Y-67410689D01*
X165287481Y-67508905D01*
X165289800Y-67624205D01*
X165291757Y-67758799D01*
X165293491Y-67914893D01*
X165295143Y-68094695D01*
X165296324Y-68235676D01*
X165304270Y-69203622D01*
X165355756Y-69296770D01*
X165380137Y-69341645D01*
X165398280Y-69376501D01*
X165406935Y-69395054D01*
X165407243Y-69396311D01*
X165394014Y-69397749D01*
X165356326Y-69399074D01*
X165297183Y-69400249D01*
X165219586Y-69401237D01*
X165126536Y-69401999D01*
X165021035Y-69402500D01*
X164906084Y-69402701D01*
X164892378Y-69402703D01*
X164377513Y-69402703D01*
X164377513Y-69286000D01*
X164376635Y-69233260D01*
X164374292Y-69192926D01*
X164370921Y-69171300D01*
X164369431Y-69169298D01*
X164355804Y-69177683D01*
X164327757Y-69199692D01*
X164291303Y-69230601D01*
X164290485Y-69231316D01*
X164223962Y-69280843D01*
X164139948Y-69330575D01*
X164047937Y-69375626D01*
X163957421Y-69411110D01*
X163917567Y-69423236D01*
X163838255Y-69438637D01*
X163740935Y-69448465D01*
X163634516Y-69452580D01*
X163527907Y-69450841D01*
X163430017Y-69443108D01*
X163361513Y-69431981D01*
X163193520Y-69382648D01*
X163042281Y-69312342D01*
X162908782Y-69221933D01*
X162794006Y-69112295D01*
X162698937Y-68984299D01*
X162624560Y-68838818D01*
X162592474Y-68750541D01*
X162572365Y-68664739D01*
X162559038Y-68561736D01*
X162552872Y-68451034D01*
X162553074Y-68434925D01*
X163481648Y-68434925D01*
X163489348Y-68517184D01*
X163514989Y-68585546D01*
X163562378Y-68648970D01*
X163580579Y-68667567D01*
X163645282Y-68717846D01*
X163720066Y-68750056D01*
X163809662Y-68765648D01*
X163904012Y-68766796D01*
X163993501Y-68759216D01*
X164062018Y-68744389D01*
X164091775Y-68733253D01*
X164145408Y-68702904D01*
X164202235Y-68660221D01*
X164254082Y-68612317D01*
X164292778Y-68566301D01*
X164303054Y-68549421D01*
X164311042Y-68525782D01*
X164316721Y-68488168D01*
X164320356Y-68432985D01*
X164322211Y-68356640D01*
X164322594Y-68283981D01*
X164322335Y-68199270D01*
X164321287Y-68138018D01*
X164319045Y-68096227D01*
X164315206Y-68069899D01*
X164309365Y-68055035D01*
X164301118Y-68047639D01*
X164298567Y-68046461D01*
X164276400Y-68042833D01*
X164232680Y-68039866D01*
X164173311Y-68037827D01*
X164104196Y-68036983D01*
X164089189Y-68036982D01*
X163996805Y-68038457D01*
X163925432Y-68042842D01*
X163868719Y-68050738D01*
X163821872Y-68062270D01*
X163705669Y-68106215D01*
X163614543Y-68160243D01*
X163547705Y-68225219D01*
X163504365Y-68302005D01*
X163483734Y-68391467D01*
X163481648Y-68434925D01*
X162553074Y-68434925D01*
X162554244Y-68342133D01*
X162563532Y-68244536D01*
X162570777Y-68205105D01*
X162617039Y-68058701D01*
X162687384Y-67923995D01*
X162780484Y-67802280D01*
X162895012Y-67694847D01*
X163029640Y-67602988D01*
X163183040Y-67527996D01*
X163313459Y-67482458D01*
X163400623Y-67458533D01*
X163483996Y-67439943D01*
X163568976Y-67426084D01*
X163660965Y-67416351D01*
X163765362Y-67410141D01*
X163887568Y-67406851D01*
X163998055Y-67405924D01*
X164325677Y-67405027D01*
X164319401Y-67306547D01*
X164301579Y-67199695D01*
X164263667Y-67107852D01*
X164207280Y-67033310D01*
X164134031Y-66978364D01*
X164069535Y-66951552D01*
X163977123Y-66934654D01*
X163867111Y-66932227D01*
X163744656Y-66943378D01*
X163614914Y-66967210D01*
X163483042Y-67002830D01*
X163354198Y-67049343D01*
X163260566Y-67091883D01*
X163215517Y-67113728D01*
X163181156Y-67128984D01*
X163163681Y-67134937D01*
X163162733Y-67134746D01*
X163156703Y-67121412D01*
X163141645Y-67086068D01*
X163118977Y-67032101D01*
X163090115Y-66962896D01*
X163056477Y-66881840D01*
X163022284Y-66799118D01*
X162885586Y-66467803D01*
X162982820Y-66451833D01*
X163024964Y-66443820D01*
X163088319Y-66430361D01*
X163167457Y-66412679D01*
X163256951Y-66391996D01*
X163351373Y-66369532D01*
X163388973Y-66360403D01*
X163551637Y-66322674D01*
X163694050Y-66294388D01*
X163821527Y-66274972D01*
X163939384Y-66263854D01*
X164052938Y-66260464D01*
X164167505Y-66264229D01*
G37*
X155044257Y-64473689D02*
X155308780Y-64473725D01*
X155431912Y-64473730D01*
X157402811Y-64473730D01*
X157402811Y-64589910D01*
X157415211Y-64731291D01*
X157452636Y-64861684D01*
X157515423Y-64981862D01*
X157603906Y-65092602D01*
X157633843Y-65122511D01*
X157741534Y-65207348D01*
X157860275Y-65269221D01*
X157986540Y-65308159D01*
X158116803Y-65324190D01*
X158247535Y-65317342D01*
X158375212Y-65287643D01*
X158496305Y-65235120D01*
X158607288Y-65159803D01*
X158657132Y-65114363D01*
X158750017Y-65002952D01*
X158818127Y-64880435D01*
X158860871Y-64748215D01*
X158877653Y-64607692D01*
X158877876Y-64593867D01*
X158878756Y-64473734D01*
X158931557Y-64473732D01*
X158978396Y-64480089D01*
X159021183Y-64495556D01*
X159024011Y-64497154D01*
X159033675Y-64502168D01*
X159042549Y-64506073D01*
X159050665Y-64510007D01*
X159058057Y-64515106D01*
X159064755Y-64522508D01*
X159070792Y-64533351D01*
X159076199Y-64548772D01*
X159081010Y-64569909D01*
X159085255Y-64597899D01*
X159088968Y-64633879D01*
X159092179Y-64678987D01*
X159094922Y-64734360D01*
X159097228Y-64801137D01*
X159099129Y-64880453D01*
X159100658Y-64973447D01*
X159101846Y-65081257D01*
X159102726Y-65205019D01*
X159103330Y-65345871D01*
X159103689Y-65504950D01*
X159103835Y-65683395D01*
X159103802Y-65882342D01*
X159103620Y-66102929D01*
X159103323Y-66346293D01*
X159102941Y-66613572D01*
X159102508Y-66905903D01*
X159102055Y-67224424D01*
X159102002Y-67263230D01*
X159101596Y-67583782D01*
X159101251Y-67878012D01*
X159100931Y-68147056D01*
X159100600Y-68392052D01*
X159100221Y-68614137D01*
X159099757Y-68814447D01*
X159099172Y-68994119D01*
X159098430Y-69154290D01*
X159097494Y-69296098D01*
X159096327Y-69420679D01*
X159094893Y-69529170D01*
X159093156Y-69622707D01*
X159091078Y-69702429D01*
X159088624Y-69769472D01*
X159085756Y-69824973D01*
X159082439Y-69870068D01*
X159078636Y-69905895D01*
X159074310Y-69933591D01*
X159069425Y-69954293D01*
X159063945Y-69969137D01*
X159057832Y-69979260D01*
X159051050Y-69985800D01*
X159043563Y-69989893D01*
X159035334Y-69992676D01*
X159026327Y-69995287D01*
X159016505Y-69998862D01*
X159014106Y-69999950D01*
X159006565Y-70002396D01*
X158993944Y-70004642D01*
X158975141Y-70006698D01*
X158949053Y-70008572D01*
X158914578Y-70010271D01*
X158870615Y-70011803D01*
X158816061Y-70013177D01*
X158749815Y-70014400D01*
X158670774Y-70015481D01*
X158577837Y-70016427D01*
X158469901Y-70017247D01*
X158345864Y-70017947D01*
X158204624Y-70018538D01*
X158045079Y-70019025D01*
X157866128Y-70019419D01*
X157666668Y-70019725D01*
X157445596Y-70019953D01*
X157201812Y-70020110D01*
X156934213Y-70020205D01*
X156641697Y-70020245D01*
X156323161Y-70020238D01*
X156219979Y-70020228D01*
X155894377Y-70020176D01*
X155595119Y-70020091D01*
X155321091Y-70019963D01*
X155071176Y-70019785D01*
X154844260Y-70019548D01*
X154639227Y-70019242D01*
X154454962Y-70018860D01*
X154290350Y-70018392D01*
X154144275Y-70017830D01*
X154015624Y-70017165D01*
X153903279Y-70016388D01*
X153806126Y-70015491D01*
X153723050Y-70014465D01*
X153652936Y-70013301D01*
X153594668Y-70011991D01*
X153547131Y-70010525D01*
X153509210Y-70008896D01*
X153479790Y-70007093D01*
X153457755Y-70005110D01*
X153441990Y-70002936D01*
X153431380Y-70000563D01*
X153425596Y-69998391D01*
X153415316Y-69994056D01*
X153405878Y-69990859D01*
X153397245Y-69987665D01*
X153389381Y-69983338D01*
X153382252Y-69976744D01*
X153375821Y-69966747D01*
X153370053Y-69952212D01*
X153364911Y-69932003D01*
X153360360Y-69904985D01*
X153356365Y-69870023D01*
X153352889Y-69825981D01*
X153349898Y-69771724D01*
X153347354Y-69706117D01*
X153345223Y-69628024D01*
X153343468Y-69536310D01*
X153342055Y-69429840D01*
X153341685Y-69388973D01*
X153708116Y-69388973D01*
X155003266Y-69388973D01*
X154978345Y-69351217D01*
X154953553Y-69312417D01*
X154932560Y-69275469D01*
X154915065Y-69237788D01*
X154900770Y-69196788D01*
X154889377Y-69149883D01*
X154880587Y-69094487D01*
X154874102Y-69028016D01*
X154869623Y-68947883D01*
X154866850Y-68851502D01*
X154865487Y-68736289D01*
X154865233Y-68599657D01*
X154865791Y-68439020D01*
X154866107Y-68379382D01*
X154869675Y-67740041D01*
X155274702Y-68291449D01*
X155389446Y-68447876D01*
X155488857Y-68584088D01*
X155574010Y-68701890D01*
X155645978Y-68803084D01*
X155705834Y-68889477D01*
X155754652Y-68962874D01*
X155793505Y-69025077D01*
X155823466Y-69077893D01*
X155845609Y-69123125D01*
X155861007Y-69162578D01*
X155870734Y-69198058D01*
X155875863Y-69231368D01*
X155877468Y-69264313D01*
X155876621Y-69298697D01*
X155876405Y-69303019D01*
X155871946Y-69389031D01*
X157291308Y-69388973D01*
X157540627Y-69388973D01*
X158146604Y-69388973D01*
X158291266Y-69388931D01*
X158410756Y-69388741D01*
X158507358Y-69388308D01*
X158583358Y-69387536D01*
X158641043Y-69386330D01*
X158682699Y-69384594D01*
X158710611Y-69382232D01*
X158727065Y-69379150D01*
X158734348Y-69375251D01*
X158734745Y-69370440D01*
X158730542Y-69364622D01*
X158730499Y-69364574D01*
X158713187Y-69339532D01*
X158690264Y-69298815D01*
X158670019Y-69258168D01*
X158631621Y-69176162D01*
X158623789Y-66327244D01*
X157540627Y-66327244D01*
X157591854Y-66419919D01*
X157643081Y-66512595D01*
X157643081Y-69203622D01*
X157591854Y-69296298D01*
X157540627Y-69388973D01*
X157291308Y-69388973D01*
X157185735Y-69282522D01*
X157157087Y-69253406D01*
X157129910Y-69225076D01*
X157103011Y-69195968D01*
X157075197Y-69164520D01*
X157045275Y-69129169D01*
X157012054Y-69088354D01*
X156974339Y-69040511D01*
X156930940Y-68984079D01*
X156880662Y-68917494D01*
X156822312Y-68839195D01*
X156754700Y-68747619D01*
X156676631Y-68641204D01*
X156586912Y-68518387D01*
X156484352Y-68377605D01*
X156367758Y-68217297D01*
X156272191Y-68085798D01*
X156152251Y-67920596D01*
X156047620Y-67776152D01*
X155957352Y-67651094D01*
X155880497Y-67544052D01*
X155816109Y-67453654D01*
X155763239Y-67378529D01*
X155720940Y-67317304D01*
X155688264Y-67268610D01*
X155664262Y-67231074D01*
X155647987Y-67203325D01*
X155638492Y-67183992D01*
X155634827Y-67171703D01*
X155635929Y-67165242D01*
X155649276Y-67148048D01*
X155678134Y-67111655D01*
X155720760Y-67058224D01*
X155775415Y-66989919D01*
X155840356Y-66908903D01*
X155913842Y-66817340D01*
X155994132Y-66717392D01*
X156079485Y-66611224D01*
X156168160Y-66500997D01*
X156258414Y-66388876D01*
X156308056Y-66327244D01*
X156348507Y-66277024D01*
X156436698Y-66167604D01*
X156521246Y-66062778D01*
X156600408Y-65964711D01*
X156672444Y-65875566D01*
X156735613Y-65797505D01*
X156788173Y-65732692D01*
X156828383Y-65683290D01*
X156852000Y-65654487D01*
X156943710Y-65546778D01*
X157031940Y-65449580D01*
X157113597Y-65366076D01*
X157185590Y-65299448D01*
X157236681Y-65258599D01*
X157297093Y-65215135D01*
X155907702Y-65215135D01*
X155908092Y-65296666D01*
X155904209Y-65356606D01*
X155889610Y-65412177D01*
X155867012Y-65464855D01*
X155852322Y-65494615D01*
X155836528Y-65524103D01*
X155818186Y-65555276D01*
X155795855Y-65590093D01*
X155768091Y-65630510D01*
X155733451Y-65678486D01*
X155690493Y-65735978D01*
X155637773Y-65804943D01*
X155573849Y-65887339D01*
X155497279Y-65985124D01*
X155406619Y-66100255D01*
X155300426Y-66234690D01*
X155288432Y-66249859D01*
X154869675Y-66779412D01*
X154865622Y-66192922D01*
X154864805Y-66017251D01*
X154864979Y-65868532D01*
X154866151Y-65746275D01*
X154868331Y-65649989D01*
X154871526Y-65579183D01*
X154875744Y-65533369D01*
X154877162Y-65524679D01*
X154899409Y-65433135D01*
X154928557Y-65350608D01*
X154961818Y-65284253D01*
X154981800Y-65256110D01*
X155016278Y-65215135D01*
X154362086Y-65215135D01*
X154206031Y-65215269D01*
X154075533Y-65215703D01*
X153968690Y-65216489D01*
X153883602Y-65217676D01*
X153818365Y-65219317D01*
X153771079Y-65221461D01*
X153739843Y-65224159D01*
X153722754Y-65227462D01*
X153717912Y-65231421D01*
X153718247Y-65232298D01*
X153732115Y-65253231D01*
X153755268Y-65286412D01*
X153767246Y-65303193D01*
X153779631Y-65319940D01*
X153790763Y-65334915D01*
X153800712Y-65349594D01*
X153809549Y-65365449D01*
X153817343Y-65383955D01*
X153824165Y-65406585D01*
X153830084Y-65434813D01*
X153835171Y-65470113D01*
X153839496Y-65513958D01*
X153843129Y-65567822D01*
X153846140Y-65633180D01*
X153848599Y-65711504D01*
X153850577Y-65804268D01*
X153852142Y-65912947D01*
X153853366Y-66039013D01*
X153854319Y-66183942D01*
X153855070Y-66349206D01*
X153855689Y-66536279D01*
X153856248Y-66746635D01*
X153856815Y-66981748D01*
X153857345Y-67197741D01*
X153857845Y-67438535D01*
X153858105Y-67668274D01*
X153858132Y-67885493D01*
X153857933Y-68088722D01*
X153857514Y-68276496D01*
X153856882Y-68447345D01*
X153856044Y-68599803D01*
X153855008Y-68732403D01*
X153853780Y-68843676D01*
X153852367Y-68932156D01*
X153850775Y-68996375D01*
X153849013Y-69034865D01*
X153848679Y-69038933D01*
X153836534Y-69132248D01*
X153817573Y-69207190D01*
X153788698Y-69272594D01*
X153746810Y-69337293D01*
X153741571Y-69344352D01*
X153708116Y-69388973D01*
X153341685Y-69388973D01*
X153340946Y-69307479D01*
X153340107Y-69168090D01*
X153339502Y-69010539D01*
X153339095Y-68833691D01*
X153338850Y-68636410D01*
X153338733Y-68417560D01*
X153338705Y-68176007D01*
X153338733Y-67910615D01*
X153338780Y-67620249D01*
X153338810Y-67303773D01*
X153338811Y-67240946D01*
X153338828Y-66921137D01*
X153338888Y-66627661D01*
X153338998Y-66359390D01*
X153339167Y-66115198D01*
X153339403Y-65893957D01*
X153339716Y-65694540D01*
X153340115Y-65515820D01*
X153340607Y-65356671D01*
X153341203Y-65215966D01*
X153341910Y-65092576D01*
X153342737Y-64985376D01*
X153343693Y-64893238D01*
X153344787Y-64815035D01*
X153346027Y-64749641D01*
X153347422Y-64695928D01*
X153348982Y-64652769D01*
X153350714Y-64619037D01*
X153352628Y-64593605D01*
X153354732Y-64575347D01*
X153357034Y-64563134D01*
X153359545Y-64555841D01*
X153359637Y-64555659D01*
X153364808Y-64544518D01*
X153369115Y-64534431D01*
X153373879Y-64525346D01*
X153380422Y-64517212D01*
X153390065Y-64509976D01*
X153404129Y-64503586D01*
X153423937Y-64497989D01*
X153450809Y-64493133D01*
X153486067Y-64488966D01*
X153531032Y-64485436D01*
X153587026Y-64482491D01*
X153655371Y-64480077D01*
X153737386Y-64478144D01*
X153834395Y-64476638D01*
X153947718Y-64475508D01*
X154078677Y-64474702D01*
X154228593Y-64474166D01*
X154398787Y-64473849D01*
X154590582Y-64473699D01*
X154805298Y-64473663D01*
X155044257Y-64473689D01*
G36*
X155044257Y-64473689D02*
G01*
X155308780Y-64473725D01*
X155431912Y-64473730D01*
X157402811Y-64473730D01*
X157402811Y-64589910D01*
X157415211Y-64731291D01*
X157452636Y-64861684D01*
X157515423Y-64981862D01*
X157603906Y-65092602D01*
X157633843Y-65122511D01*
X157741534Y-65207348D01*
X157860275Y-65269221D01*
X157986540Y-65308159D01*
X158116803Y-65324190D01*
X158247535Y-65317342D01*
X158375212Y-65287643D01*
X158496305Y-65235120D01*
X158607288Y-65159803D01*
X158657132Y-65114363D01*
X158750017Y-65002952D01*
X158818127Y-64880435D01*
X158860871Y-64748215D01*
X158877653Y-64607692D01*
X158877876Y-64593867D01*
X158878756Y-64473734D01*
X158931557Y-64473732D01*
X158978396Y-64480089D01*
X159021183Y-64495556D01*
X159024011Y-64497154D01*
X159033675Y-64502168D01*
X159042549Y-64506073D01*
X159050665Y-64510007D01*
X159058057Y-64515106D01*
X159064755Y-64522508D01*
X159070792Y-64533351D01*
X159076199Y-64548772D01*
X159081010Y-64569909D01*
X159085255Y-64597899D01*
X159088968Y-64633879D01*
X159092179Y-64678987D01*
X159094922Y-64734360D01*
X159097228Y-64801137D01*
X159099129Y-64880453D01*
X159100658Y-64973447D01*
X159101846Y-65081257D01*
X159102726Y-65205019D01*
X159103330Y-65345871D01*
X159103689Y-65504950D01*
X159103835Y-65683395D01*
X159103802Y-65882342D01*
X159103620Y-66102929D01*
X159103323Y-66346293D01*
X159102941Y-66613572D01*
X159102508Y-66905903D01*
X159102055Y-67224424D01*
X159102002Y-67263230D01*
X159101596Y-67583782D01*
X159101251Y-67878012D01*
X159100931Y-68147056D01*
X159100600Y-68392052D01*
X159100221Y-68614137D01*
X159099757Y-68814447D01*
X159099172Y-68994119D01*
X159098430Y-69154290D01*
X159097494Y-69296098D01*
X159096327Y-69420679D01*
X159094893Y-69529170D01*
X159093156Y-69622707D01*
X159091078Y-69702429D01*
X159088624Y-69769472D01*
X159085756Y-69824973D01*
X159082439Y-69870068D01*
X159078636Y-69905895D01*
X159074310Y-69933591D01*
X159069425Y-69954293D01*
X159063945Y-69969137D01*
X159057832Y-69979260D01*
X159051050Y-69985800D01*
X159043563Y-69989893D01*
X159035334Y-69992676D01*
X159026327Y-69995287D01*
X159016505Y-69998862D01*
X159014106Y-69999950D01*
X159006565Y-70002396D01*
X158993944Y-70004642D01*
X158975141Y-70006698D01*
X158949053Y-70008572D01*
X158914578Y-70010271D01*
X158870615Y-70011803D01*
X158816061Y-70013177D01*
X158749815Y-70014400D01*
X158670774Y-70015481D01*
X158577837Y-70016427D01*
X158469901Y-70017247D01*
X158345864Y-70017947D01*
X158204624Y-70018538D01*
X158045079Y-70019025D01*
X157866128Y-70019419D01*
X157666668Y-70019725D01*
X157445596Y-70019953D01*
X157201812Y-70020110D01*
X156934213Y-70020205D01*
X156641697Y-70020245D01*
X156323161Y-70020238D01*
X156219979Y-70020228D01*
X155894377Y-70020176D01*
X155595119Y-70020091D01*
X155321091Y-70019963D01*
X155071176Y-70019785D01*
X154844260Y-70019548D01*
X154639227Y-70019242D01*
X154454962Y-70018860D01*
X154290350Y-70018392D01*
X154144275Y-70017830D01*
X154015624Y-70017165D01*
X153903279Y-70016388D01*
X153806126Y-70015491D01*
X153723050Y-70014465D01*
X153652936Y-70013301D01*
X153594668Y-70011991D01*
X153547131Y-70010525D01*
X153509210Y-70008896D01*
X153479790Y-70007093D01*
X153457755Y-70005110D01*
X153441990Y-70002936D01*
X153431380Y-70000563D01*
X153425596Y-69998391D01*
X153415316Y-69994056D01*
X153405878Y-69990859D01*
X153397245Y-69987665D01*
X153389381Y-69983338D01*
X153382252Y-69976744D01*
X153375821Y-69966747D01*
X153370053Y-69952212D01*
X153364911Y-69932003D01*
X153360360Y-69904985D01*
X153356365Y-69870023D01*
X153352889Y-69825981D01*
X153349898Y-69771724D01*
X153347354Y-69706117D01*
X153345223Y-69628024D01*
X153343468Y-69536310D01*
X153342055Y-69429840D01*
X153341685Y-69388973D01*
X153708116Y-69388973D01*
X155003266Y-69388973D01*
X154978345Y-69351217D01*
X154953553Y-69312417D01*
X154932560Y-69275469D01*
X154915065Y-69237788D01*
X154900770Y-69196788D01*
X154889377Y-69149883D01*
X154880587Y-69094487D01*
X154874102Y-69028016D01*
X154869623Y-68947883D01*
X154866850Y-68851502D01*
X154865487Y-68736289D01*
X154865233Y-68599657D01*
X154865791Y-68439020D01*
X154866107Y-68379382D01*
X154869675Y-67740041D01*
X155274702Y-68291449D01*
X155389446Y-68447876D01*
X155488857Y-68584088D01*
X155574010Y-68701890D01*
X155645978Y-68803084D01*
X155705834Y-68889477D01*
X155754652Y-68962874D01*
X155793505Y-69025077D01*
X155823466Y-69077893D01*
X155845609Y-69123125D01*
X155861007Y-69162578D01*
X155870734Y-69198058D01*
X155875863Y-69231368D01*
X155877468Y-69264313D01*
X155876621Y-69298697D01*
X155876405Y-69303019D01*
X155871946Y-69389031D01*
X157291308Y-69388973D01*
X157540627Y-69388973D01*
X158146604Y-69388973D01*
X158291266Y-69388931D01*
X158410756Y-69388741D01*
X158507358Y-69388308D01*
X158583358Y-69387536D01*
X158641043Y-69386330D01*
X158682699Y-69384594D01*
X158710611Y-69382232D01*
X158727065Y-69379150D01*
X158734348Y-69375251D01*
X158734745Y-69370440D01*
X158730542Y-69364622D01*
X158730499Y-69364574D01*
X158713187Y-69339532D01*
X158690264Y-69298815D01*
X158670019Y-69258168D01*
X158631621Y-69176162D01*
X158623789Y-66327244D01*
X157540627Y-66327244D01*
X157591854Y-66419919D01*
X157643081Y-66512595D01*
X157643081Y-69203622D01*
X157591854Y-69296298D01*
X157540627Y-69388973D01*
X157291308Y-69388973D01*
X157185735Y-69282522D01*
X157157087Y-69253406D01*
X157129910Y-69225076D01*
X157103011Y-69195968D01*
X157075197Y-69164520D01*
X157045275Y-69129169D01*
X157012054Y-69088354D01*
X156974339Y-69040511D01*
X156930940Y-68984079D01*
X156880662Y-68917494D01*
X156822312Y-68839195D01*
X156754700Y-68747619D01*
X156676631Y-68641204D01*
X156586912Y-68518387D01*
X156484352Y-68377605D01*
X156367758Y-68217297D01*
X156272191Y-68085798D01*
X156152251Y-67920596D01*
X156047620Y-67776152D01*
X155957352Y-67651094D01*
X155880497Y-67544052D01*
X155816109Y-67453654D01*
X155763239Y-67378529D01*
X155720940Y-67317304D01*
X155688264Y-67268610D01*
X155664262Y-67231074D01*
X155647987Y-67203325D01*
X155638492Y-67183992D01*
X155634827Y-67171703D01*
X155635929Y-67165242D01*
X155649276Y-67148048D01*
X155678134Y-67111655D01*
X155720760Y-67058224D01*
X155775415Y-66989919D01*
X155840356Y-66908903D01*
X155913842Y-66817340D01*
X155994132Y-66717392D01*
X156079485Y-66611224D01*
X156168160Y-66500997D01*
X156258414Y-66388876D01*
X156308056Y-66327244D01*
X156348507Y-66277024D01*
X156436698Y-66167604D01*
X156521246Y-66062778D01*
X156600408Y-65964711D01*
X156672444Y-65875566D01*
X156735613Y-65797505D01*
X156788173Y-65732692D01*
X156828383Y-65683290D01*
X156852000Y-65654487D01*
X156943710Y-65546778D01*
X157031940Y-65449580D01*
X157113597Y-65366076D01*
X157185590Y-65299448D01*
X157236681Y-65258599D01*
X157297093Y-65215135D01*
X155907702Y-65215135D01*
X155908092Y-65296666D01*
X155904209Y-65356606D01*
X155889610Y-65412177D01*
X155867012Y-65464855D01*
X155852322Y-65494615D01*
X155836528Y-65524103D01*
X155818186Y-65555276D01*
X155795855Y-65590093D01*
X155768091Y-65630510D01*
X155733451Y-65678486D01*
X155690493Y-65735978D01*
X155637773Y-65804943D01*
X155573849Y-65887339D01*
X155497279Y-65985124D01*
X155406619Y-66100255D01*
X155300426Y-66234690D01*
X155288432Y-66249859D01*
X154869675Y-66779412D01*
X154865622Y-66192922D01*
X154864805Y-66017251D01*
X154864979Y-65868532D01*
X154866151Y-65746275D01*
X154868331Y-65649989D01*
X154871526Y-65579183D01*
X154875744Y-65533369D01*
X154877162Y-65524679D01*
X154899409Y-65433135D01*
X154928557Y-65350608D01*
X154961818Y-65284253D01*
X154981800Y-65256110D01*
X155016278Y-65215135D01*
X154362086Y-65215135D01*
X154206031Y-65215269D01*
X154075533Y-65215703D01*
X153968690Y-65216489D01*
X153883602Y-65217676D01*
X153818365Y-65219317D01*
X153771079Y-65221461D01*
X153739843Y-65224159D01*
X153722754Y-65227462D01*
X153717912Y-65231421D01*
X153718247Y-65232298D01*
X153732115Y-65253231D01*
X153755268Y-65286412D01*
X153767246Y-65303193D01*
X153779631Y-65319940D01*
X153790763Y-65334915D01*
X153800712Y-65349594D01*
X153809549Y-65365449D01*
X153817343Y-65383955D01*
X153824165Y-65406585D01*
X153830084Y-65434813D01*
X153835171Y-65470113D01*
X153839496Y-65513958D01*
X153843129Y-65567822D01*
X153846140Y-65633180D01*
X153848599Y-65711504D01*
X153850577Y-65804268D01*
X153852142Y-65912947D01*
X153853366Y-66039013D01*
X153854319Y-66183942D01*
X153855070Y-66349206D01*
X153855689Y-66536279D01*
X153856248Y-66746635D01*
X153856815Y-66981748D01*
X153857345Y-67197741D01*
X153857845Y-67438535D01*
X153858105Y-67668274D01*
X153858132Y-67885493D01*
X153857933Y-68088722D01*
X153857514Y-68276496D01*
X153856882Y-68447345D01*
X153856044Y-68599803D01*
X153855008Y-68732403D01*
X153853780Y-68843676D01*
X153852367Y-68932156D01*
X153850775Y-68996375D01*
X153849013Y-69034865D01*
X153848679Y-69038933D01*
X153836534Y-69132248D01*
X153817573Y-69207190D01*
X153788698Y-69272594D01*
X153746810Y-69337293D01*
X153741571Y-69344352D01*
X153708116Y-69388973D01*
X153341685Y-69388973D01*
X153340946Y-69307479D01*
X153340107Y-69168090D01*
X153339502Y-69010539D01*
X153339095Y-68833691D01*
X153338850Y-68636410D01*
X153338733Y-68417560D01*
X153338705Y-68176007D01*
X153338733Y-67910615D01*
X153338780Y-67620249D01*
X153338810Y-67303773D01*
X153338811Y-67240946D01*
X153338828Y-66921137D01*
X153338888Y-66627661D01*
X153338998Y-66359390D01*
X153339167Y-66115198D01*
X153339403Y-65893957D01*
X153339716Y-65694540D01*
X153340115Y-65515820D01*
X153340607Y-65356671D01*
X153341203Y-65215966D01*
X153341910Y-65092576D01*
X153342737Y-64985376D01*
X153343693Y-64893238D01*
X153344787Y-64815035D01*
X153346027Y-64749641D01*
X153347422Y-64695928D01*
X153348982Y-64652769D01*
X153350714Y-64619037D01*
X153352628Y-64593605D01*
X153354732Y-64575347D01*
X153357034Y-64563134D01*
X153359545Y-64555841D01*
X153359637Y-64555659D01*
X153364808Y-64544518D01*
X153369115Y-64534431D01*
X153373879Y-64525346D01*
X153380422Y-64517212D01*
X153390065Y-64509976D01*
X153404129Y-64503586D01*
X153423937Y-64497989D01*
X153450809Y-64493133D01*
X153486067Y-64488966D01*
X153531032Y-64485436D01*
X153587026Y-64482491D01*
X153655371Y-64480077D01*
X153737386Y-64478144D01*
X153834395Y-64476638D01*
X153947718Y-64475508D01*
X154078677Y-64474702D01*
X154228593Y-64474166D01*
X154398787Y-64473849D01*
X154590582Y-64473699D01*
X154805298Y-64473663D01*
X155044257Y-64473689D01*
G37*
%TO.C,R1*%
D12*
X174580000Y-71580000D02*
X178420000Y-71580000D01*
X178420000Y-73420000D01*
X174580000Y-73420000D01*
X174580000Y-71580000D01*
X179370000Y-72500000D02*
X178420000Y-72500000D01*
X173630000Y-72500000D02*
X174580000Y-72500000D01*
%TO.C,SW2*%
X163410000Y-106760000D02*
X163410000Y-106450000D01*
X163410000Y-106760000D02*
X154590000Y-106760000D01*
X163410000Y-102240000D02*
X163410000Y-102550000D01*
X157500000Y-101540000D02*
X156500000Y-101540000D01*
X157000000Y-102040000D02*
X157500000Y-101540000D01*
X156500000Y-101540000D02*
X157000000Y-102040000D01*
X154590000Y-106760000D02*
X154590000Y-106450000D01*
X154590000Y-102550000D02*
X154590000Y-102240000D01*
X154590000Y-102240000D02*
X163410000Y-102240000D01*
%TO.C,R4*%
X172600000Y-91000000D02*
X172600000Y-85000000D01*
X181400000Y-91000000D02*
X181400000Y-85000000D01*
X172600000Y-85000000D02*
G75*
G02*
X181377560Y-84967350I4400000J-3000000D01*
G01*
X181400000Y-91000000D02*
G75*
G02*
X172622440Y-91032650I-4400000J3000000D01*
G01*
%TO.C,BT2*%
X131880914Y-81890000D02*
X135055914Y-81890000D01*
X131880914Y-93110000D02*
X131880914Y-81890000D01*
X135055914Y-93110000D02*
X131880914Y-93110000D01*
X135055914Y-81890000D02*
G75*
G02*
X135055914Y-93110000I12435000J-5610000D01*
G01*
%TO.C,R3*%
X173630000Y-79150000D02*
X174580000Y-79150000D01*
X179370000Y-79150000D02*
X178420000Y-79150000D01*
X174580000Y-78230000D02*
X178420000Y-78230000D01*
X178420000Y-80070000D01*
X174580000Y-80070000D01*
X174580000Y-78230000D01*
%TO.C,U1*%
X169590000Y-100160000D02*
X169590000Y-101810000D01*
X169590000Y-103810000D02*
X169590000Y-105460000D01*
X169590000Y-105460000D02*
X179870000Y-105460000D01*
X179870000Y-100160000D02*
X169590000Y-100160000D01*
X179870000Y-105460000D02*
X179870000Y-100160000D01*
X169590000Y-101810000D02*
G75*
G02*
X169590000Y-103810000I0J-1000000D01*
G01*
%TO.C,R2*%
X173630000Y-75825000D02*
X174580000Y-75825000D01*
X179370000Y-75825000D02*
X178420000Y-75825000D01*
X174580000Y-74905000D02*
X178420000Y-74905000D01*
X178420000Y-76745000D01*
X174580000Y-76745000D01*
X174580000Y-74905000D01*
%TO.C,D2*%
X164170000Y-85955000D02*
X164170000Y-89045000D01*
X164170000Y-85955170D02*
G75*
G02*
X169720000Y-87500000I2560000J-1544830D01*
G01*
X169720000Y-87500000D02*
G75*
G02*
X164170000Y-89044830I-2990000J0D01*
G01*
X169230000Y-87500000D02*
G75*
G02*
X164230000Y-87500000I-2500000J0D01*
G01*
X164230000Y-87500000D02*
G75*
G02*
X169230000Y-87500000I2500000J0D01*
G01*
%TO.C,MK1*%
X184940000Y-88000000D02*
X184940000Y-90060000D01*
X184940000Y-88000000D02*
X187060000Y-88000000D01*
X184940000Y-90060000D02*
X187060000Y-90060000D01*
X186000000Y-85940000D02*
X187060000Y-85940000D01*
X187060000Y-85940000D02*
X187060000Y-87000000D01*
X187060000Y-88000000D02*
X187060000Y-90060000D01*
%TD*%
M02*
