%TF.GenerationSoftware,KiCad,Pcbnew,9.0.4*%
%TF.CreationDate,2025-08-28T14:42:39+05:30*%
%TF.ProjectId,new_1,6e65775f-312e-46b6-9963-61645f706362,rev?*%
%TF.SameCoordinates,Original*%
%TF.FileFunction,Copper,L2,Bot*%
%TF.FilePolarity,Positive*%
%FSLAX46Y46*%
G04 Gerber Fmt 4.6, Leading zero omitted, Abs format (unit mm)*
G04 Created by KiCad (PCBNEW 9.0.4) date 2025-08-28 14:42:39*
%MOMM*%
%LPD*%
G01*
G04 APERTURE LIST*
G04 Aperture macros list*
%AMRoundRect*
0 Rectangle with rounded corners*
0 $1 Rounding radius*
0 $2 $3 $4 $5 $6 $7 $8 $9 X,Y pos of 4 corners*
0 Add a 4 corners polygon primitive as box body*
4,1,4,$2,$3,$4,$5,$6,$7,$8,$9,$2,$3,0*
0 Add four circle primitives for the rounded corners*
1,1,$1+$1,$2,$3*
1,1,$1+$1,$4,$5*
1,1,$1+$1,$6,$7*
1,1,$1+$1,$8,$9*
0 Add four rect primitives between the rounded corners*
20,1,$1+$1,$2,$3,$4,$5,0*
20,1,$1+$1,$4,$5,$6,$7,0*
20,1,$1+$1,$6,$7,$8,$9,0*
20,1,$1+$1,$8,$9,$2,$3,0*%
G04 Aperture macros list end*
%TA.AperFunction,ComponentPad*%
%ADD10C,1.400000*%
%TD*%
%TA.AperFunction,ComponentPad*%
%ADD11O,1.500000X2.500000*%
%TD*%
%TA.AperFunction,ComponentPad*%
%ADD12R,1.500000X2.500000*%
%TD*%
%TA.AperFunction,ComponentPad*%
%ADD13O,2.200000X3.500000*%
%TD*%
%TA.AperFunction,ComponentPad*%
%ADD14C,1.600000*%
%TD*%
%TA.AperFunction,ComponentPad*%
%ADD15R,2.100000X2.100000*%
%TD*%
%TA.AperFunction,ComponentPad*%
%ADD16C,2.100000*%
%TD*%
%TA.AperFunction,ComponentPad*%
%ADD17RoundRect,0.250000X0.550000X-0.550000X0.550000X0.550000X-0.550000X0.550000X-0.550000X-0.550000X0*%
%TD*%
%TA.AperFunction,ComponentPad*%
%ADD18R,1.800000X1.800000*%
%TD*%
%TA.AperFunction,ComponentPad*%
%ADD19C,1.800000*%
%TD*%
%TA.AperFunction,ComponentPad*%
%ADD20R,1.350000X1.350000*%
%TD*%
%TA.AperFunction,ComponentPad*%
%ADD21C,1.350000*%
%TD*%
%TA.AperFunction,Conductor*%
%ADD22C,0.500000*%
%TD*%
%TA.AperFunction,Conductor*%
%ADD23C,0.200000*%
%TD*%
G04 APERTURE END LIST*
D10*
%TO.P,R1,2*%
%TO.N,+3.3V*%
X180310000Y-72500000D03*
%TO.P,R1,1*%
%TO.N,/LDR*%
X172690000Y-72500000D03*
%TD*%
D11*
%TO.P,SW2,3,C*%
%TO.N,Net-(BT2--)*%
X161000000Y-104500000D03*
%TO.P,SW2,2,B*%
%TO.N,GND*%
X159000000Y-104500000D03*
D12*
%TO.P,SW2,1,A*%
%TO.N,unconnected-(SW2-A-Pad1)*%
X157000000Y-104500000D03*
D13*
%TO.P,SW2,*%
%TO.N,*%
X163100000Y-104500000D03*
X154900000Y-104500000D03*
%TD*%
D14*
%TO.P,R4,1*%
%TO.N,/LDR*%
X177000000Y-91800000D03*
%TO.P,R4,2*%
%TO.N,GND*%
X177000000Y-84200000D03*
%TD*%
D15*
%TO.P,BT2,1,+*%
%TO.N,+3.3V*%
X133210914Y-87500000D03*
D16*
%TO.P,BT2,2,-*%
%TO.N,Net-(BT2--)*%
X153210914Y-87500000D03*
%TD*%
D10*
%TO.P,R3,1*%
%TO.N,+3.3V*%
X172690000Y-79150000D03*
%TO.P,R3,2*%
%TO.N,/MIC*%
X180310000Y-79150000D03*
%TD*%
D17*
%TO.P,U1,1,~{RESET}/PB5*%
%TO.N,unconnected-(U1-~{RESET}{slash}PB5-Pad1)*%
X170920000Y-106620000D03*
D14*
%TO.P,U1,2,XTAL1/PB3*%
%TO.N,/MIC*%
X173460000Y-106620000D03*
%TO.P,U1,3,XTAL2/PB4*%
%TO.N,unconnected-(U1-XTAL2{slash}PB4-Pad3)*%
X176000000Y-106620000D03*
%TO.P,U1,4,GND*%
%TO.N,GND*%
X178540000Y-106620000D03*
%TO.P,U1,5,AREF/PB0*%
%TO.N,unconnected-(U1-AREF{slash}PB0-Pad5)*%
X178540000Y-99000000D03*
%TO.P,U1,6,PB1*%
%TO.N,/<NO NET>*%
X176000000Y-99000000D03*
%TO.P,U1,7,PB2*%
%TO.N,/LDR*%
X173460000Y-99000000D03*
%TO.P,U1,8,VCC*%
%TO.N,+3.3V*%
X170920000Y-99000000D03*
%TD*%
D10*
%TO.P,R2,1*%
%TO.N,Net-(D2-K)*%
X172690000Y-75825000D03*
%TO.P,R2,2*%
%TO.N,GND*%
X180310000Y-75825000D03*
%TD*%
D18*
%TO.P,D2,1,K*%
%TO.N,Net-(D2-K)*%
X165460000Y-87500000D03*
D19*
%TO.P,D2,2,A*%
%TO.N,/<NO NET>*%
X168000000Y-87500000D03*
%TD*%
D20*
%TO.P,MK1,1,-*%
%TO.N,GND*%
X186000000Y-87000000D03*
D21*
%TO.P,MK1,2,+*%
%TO.N,/MIC*%
X186000000Y-89000000D03*
%TD*%
D22*
%TO.N,Net-(D2-K)*%
X165460000Y-83055000D02*
X172690000Y-75825000D01*
X165460000Y-87500000D02*
X165460000Y-83055000D01*
%TO.N,/MIC*%
X186000000Y-89000000D02*
X180310000Y-83310000D01*
X180310000Y-83310000D02*
X180310000Y-79150000D01*
D23*
%TO.N,GND*%
X186000000Y-87000000D02*
X186500000Y-87500000D01*
D22*
%TO.N,/LDR*%
X175749000Y-90549000D02*
X175749000Y-75559000D01*
X177000000Y-91800000D02*
X175749000Y-90549000D01*
X175749000Y-75559000D02*
X172690000Y-72500000D01*
X177000000Y-91800000D02*
X177000000Y-95460000D01*
X177000000Y-95460000D02*
X173460000Y-99000000D01*
%TD*%
%TA.AperFunction,Conductor*%
%TO.N,GND*%
G36*
X160033210Y-60255317D02*
G01*
X161090114Y-60293065D01*
X161094527Y-60293301D01*
X162149441Y-60368751D01*
X162153747Y-60369136D01*
X163205352Y-60482195D01*
X163209708Y-60482742D01*
X164256533Y-60633253D01*
X164260876Y-60633956D01*
X165301696Y-60821741D01*
X165305996Y-60822597D01*
X166339417Y-61047404D01*
X166343700Y-61048416D01*
X167368455Y-61309969D01*
X167372672Y-61311126D01*
X168344521Y-61596487D01*
X168387442Y-61609090D01*
X168391669Y-61610413D01*
X169395124Y-61944395D01*
X169399226Y-61945841D01*
X170390202Y-62315457D01*
X170394282Y-62317062D01*
X170967752Y-62554601D01*
X171371375Y-62721788D01*
X171375433Y-62723555D01*
X172337399Y-63162870D01*
X172341393Y-63164780D01*
X173287130Y-63638182D01*
X173291052Y-63640234D01*
X174219248Y-64147067D01*
X174223094Y-64149257D01*
X175132636Y-64688913D01*
X175136377Y-64691224D01*
X176026064Y-65262991D01*
X176029744Y-65265450D01*
X176309375Y-65459601D01*
X176898489Y-65868630D01*
X176902015Y-65871172D01*
X177748699Y-66504992D01*
X177752167Y-66507686D01*
X178575649Y-67171290D01*
X178579046Y-67174129D01*
X179378305Y-67866691D01*
X179381598Y-67869649D01*
X180155639Y-68590306D01*
X180158824Y-68593380D01*
X180906619Y-69341175D01*
X180909693Y-69344360D01*
X181630350Y-70118401D01*
X181633308Y-70121694D01*
X182325870Y-70920953D01*
X182328709Y-70924350D01*
X182992313Y-71747832D01*
X182995013Y-71751308D01*
X183628819Y-72597974D01*
X183631377Y-72601521D01*
X183756074Y-72781118D01*
X184234549Y-73470255D01*
X184237008Y-73473935D01*
X184808759Y-74363596D01*
X184811086Y-74367363D01*
X185350742Y-75276905D01*
X185352932Y-75280751D01*
X185859765Y-76208947D01*
X185861817Y-76212869D01*
X186335219Y-77158606D01*
X186337129Y-77162600D01*
X186776444Y-78124566D01*
X186778211Y-78128624D01*
X187182929Y-79105698D01*
X187184550Y-79109817D01*
X187554145Y-80100737D01*
X187555617Y-80104912D01*
X187889586Y-81108333D01*
X187890909Y-81112557D01*
X188188866Y-82127301D01*
X188190037Y-82131570D01*
X188451580Y-83156287D01*
X188452598Y-83160595D01*
X188677398Y-84193983D01*
X188678262Y-84198324D01*
X188866040Y-85239110D01*
X188866748Y-85243480D01*
X189017254Y-86290273D01*
X189017806Y-86294665D01*
X189130858Y-87346201D01*
X189131252Y-87350610D01*
X189206697Y-88405468D01*
X189206934Y-88409888D01*
X189244682Y-89466789D01*
X189244761Y-89471215D01*
X189244761Y-90528784D01*
X189244682Y-90533210D01*
X189206934Y-91590111D01*
X189206697Y-91594531D01*
X189131252Y-92649389D01*
X189130858Y-92653798D01*
X189017806Y-93705334D01*
X189017254Y-93709726D01*
X188866748Y-94756519D01*
X188866040Y-94760889D01*
X188678262Y-95801675D01*
X188677398Y-95806016D01*
X188452598Y-96839404D01*
X188451580Y-96843712D01*
X188190037Y-97868429D01*
X188188866Y-97872698D01*
X187890909Y-98887442D01*
X187889586Y-98891666D01*
X187555617Y-99895087D01*
X187554145Y-99899262D01*
X187184550Y-100890182D01*
X187182929Y-100894301D01*
X186778211Y-101871375D01*
X186776444Y-101875433D01*
X186337129Y-102837399D01*
X186335219Y-102841393D01*
X185861817Y-103787130D01*
X185859765Y-103791052D01*
X185352932Y-104719248D01*
X185350742Y-104723094D01*
X184811086Y-105632636D01*
X184808759Y-105636403D01*
X184237008Y-106526064D01*
X184234549Y-106529744D01*
X183631383Y-107398470D01*
X183628800Y-107402052D01*
X183358815Y-107762710D01*
X182995028Y-108248672D01*
X182992313Y-108252167D01*
X182328709Y-109075649D01*
X182325870Y-109079046D01*
X181633308Y-109878305D01*
X181630350Y-109881598D01*
X180909693Y-110655639D01*
X180906619Y-110658824D01*
X180158824Y-111406619D01*
X180155639Y-111409693D01*
X179381598Y-112130350D01*
X179378305Y-112133308D01*
X178579046Y-112825870D01*
X178575649Y-112828709D01*
X177752167Y-113492313D01*
X177748672Y-113495028D01*
X176902061Y-114128794D01*
X176898470Y-114131383D01*
X176029744Y-114734549D01*
X176026064Y-114737008D01*
X175136403Y-115308759D01*
X175132636Y-115311086D01*
X174223094Y-115850742D01*
X174219248Y-115852932D01*
X173291052Y-116359765D01*
X173287130Y-116361817D01*
X172341393Y-116835219D01*
X172337399Y-116837129D01*
X171375433Y-117276444D01*
X171371375Y-117278211D01*
X170394301Y-117682929D01*
X170390182Y-117684550D01*
X169399262Y-118054145D01*
X169395087Y-118055617D01*
X168391666Y-118389586D01*
X168387442Y-118390909D01*
X167372698Y-118688866D01*
X167368429Y-118690037D01*
X166343712Y-118951580D01*
X166339404Y-118952598D01*
X165306016Y-119177398D01*
X165301675Y-119178262D01*
X164260889Y-119366040D01*
X164256519Y-119366748D01*
X163209726Y-119517254D01*
X163205334Y-119517806D01*
X162153798Y-119630858D01*
X162149389Y-119631252D01*
X161094531Y-119706697D01*
X161090111Y-119706934D01*
X160033211Y-119744682D01*
X160028785Y-119744761D01*
X158971215Y-119744761D01*
X158966789Y-119744682D01*
X157909888Y-119706934D01*
X157905468Y-119706697D01*
X156850610Y-119631252D01*
X156846201Y-119630858D01*
X155794665Y-119517806D01*
X155790273Y-119517254D01*
X154743480Y-119366748D01*
X154739110Y-119366040D01*
X153698324Y-119178262D01*
X153693983Y-119177398D01*
X152660595Y-118952598D01*
X152656287Y-118951580D01*
X151631570Y-118690037D01*
X151627301Y-118688866D01*
X150612557Y-118390909D01*
X150608333Y-118389586D01*
X149604912Y-118055617D01*
X149600737Y-118054145D01*
X148609817Y-117684550D01*
X148605698Y-117682929D01*
X147628624Y-117278211D01*
X147624566Y-117276444D01*
X146662600Y-116837129D01*
X146658606Y-116835219D01*
X145712869Y-116361817D01*
X145708947Y-116359765D01*
X144780751Y-115852932D01*
X144776905Y-115850742D01*
X143867363Y-115311086D01*
X143863596Y-115308759D01*
X143626488Y-115156379D01*
X142973935Y-114737008D01*
X142970255Y-114734549D01*
X142101529Y-114131383D01*
X142097974Y-114128819D01*
X141251308Y-113495013D01*
X141247832Y-113492313D01*
X140424350Y-112828709D01*
X140420953Y-112825870D01*
X139621694Y-112133308D01*
X139618401Y-112130350D01*
X138844360Y-111409693D01*
X138841175Y-111406619D01*
X138093380Y-110658824D01*
X138090306Y-110655639D01*
X137369649Y-109881598D01*
X137366691Y-109878305D01*
X136674129Y-109079046D01*
X136671290Y-109075649D01*
X136007686Y-108252167D01*
X136004992Y-108248699D01*
X135371172Y-107402015D01*
X135368630Y-107398489D01*
X134899180Y-106722352D01*
X134765450Y-106529744D01*
X134762991Y-106526064D01*
X134758366Y-106518867D01*
X134191224Y-105636377D01*
X134188913Y-105632636D01*
X133649257Y-104723094D01*
X133647067Y-104719248D01*
X133140234Y-103791052D01*
X133138184Y-103787133D01*
X133131947Y-103774674D01*
X133131946Y-103774671D01*
X133131945Y-103774670D01*
X133106600Y-103724038D01*
X153299500Y-103724038D01*
X153299500Y-105275961D01*
X153338910Y-105524785D01*
X153416760Y-105764383D01*
X153468767Y-105866451D01*
X153516707Y-105960539D01*
X153531132Y-105988848D01*
X153679201Y-106192649D01*
X153679205Y-106192654D01*
X153857345Y-106370794D01*
X153857350Y-106370798D01*
X153862300Y-106374394D01*
X154061155Y-106518870D01*
X154204184Y-106591747D01*
X154285616Y-106633239D01*
X154285618Y-106633239D01*
X154285621Y-106633241D01*
X154525215Y-106711090D01*
X154774038Y-106750500D01*
X154774039Y-106750500D01*
X155025961Y-106750500D01*
X155025962Y-106750500D01*
X155274785Y-106711090D01*
X155514379Y-106633241D01*
X155738845Y-106518870D01*
X155942656Y-106370793D01*
X156034511Y-106278937D01*
X156095831Y-106245454D01*
X156135445Y-106243330D01*
X156142514Y-106244089D01*
X156142517Y-106244091D01*
X156202127Y-106250500D01*
X157797872Y-106250499D01*
X157857483Y-106244091D01*
X157992331Y-106193796D01*
X158107546Y-106107546D01*
X158136535Y-106068821D01*
X158192467Y-106026952D01*
X158262158Y-106021968D01*
X158308686Y-106042816D01*
X158344856Y-106069095D01*
X158520162Y-106158418D01*
X158707283Y-106219218D01*
X158750000Y-106225984D01*
X158750000Y-104815686D01*
X158754394Y-104820080D01*
X158845606Y-104872741D01*
X158947339Y-104900000D01*
X159052661Y-104900000D01*
X159154394Y-104872741D01*
X159245606Y-104820080D01*
X159250000Y-104815686D01*
X159250000Y-106225983D01*
X159292716Y-106219218D01*
X159479837Y-106158418D01*
X159655143Y-106069095D01*
X159814321Y-105953444D01*
X159814322Y-105953443D01*
X159911965Y-105855801D01*
X159973288Y-105822316D01*
X160042980Y-105827300D01*
X160087327Y-105855801D01*
X160185354Y-105953828D01*
X160344595Y-106069524D01*
X160369917Y-106082426D01*
X160519970Y-106158882D01*
X160519972Y-106158882D01*
X160519975Y-106158884D01*
X160620317Y-106191487D01*
X160707173Y-106219709D01*
X160901578Y-106250500D01*
X160901583Y-106250500D01*
X161098422Y-106250500D01*
X161292826Y-106219709D01*
X161372574Y-106193797D01*
X161480025Y-106158884D01*
X161655405Y-106069524D01*
X161655409Y-106069520D01*
X161659087Y-106067647D01*
X161727756Y-106054751D01*
X161792497Y-106081027D01*
X161815699Y-106105245D01*
X161879207Y-106192656D01*
X161879209Y-106192658D01*
X162057345Y-106370794D01*
X162057350Y-106370798D01*
X162062300Y-106374394D01*
X162261155Y-106518870D01*
X162404184Y-106591747D01*
X162485616Y-106633239D01*
X162485618Y-106633239D01*
X162485621Y-106633241D01*
X162725215Y-106711090D01*
X162974038Y-106750500D01*
X162974039Y-106750500D01*
X163225961Y-106750500D01*
X163225962Y-106750500D01*
X163474785Y-106711090D01*
X163714379Y-106633241D01*
X163938845Y-106518870D01*
X164142656Y-106370793D01*
X164320793Y-106192656D01*
X164446247Y-106019983D01*
X169619500Y-106019983D01*
X169619500Y-107220001D01*
X169619501Y-107220018D01*
X169630000Y-107322796D01*
X169630001Y-107322799D01*
X169658045Y-107407429D01*
X169685186Y-107489334D01*
X169777288Y-107638656D01*
X169901344Y-107762712D01*
X170050666Y-107854814D01*
X170217203Y-107909999D01*
X170319991Y-107920500D01*
X171520008Y-107920499D01*
X171622797Y-107909999D01*
X171789334Y-107854814D01*
X171938656Y-107762712D01*
X172062712Y-107638656D01*
X172154814Y-107489334D01*
X172181955Y-107407427D01*
X172221726Y-107349984D01*
X172286242Y-107323161D01*
X172355018Y-107335476D01*
X172399977Y-107373547D01*
X172468030Y-107467213D01*
X172468034Y-107467219D01*
X172612786Y-107611971D01*
X172733226Y-107699474D01*
X172778390Y-107732287D01*
X172894607Y-107791503D01*
X172960776Y-107825218D01*
X172960778Y-107825218D01*
X172960781Y-107825220D01*
X173051856Y-107854812D01*
X173155465Y-107888477D01*
X173256557Y-107904488D01*
X173357648Y-107920500D01*
X173357649Y-107920500D01*
X173562351Y-107920500D01*
X173562352Y-107920500D01*
X173764534Y-107888477D01*
X173959219Y-107825220D01*
X174141610Y-107732287D01*
X174270482Y-107638657D01*
X174307213Y-107611971D01*
X174307215Y-107611968D01*
X174307219Y-107611966D01*
X174451966Y-107467219D01*
X174451968Y-107467215D01*
X174451971Y-107467213D01*
X174572284Y-107301614D01*
X174572286Y-107301611D01*
X174572287Y-107301610D01*
X174619516Y-107208917D01*
X174667489Y-107158123D01*
X174735310Y-107141328D01*
X174801445Y-107163865D01*
X174840483Y-107208917D01*
X174846140Y-107220018D01*
X174887715Y-107301614D01*
X175008028Y-107467213D01*
X175152786Y-107611971D01*
X175273226Y-107699474D01*
X175318390Y-107732287D01*
X175434607Y-107791503D01*
X175500776Y-107825218D01*
X175500778Y-107825218D01*
X175500781Y-107825220D01*
X175591856Y-107854812D01*
X175695465Y-107888477D01*
X175796557Y-107904488D01*
X175897648Y-107920500D01*
X175897649Y-107920500D01*
X176102351Y-107920500D01*
X176102352Y-107920500D01*
X176304534Y-107888477D01*
X176499219Y-107825220D01*
X176681610Y-107732287D01*
X176810482Y-107638657D01*
X176847213Y-107611971D01*
X176847215Y-107611968D01*
X176847219Y-107611966D01*
X176991966Y-107467219D01*
X176991968Y-107467215D01*
X176991971Y-107467213D01*
X177096894Y-107322797D01*
X177112287Y-107301610D01*
X177159795Y-107208369D01*
X177207769Y-107157573D01*
X177275590Y-107140778D01*
X177341725Y-107163315D01*
X177380765Y-107208369D01*
X177428141Y-107301350D01*
X177428147Y-107301359D01*
X177460523Y-107345921D01*
X177460524Y-107345922D01*
X178140000Y-106666446D01*
X178140000Y-106672661D01*
X178167259Y-106774394D01*
X178219920Y-106865606D01*
X178294394Y-106940080D01*
X178385606Y-106992741D01*
X178487339Y-107020000D01*
X178493553Y-107020000D01*
X177814076Y-107699474D01*
X177858650Y-107731859D01*
X178040968Y-107824755D01*
X178235582Y-107887990D01*
X178437683Y-107920000D01*
X178642317Y-107920000D01*
X178844417Y-107887990D01*
X179039031Y-107824755D01*
X179221349Y-107731859D01*
X179265921Y-107699474D01*
X178586447Y-107020000D01*
X178592661Y-107020000D01*
X178694394Y-106992741D01*
X178785606Y-106940080D01*
X178860080Y-106865606D01*
X178912741Y-106774394D01*
X178940000Y-106672661D01*
X178940000Y-106666448D01*
X179619474Y-107345922D01*
X179619474Y-107345921D01*
X179651859Y-107301349D01*
X179744755Y-107119031D01*
X179807990Y-106924417D01*
X179840000Y-106722317D01*
X179840000Y-106517682D01*
X179807990Y-106315582D01*
X179744755Y-106120968D01*
X179651859Y-105938650D01*
X179619474Y-105894077D01*
X179619474Y-105894076D01*
X178940000Y-106573551D01*
X178940000Y-106567339D01*
X178912741Y-106465606D01*
X178860080Y-106374394D01*
X178785606Y-106299920D01*
X178694394Y-106247259D01*
X178592661Y-106220000D01*
X178586446Y-106220000D01*
X179265922Y-105540524D01*
X179265921Y-105540523D01*
X179221359Y-105508147D01*
X179221350Y-105508141D01*
X179039031Y-105415244D01*
X178844417Y-105352009D01*
X178642317Y-105320000D01*
X178437683Y-105320000D01*
X178235582Y-105352009D01*
X178040968Y-105415244D01*
X177858644Y-105508143D01*
X177814077Y-105540523D01*
X177814077Y-105540524D01*
X178493554Y-106220000D01*
X178487339Y-106220000D01*
X178385606Y-106247259D01*
X178294394Y-106299920D01*
X178219920Y-106374394D01*
X178167259Y-106465606D01*
X178140000Y-106567339D01*
X178140000Y-106573553D01*
X177460524Y-105894077D01*
X177460523Y-105894077D01*
X177428143Y-105938644D01*
X177380765Y-106031630D01*
X177332790Y-106082426D01*
X177264969Y-106099221D01*
X177198834Y-106076683D01*
X177159795Y-106031630D01*
X177159515Y-106031080D01*
X177112287Y-105938390D01*
X177112285Y-105938387D01*
X177112284Y-105938385D01*
X176991971Y-105772786D01*
X176847213Y-105628028D01*
X176681613Y-105507715D01*
X176681612Y-105507714D01*
X176681610Y-105507713D01*
X176621898Y-105477288D01*
X176499223Y-105414781D01*
X176304534Y-105351522D01*
X176129995Y-105323878D01*
X176102352Y-105319500D01*
X175897648Y-105319500D01*
X175873329Y-105323351D01*
X175695465Y-105351522D01*
X175500776Y-105414781D01*
X175318386Y-105507715D01*
X175152786Y-105628028D01*
X175008028Y-105772786D01*
X174887715Y-105938386D01*
X174840485Y-106031080D01*
X174792510Y-106081876D01*
X174724689Y-106098671D01*
X174658554Y-106076134D01*
X174619515Y-106031080D01*
X174613861Y-106019983D01*
X174572287Y-105938390D01*
X174540092Y-105894077D01*
X174451971Y-105772786D01*
X174307213Y-105628028D01*
X174141613Y-105507715D01*
X174141612Y-105507714D01*
X174141610Y-105507713D01*
X174081898Y-105477288D01*
X173959223Y-105414781D01*
X173764534Y-105351522D01*
X173589995Y-105323878D01*
X173562352Y-105319500D01*
X173357648Y-105319500D01*
X173333329Y-105323351D01*
X173155465Y-105351522D01*
X172960776Y-105414781D01*
X172778386Y-105507715D01*
X172612786Y-105628028D01*
X172468032Y-105772782D01*
X172468028Y-105772787D01*
X172399978Y-105866451D01*
X172344648Y-105909117D01*
X172275035Y-105915096D01*
X172213240Y-105882490D01*
X172181954Y-105832570D01*
X172180208Y-105827300D01*
X172154814Y-105750666D01*
X172062712Y-105601344D01*
X171938656Y-105477288D01*
X171789334Y-105385186D01*
X171622797Y-105330001D01*
X171622795Y-105330000D01*
X171520010Y-105319500D01*
X170319998Y-105319500D01*
X170319981Y-105319501D01*
X170217203Y-105330000D01*
X170217200Y-105330001D01*
X170050668Y-105385185D01*
X170050663Y-105385187D01*
X169901342Y-105477289D01*
X169777289Y-105601342D01*
X169685187Y-105750663D01*
X169685185Y-105750668D01*
X169677858Y-105772781D01*
X169630001Y-105917203D01*
X169630001Y-105917204D01*
X169630000Y-105917204D01*
X169619500Y-106019983D01*
X164446247Y-106019983D01*
X164468870Y-105988845D01*
X164583241Y-105764379D01*
X164661090Y-105524785D01*
X164700500Y-105275962D01*
X164700500Y-103724038D01*
X164661090Y-103475215D01*
X164583241Y-103235621D01*
X164583239Y-103235618D01*
X164583239Y-103235616D01*
X164492605Y-103057738D01*
X164468870Y-103011155D01*
X164415298Y-102937419D01*
X164320798Y-102807350D01*
X164320794Y-102807345D01*
X164142654Y-102629205D01*
X164142649Y-102629201D01*
X163938848Y-102481132D01*
X163938847Y-102481131D01*
X163938845Y-102481130D01*
X163868747Y-102445413D01*
X163714383Y-102366760D01*
X163474785Y-102288910D01*
X163225962Y-102249500D01*
X162974038Y-102249500D01*
X162849626Y-102269205D01*
X162725214Y-102288910D01*
X162485616Y-102366760D01*
X162261151Y-102481132D01*
X162057350Y-102629201D01*
X162057345Y-102629205D01*
X161879209Y-102807341D01*
X161879202Y-102807350D01*
X161815699Y-102894753D01*
X161760369Y-102937419D01*
X161690756Y-102943397D01*
X161659087Y-102932352D01*
X161480029Y-102841117D01*
X161292826Y-102780290D01*
X161098422Y-102749500D01*
X161098417Y-102749500D01*
X160901583Y-102749500D01*
X160901578Y-102749500D01*
X160707173Y-102780290D01*
X160519970Y-102841117D01*
X160344594Y-102930476D01*
X160297301Y-102964837D01*
X160185354Y-103046172D01*
X160185352Y-103046174D01*
X160185350Y-103046175D01*
X160087325Y-103144199D01*
X160026002Y-103177683D01*
X159956310Y-103172698D01*
X159911964Y-103144198D01*
X159814321Y-103046555D01*
X159655143Y-102930904D01*
X159479835Y-102841581D01*
X159292705Y-102780778D01*
X159250000Y-102774014D01*
X159250000Y-104184314D01*
X159245606Y-104179920D01*
X159154394Y-104127259D01*
X159052661Y-104100000D01*
X158947339Y-104100000D01*
X158845606Y-104127259D01*
X158754394Y-104179920D01*
X158750000Y-104184314D01*
X158750000Y-102774014D01*
X158749999Y-102774014D01*
X158707294Y-102780778D01*
X158520164Y-102841581D01*
X158344855Y-102930905D01*
X158344848Y-102930910D01*
X158308684Y-102957184D01*
X158242877Y-102980663D01*
X158174824Y-102964837D01*
X158136534Y-102931177D01*
X158109267Y-102894753D01*
X158107546Y-102892454D01*
X158107544Y-102892453D01*
X158107544Y-102892452D01*
X157992335Y-102806206D01*
X157992328Y-102806202D01*
X157857482Y-102755908D01*
X157857483Y-102755908D01*
X157797883Y-102749501D01*
X157797881Y-102749500D01*
X157797873Y-102749500D01*
X157797864Y-102749500D01*
X156202129Y-102749500D01*
X156202123Y-102749501D01*
X156135443Y-102756669D01*
X156066683Y-102744262D01*
X156034509Y-102721060D01*
X155942654Y-102629205D01*
X155942649Y-102629201D01*
X155738848Y-102481132D01*
X155738847Y-102481131D01*
X155738845Y-102481130D01*
X155668747Y-102445413D01*
X155514383Y-102366760D01*
X155274785Y-102288910D01*
X155025962Y-102249500D01*
X154774038Y-102249500D01*
X154649626Y-102269205D01*
X154525214Y-102288910D01*
X154285616Y-102366760D01*
X154061151Y-102481132D01*
X153857350Y-102629201D01*
X153857345Y-102629205D01*
X153679205Y-102807345D01*
X153679201Y-102807350D01*
X153531132Y-103011151D01*
X153416760Y-103235616D01*
X153338910Y-103475214D01*
X153299500Y-103724038D01*
X133106600Y-103724038D01*
X132664780Y-102841392D01*
X132662870Y-102837399D01*
X132223555Y-101875433D01*
X132221788Y-101871375D01*
X131817070Y-100894301D01*
X131815449Y-100890182D01*
X131445841Y-99899226D01*
X131444395Y-99895124D01*
X131112404Y-98897648D01*
X169619500Y-98897648D01*
X169619500Y-99102351D01*
X169651522Y-99304534D01*
X169714781Y-99499223D01*
X169807715Y-99681613D01*
X169928028Y-99847213D01*
X170072786Y-99991971D01*
X170173976Y-100065488D01*
X170238390Y-100112287D01*
X170354607Y-100171503D01*
X170420776Y-100205218D01*
X170420778Y-100205218D01*
X170420781Y-100205220D01*
X170525137Y-100239127D01*
X170615465Y-100268477D01*
X170716557Y-100284488D01*
X170817648Y-100300500D01*
X170817649Y-100300500D01*
X171022351Y-100300500D01*
X171022352Y-100300500D01*
X171224534Y-100268477D01*
X171419219Y-100205220D01*
X171601610Y-100112287D01*
X171694590Y-100044732D01*
X171767213Y-99991971D01*
X171767215Y-99991968D01*
X171767219Y-99991966D01*
X171911966Y-99847219D01*
X171911968Y-99847215D01*
X171911971Y-99847213D01*
X172032284Y-99681614D01*
X172032285Y-99681613D01*
X172032287Y-99681610D01*
X172079516Y-99588917D01*
X172127489Y-99538123D01*
X172195310Y-99521328D01*
X172261445Y-99543865D01*
X172300485Y-99588919D01*
X172347715Y-99681614D01*
X172468028Y-99847213D01*
X172612786Y-99991971D01*
X172713976Y-100065488D01*
X172778390Y-100112287D01*
X172894607Y-100171503D01*
X172960776Y-100205218D01*
X172960778Y-100205218D01*
X172960781Y-100205220D01*
X173065137Y-100239127D01*
X173155465Y-100268477D01*
X173256557Y-100284488D01*
X173357648Y-100300500D01*
X173357649Y-100300500D01*
X173562351Y-100300500D01*
X173562352Y-100300500D01*
X173764534Y-100268477D01*
X173959219Y-100205220D01*
X174141610Y-100112287D01*
X174234590Y-100044732D01*
X174307213Y-99991971D01*
X174307215Y-99991968D01*
X174307219Y-99991966D01*
X174451966Y-99847219D01*
X174451968Y-99847215D01*
X174451971Y-99847213D01*
X174572284Y-99681614D01*
X174572285Y-99681613D01*
X174572287Y-99681610D01*
X174619516Y-99588917D01*
X174667489Y-99538123D01*
X174735310Y-99521328D01*
X174801445Y-99543865D01*
X174840485Y-99588919D01*
X174887715Y-99681614D01*
X175008028Y-99847213D01*
X175152786Y-99991971D01*
X175253976Y-100065488D01*
X175318390Y-100112287D01*
X175434607Y-100171503D01*
X175500776Y-100205218D01*
X175500778Y-100205218D01*
X175500781Y-100205220D01*
X175605137Y-100239127D01*
X175695465Y-100268477D01*
X175796557Y-100284488D01*
X175897648Y-100300500D01*
X175897649Y-100300500D01*
X176102351Y-100300500D01*
X176102352Y-100300500D01*
X176304534Y-100268477D01*
X176499219Y-100205220D01*
X176681610Y-100112287D01*
X176774590Y-100044732D01*
X176847213Y-99991971D01*
X176847215Y-99991968D01*
X176847219Y-99991966D01*
X176991966Y-99847219D01*
X176991968Y-99847215D01*
X176991971Y-99847213D01*
X177112284Y-99681614D01*
X177112285Y-99681613D01*
X177112287Y-99681610D01*
X177159516Y-99588917D01*
X177207489Y-99538123D01*
X177275310Y-99521328D01*
X177341445Y-99543865D01*
X177380485Y-99588919D01*
X177427715Y-99681614D01*
X177548028Y-99847213D01*
X177692786Y-99991971D01*
X177793976Y-100065488D01*
X177858390Y-100112287D01*
X177974607Y-100171503D01*
X178040776Y-100205218D01*
X178040778Y-100205218D01*
X178040781Y-100205220D01*
X178145137Y-100239127D01*
X178235465Y-100268477D01*
X178336557Y-100284488D01*
X178437648Y-100300500D01*
X178437649Y-100300500D01*
X178642351Y-100300500D01*
X178642352Y-100300500D01*
X178844534Y-100268477D01*
X179039219Y-100205220D01*
X179221610Y-100112287D01*
X179314590Y-100044732D01*
X179387213Y-99991971D01*
X179387215Y-99991968D01*
X179387219Y-99991966D01*
X179531966Y-99847219D01*
X179531968Y-99847215D01*
X179531971Y-99847213D01*
X179584732Y-99774590D01*
X179652287Y-99681610D01*
X179745220Y-99499219D01*
X179808477Y-99304534D01*
X179840500Y-99102352D01*
X179840500Y-98897648D01*
X179808477Y-98695466D01*
X179745220Y-98500781D01*
X179745218Y-98500778D01*
X179745218Y-98500776D01*
X179699515Y-98411080D01*
X179652287Y-98318390D01*
X179644556Y-98307749D01*
X179531971Y-98152786D01*
X179387213Y-98008028D01*
X179221613Y-97887715D01*
X179221612Y-97887714D01*
X179221610Y-97887713D01*
X179164653Y-97858691D01*
X179039223Y-97794781D01*
X178844534Y-97731522D01*
X178669995Y-97703878D01*
X178642352Y-97699500D01*
X178437648Y-97699500D01*
X178413329Y-97703351D01*
X178235465Y-97731522D01*
X178040776Y-97794781D01*
X177858386Y-97887715D01*
X177692786Y-98008028D01*
X177548028Y-98152786D01*
X177427715Y-98318386D01*
X177380485Y-98411080D01*
X177332510Y-98461876D01*
X177264689Y-98478671D01*
X177198554Y-98456134D01*
X177159515Y-98411080D01*
X177158883Y-98409840D01*
X177112287Y-98318390D01*
X177104556Y-98307749D01*
X176991971Y-98152786D01*
X176847213Y-98008028D01*
X176681613Y-97887715D01*
X176681612Y-97887714D01*
X176681610Y-97887713D01*
X176624653Y-97858691D01*
X176499223Y-97794781D01*
X176304534Y-97731522D01*
X176100584Y-97699220D01*
X176037449Y-97669291D01*
X176000518Y-97609979D01*
X176001516Y-97540117D01*
X176032301Y-97489066D01*
X176681963Y-96839404D01*
X177582952Y-95938416D01*
X177632186Y-95864729D01*
X177665084Y-95815495D01*
X177721658Y-95678913D01*
X177750500Y-95533918D01*
X177750500Y-92925416D01*
X177770185Y-92858377D01*
X177801613Y-92825099D01*
X177847219Y-92791966D01*
X177991966Y-92647219D01*
X177991968Y-92647215D01*
X177991971Y-92647213D01*
X178044732Y-92574590D01*
X178112287Y-92481610D01*
X178205220Y-92299219D01*
X178268477Y-92104534D01*
X178300500Y-91902352D01*
X178300500Y-91697648D01*
X178300500Y-91697647D01*
X178268477Y-91495465D01*
X178205218Y-91300776D01*
X178171503Y-91234607D01*
X178112287Y-91118390D01*
X178046191Y-91027416D01*
X177991968Y-90952783D01*
X177847213Y-90808028D01*
X177681613Y-90687715D01*
X177681612Y-90687714D01*
X177681610Y-90687713D01*
X177624653Y-90658691D01*
X177499223Y-90594781D01*
X177304534Y-90531522D01*
X177129995Y-90503878D01*
X177102352Y-90499500D01*
X176897648Y-90499500D01*
X176841971Y-90508318D01*
X176772678Y-90499363D01*
X176734893Y-90473526D01*
X176535819Y-90274451D01*
X176502334Y-90213128D01*
X176499500Y-90186770D01*
X176499500Y-85574950D01*
X176519185Y-85507911D01*
X176571989Y-85462156D01*
X176641147Y-85452212D01*
X176661820Y-85457020D01*
X176695575Y-85467988D01*
X176695581Y-85467989D01*
X176897683Y-85500000D01*
X177102317Y-85500000D01*
X177304417Y-85467990D01*
X177499031Y-85404755D01*
X177681349Y-85311859D01*
X177725921Y-85279474D01*
X177046447Y-84600000D01*
X177052661Y-84600000D01*
X177154394Y-84572741D01*
X177245606Y-84520080D01*
X177320080Y-84445606D01*
X177372741Y-84354394D01*
X177400000Y-84252661D01*
X177400000Y-84246448D01*
X178079474Y-84925922D01*
X178079474Y-84925921D01*
X178111859Y-84881349D01*
X178204755Y-84699031D01*
X178267990Y-84504417D01*
X178300000Y-84302317D01*
X178300000Y-84097682D01*
X178267990Y-83895582D01*
X178204755Y-83700968D01*
X178111859Y-83518650D01*
X178079474Y-83474077D01*
X178079474Y-83474076D01*
X177400000Y-84153551D01*
X177400000Y-84147339D01*
X177372741Y-84045606D01*
X177320080Y-83954394D01*
X177245606Y-83879920D01*
X177154394Y-83827259D01*
X177052661Y-83800000D01*
X177046446Y-83800000D01*
X177725922Y-83120524D01*
X177725921Y-83120523D01*
X177681359Y-83088147D01*
X177681350Y-83088141D01*
X177499031Y-82995244D01*
X177304417Y-82932009D01*
X177102317Y-82900000D01*
X176897683Y-82900000D01*
X176695581Y-82932010D01*
X176695574Y-82932011D01*
X176661817Y-82942980D01*
X176591976Y-82944975D01*
X176532144Y-82908894D01*
X176501316Y-82846193D01*
X176499500Y-82825049D01*
X176499500Y-79055513D01*
X179109500Y-79055513D01*
X179109500Y-79244486D01*
X179139059Y-79431118D01*
X179197454Y-79610836D01*
X179283240Y-79779199D01*
X179394310Y-79932073D01*
X179394312Y-79932075D01*
X179523181Y-80060944D01*
X179556666Y-80122267D01*
X179559500Y-80148625D01*
X179559500Y-83383918D01*
X179559500Y-83383920D01*
X179559499Y-83383920D01*
X179588340Y-83528907D01*
X179588343Y-83528917D01*
X179644914Y-83665492D01*
X179677812Y-83714727D01*
X179677813Y-83714730D01*
X179727046Y-83788414D01*
X179727052Y-83788421D01*
X184788181Y-88849549D01*
X184821666Y-88910872D01*
X184824500Y-88937230D01*
X184824500Y-89092513D01*
X184853445Y-89275265D01*
X184910619Y-89451232D01*
X184910620Y-89451235D01*
X184994622Y-89616096D01*
X185103379Y-89765787D01*
X185234213Y-89896621D01*
X185383904Y-90005378D01*
X185464763Y-90046577D01*
X185548764Y-90089379D01*
X185548767Y-90089380D01*
X185636750Y-90117967D01*
X185724736Y-90146555D01*
X185907486Y-90175500D01*
X185907487Y-90175500D01*
X186092513Y-90175500D01*
X186092514Y-90175500D01*
X186275264Y-90146555D01*
X186451235Y-90089379D01*
X186616096Y-90005378D01*
X186765787Y-89896621D01*
X186896621Y-89765787D01*
X187005378Y-89616096D01*
X187089379Y-89451235D01*
X187146555Y-89275264D01*
X187175500Y-89092514D01*
X187175500Y-88907486D01*
X187146555Y-88724736D01*
X187095708Y-88568243D01*
X187089380Y-88548767D01*
X187089379Y-88548764D01*
X187037970Y-88447870D01*
X187005378Y-88383904D01*
X186921159Y-88267987D01*
X186897680Y-88202183D01*
X186913505Y-88134129D01*
X186947167Y-88095836D01*
X187032190Y-88032186D01*
X187118350Y-87917093D01*
X187118354Y-87917086D01*
X187168596Y-87782379D01*
X187168598Y-87782372D01*
X187174999Y-87722844D01*
X187175000Y-87722827D01*
X187175000Y-87250000D01*
X186315686Y-87250000D01*
X186320080Y-87245606D01*
X186372741Y-87154394D01*
X186400000Y-87052661D01*
X186400000Y-86947339D01*
X186372741Y-86845606D01*
X186320080Y-86754394D01*
X186315686Y-86750000D01*
X187175000Y-86750000D01*
X187175000Y-86277172D01*
X187174999Y-86277155D01*
X187168598Y-86217627D01*
X187168596Y-86217620D01*
X187118354Y-86082913D01*
X187118350Y-86082906D01*
X187032190Y-85967812D01*
X187032187Y-85967809D01*
X186917093Y-85881649D01*
X186917086Y-85881645D01*
X186782379Y-85831403D01*
X186782372Y-85831401D01*
X186722844Y-85825000D01*
X186250000Y-85825000D01*
X186250000Y-86684314D01*
X186245606Y-86679920D01*
X186154394Y-86627259D01*
X186052661Y-86600000D01*
X185947339Y-86600000D01*
X185845606Y-86627259D01*
X185754394Y-86679920D01*
X185750000Y-86684314D01*
X185750000Y-85825000D01*
X185277155Y-85825000D01*
X185217627Y-85831401D01*
X185217620Y-85831403D01*
X185082913Y-85881645D01*
X185082906Y-85881649D01*
X184967812Y-85967809D01*
X184967809Y-85967812D01*
X184881649Y-86082906D01*
X184881645Y-86082913D01*
X184831403Y-86217620D01*
X184831401Y-86217627D01*
X184825000Y-86277155D01*
X184825000Y-86464270D01*
X184805315Y-86531309D01*
X184752511Y-86577064D01*
X184683353Y-86587008D01*
X184619797Y-86557983D01*
X184613319Y-86551951D01*
X181096819Y-83035451D01*
X181063334Y-82974128D01*
X181060500Y-82947770D01*
X181060500Y-80148625D01*
X181080185Y-80081586D01*
X181096819Y-80060944D01*
X181225690Y-79932073D01*
X181336760Y-79779199D01*
X181422547Y-79610832D01*
X181480940Y-79431118D01*
X181510500Y-79244486D01*
X181510500Y-79055513D01*
X181480940Y-78868881D01*
X181422545Y-78689163D01*
X181336759Y-78520800D01*
X181225690Y-78367927D01*
X181092073Y-78234310D01*
X180939199Y-78123240D01*
X180770836Y-78037454D01*
X180591118Y-77979059D01*
X180404486Y-77949500D01*
X180404481Y-77949500D01*
X180215519Y-77949500D01*
X180215514Y-77949500D01*
X180028881Y-77979059D01*
X179849163Y-78037454D01*
X179680800Y-78123240D01*
X179593579Y-78186610D01*
X179527927Y-78234310D01*
X179527925Y-78234312D01*
X179527924Y-78234312D01*
X179394312Y-78367924D01*
X179394312Y-78367925D01*
X179394310Y-78367927D01*
X179346610Y-78433579D01*
X179283240Y-78520800D01*
X179197454Y-78689163D01*
X179139059Y-78868881D01*
X179109500Y-79055513D01*
X176499500Y-79055513D01*
X176499500Y-76832882D01*
X179655669Y-76832882D01*
X179655670Y-76832883D01*
X179681059Y-76851329D01*
X179849362Y-76937085D01*
X180028997Y-76995451D01*
X180215553Y-77025000D01*
X180404447Y-77025000D01*
X180591002Y-76995451D01*
X180770637Y-76937085D01*
X180938937Y-76851331D01*
X180964328Y-76832883D01*
X180964328Y-76832882D01*
X180310001Y-76178554D01*
X180310000Y-76178554D01*
X179655669Y-76832882D01*
X176499500Y-76832882D01*
X176499500Y-75730552D01*
X179110000Y-75730552D01*
X179110000Y-75919447D01*
X179139548Y-76106002D01*
X179197914Y-76285637D01*
X179283666Y-76453933D01*
X179302116Y-76479328D01*
X179956446Y-75825000D01*
X179956446Y-75824999D01*
X179910369Y-75778922D01*
X179960000Y-75778922D01*
X179960000Y-75871078D01*
X179983852Y-75960095D01*
X180029930Y-76039905D01*
X180095095Y-76105070D01*
X180174905Y-76151148D01*
X180263922Y-76175000D01*
X180356078Y-76175000D01*
X180445095Y-76151148D01*
X180524905Y-76105070D01*
X180590070Y-76039905D01*
X180636148Y-75960095D01*
X180660000Y-75871078D01*
X180660000Y-75824999D01*
X180663554Y-75824999D01*
X180663554Y-75825000D01*
X181317882Y-76479328D01*
X181317883Y-76479328D01*
X181336331Y-76453937D01*
X181422085Y-76285637D01*
X181480451Y-76106002D01*
X181510000Y-75919447D01*
X181510000Y-75730552D01*
X181480451Y-75543997D01*
X181422085Y-75364362D01*
X181336329Y-75196059D01*
X181317883Y-75170670D01*
X181317882Y-75170669D01*
X180663554Y-75824999D01*
X180660000Y-75824999D01*
X180660000Y-75778922D01*
X180636148Y-75689905D01*
X180590070Y-75610095D01*
X180524905Y-75544930D01*
X180445095Y-75498852D01*
X180356078Y-75475000D01*
X180263922Y-75475000D01*
X180174905Y-75498852D01*
X180095095Y-75544930D01*
X180029930Y-75610095D01*
X179983852Y-75689905D01*
X179960000Y-75778922D01*
X179910369Y-75778922D01*
X179302116Y-75170669D01*
X179302116Y-75170670D01*
X179283669Y-75196060D01*
X179197914Y-75364362D01*
X179139548Y-75543997D01*
X179110000Y-75730552D01*
X176499500Y-75730552D01*
X176499500Y-75485079D01*
X176470659Y-75340092D01*
X176470658Y-75340091D01*
X176470658Y-75340087D01*
X176470656Y-75340082D01*
X176414087Y-75203511D01*
X176414080Y-75203498D01*
X176331952Y-75080585D01*
X176279875Y-75028508D01*
X176227416Y-74976049D01*
X176068483Y-74817116D01*
X179655669Y-74817116D01*
X180310000Y-75471446D01*
X180310001Y-75471446D01*
X180964328Y-74817116D01*
X180938933Y-74798666D01*
X180770637Y-74712914D01*
X180591002Y-74654548D01*
X180404447Y-74625000D01*
X180215553Y-74625000D01*
X180028997Y-74654548D01*
X179849362Y-74712914D01*
X179681060Y-74798669D01*
X179655670Y-74817116D01*
X179655669Y-74817116D01*
X176068483Y-74817116D01*
X173926819Y-72675452D01*
X173893334Y-72614129D01*
X173890500Y-72587771D01*
X173890500Y-72405513D01*
X179109500Y-72405513D01*
X179109500Y-72594486D01*
X179139059Y-72781118D01*
X179197454Y-72960836D01*
X179283240Y-73129199D01*
X179394310Y-73282073D01*
X179527927Y-73415690D01*
X179680801Y-73526760D01*
X179760347Y-73567290D01*
X179849163Y-73612545D01*
X179849165Y-73612545D01*
X179849168Y-73612547D01*
X179945497Y-73643846D01*
X180028881Y-73670940D01*
X180215514Y-73700500D01*
X180215519Y-73700500D01*
X180404486Y-73700500D01*
X180591118Y-73670940D01*
X180770832Y-73612547D01*
X180939199Y-73526760D01*
X181092073Y-73415690D01*
X181225690Y-73282073D01*
X181336760Y-73129199D01*
X181422547Y-72960832D01*
X181480940Y-72781118D01*
X181497676Y-72675452D01*
X181510500Y-72594486D01*
X181510500Y-72405513D01*
X181480940Y-72218881D01*
X181422545Y-72039163D01*
X181336759Y-71870800D01*
X181225690Y-71717927D01*
X181092073Y-71584310D01*
X180939199Y-71473240D01*
X180770836Y-71387454D01*
X180591118Y-71329059D01*
X180404486Y-71299500D01*
X180404481Y-71299500D01*
X180215519Y-71299500D01*
X180215514Y-71299500D01*
X180028881Y-71329059D01*
X179849163Y-71387454D01*
X179680800Y-71473240D01*
X179593579Y-71536610D01*
X179527927Y-71584310D01*
X179527925Y-71584312D01*
X179527924Y-71584312D01*
X179394312Y-71717924D01*
X179394312Y-71717925D01*
X179394310Y-71717927D01*
X179346610Y-71783579D01*
X179283240Y-71870800D01*
X179197454Y-72039163D01*
X179139059Y-72218881D01*
X179109500Y-72405513D01*
X173890500Y-72405513D01*
X173860940Y-72218881D01*
X173802545Y-72039163D01*
X173716759Y-71870800D01*
X173605690Y-71717927D01*
X173472073Y-71584310D01*
X173319199Y-71473240D01*
X173150836Y-71387454D01*
X172971118Y-71329059D01*
X172784486Y-71299500D01*
X172784481Y-71299500D01*
X172595519Y-71299500D01*
X172595514Y-71299500D01*
X172408881Y-71329059D01*
X172229163Y-71387454D01*
X172060800Y-71473240D01*
X171973579Y-71536610D01*
X171907927Y-71584310D01*
X171907925Y-71584312D01*
X171907924Y-71584312D01*
X171774312Y-71717924D01*
X171774312Y-71717925D01*
X171774310Y-71717927D01*
X171726610Y-71783579D01*
X171663240Y-71870800D01*
X171577454Y-72039163D01*
X171519059Y-72218881D01*
X171489500Y-72405513D01*
X171489500Y-72594486D01*
X171519059Y-72781118D01*
X171577454Y-72960836D01*
X171663240Y-73129199D01*
X171774310Y-73282073D01*
X171907927Y-73415690D01*
X172060801Y-73526760D01*
X172140347Y-73567290D01*
X172229163Y-73612545D01*
X172229165Y-73612545D01*
X172229168Y-73612547D01*
X172325497Y-73643846D01*
X172408881Y-73670940D01*
X172595514Y-73700500D01*
X172777771Y-73700500D01*
X172844810Y-73720185D01*
X172865452Y-73736819D01*
X174962181Y-75833548D01*
X174995666Y-75894871D01*
X174998500Y-75921229D01*
X174998500Y-90622918D01*
X174998500Y-90622920D01*
X174998499Y-90622920D01*
X175027340Y-90767907D01*
X175027343Y-90767917D01*
X175083913Y-90904490D01*
X175083914Y-90904492D01*
X175083915Y-90904494D01*
X175083916Y-90904495D01*
X175116180Y-90952781D01*
X175166048Y-91027416D01*
X175439413Y-91300781D01*
X175673526Y-91534893D01*
X175707011Y-91596216D01*
X175708318Y-91641971D01*
X175699500Y-91697647D01*
X175699500Y-91902351D01*
X175731522Y-92104534D01*
X175794781Y-92299223D01*
X175887715Y-92481613D01*
X176008028Y-92647213D01*
X176008034Y-92647219D01*
X176152781Y-92791966D01*
X176198384Y-92825098D01*
X176241050Y-92880425D01*
X176249500Y-92925416D01*
X176249500Y-95097769D01*
X176229815Y-95164808D01*
X176213181Y-95185450D01*
X173725104Y-97673526D01*
X173663781Y-97707011D01*
X173618025Y-97708318D01*
X173562352Y-97699500D01*
X173357648Y-97699500D01*
X173333329Y-97703351D01*
X173155465Y-97731522D01*
X172960776Y-97794781D01*
X172778386Y-97887715D01*
X172612786Y-98008028D01*
X172468028Y-98152786D01*
X172347715Y-98318386D01*
X172300485Y-98411080D01*
X172252510Y-98461876D01*
X172184689Y-98478671D01*
X172118554Y-98456134D01*
X172079515Y-98411080D01*
X172078883Y-98409840D01*
X172032287Y-98318390D01*
X172024556Y-98307749D01*
X171911971Y-98152786D01*
X171767213Y-98008028D01*
X171601613Y-97887715D01*
X171601612Y-97887714D01*
X171601610Y-97887713D01*
X171544653Y-97858691D01*
X171419223Y-97794781D01*
X171224534Y-97731522D01*
X171049995Y-97703878D01*
X171022352Y-97699500D01*
X170817648Y-97699500D01*
X170793329Y-97703351D01*
X170615465Y-97731522D01*
X170420776Y-97794781D01*
X170238386Y-97887715D01*
X170072786Y-98008028D01*
X169928028Y-98152786D01*
X169807715Y-98318386D01*
X169714781Y-98500776D01*
X169651522Y-98695465D01*
X169619500Y-98897648D01*
X131112404Y-98897648D01*
X131110413Y-98891666D01*
X131109090Y-98887442D01*
X130995554Y-98500776D01*
X130811126Y-97872672D01*
X130809969Y-97868455D01*
X130548416Y-96843700D01*
X130547401Y-96839404D01*
X130351402Y-95938412D01*
X130322597Y-95805996D01*
X130321737Y-95801675D01*
X130299588Y-95678913D01*
X130133956Y-94760876D01*
X130133251Y-94756519D01*
X129982745Y-93709726D01*
X129982193Y-93705334D01*
X129869136Y-92653747D01*
X129868751Y-92649441D01*
X129793301Y-91594527D01*
X129793065Y-91590111D01*
X129792688Y-91579569D01*
X129757517Y-90594780D01*
X129755318Y-90533210D01*
X129755239Y-90528784D01*
X129755239Y-89471215D01*
X129755318Y-89466789D01*
X129774243Y-88936902D01*
X129793065Y-88409882D01*
X129793302Y-88405468D01*
X129794844Y-88383904D01*
X129868752Y-87350553D01*
X129869135Y-87346257D01*
X129970639Y-86402135D01*
X131660414Y-86402135D01*
X131660414Y-88597870D01*
X131660415Y-88597876D01*
X131666822Y-88657483D01*
X131717116Y-88792328D01*
X131717120Y-88792335D01*
X131803366Y-88907544D01*
X131803369Y-88907547D01*
X131918578Y-88993793D01*
X131918585Y-88993797D01*
X132053431Y-89044091D01*
X132053430Y-89044091D01*
X132060358Y-89044835D01*
X132113041Y-89050500D01*
X134308786Y-89050499D01*
X134368397Y-89044091D01*
X134503245Y-88993796D01*
X134618460Y-88907546D01*
X134704710Y-88792331D01*
X134755005Y-88657483D01*
X134761414Y-88597873D01*
X134761413Y-87377973D01*
X151660414Y-87377973D01*
X151660414Y-87622026D01*
X151697067Y-87853445D01*
X151698593Y-87863076D01*
X151774010Y-88095185D01*
X151844752Y-88234025D01*
X151884810Y-88312642D01*
X152028253Y-88510076D01*
X152028257Y-88510081D01*
X152200832Y-88682656D01*
X152200837Y-88682660D01*
X152351793Y-88792335D01*
X152398275Y-88826106D01*
X152615729Y-88936904D01*
X152847838Y-89012321D01*
X153088887Y-89050500D01*
X153088888Y-89050500D01*
X153332940Y-89050500D01*
X153332941Y-89050500D01*
X153573990Y-89012321D01*
X153806099Y-88936904D01*
X154023553Y-88826106D01*
X154220997Y-88682655D01*
X154393569Y-88510083D01*
X154537020Y-88312639D01*
X154647818Y-88095185D01*
X154723235Y-87863076D01*
X154761414Y-87622027D01*
X154761414Y-87377973D01*
X154723235Y-87136924D01*
X154647818Y-86904815D01*
X154537020Y-86687361D01*
X154531614Y-86679920D01*
X154489309Y-86621691D01*
X154438774Y-86552135D01*
X164059500Y-86552135D01*
X164059500Y-88447870D01*
X164059501Y-88447876D01*
X164065908Y-88507483D01*
X164116202Y-88642328D01*
X164116206Y-88642335D01*
X164202452Y-88757544D01*
X164202455Y-88757547D01*
X164317664Y-88843793D01*
X164317671Y-88843797D01*
X164452517Y-88894091D01*
X164452516Y-88894091D01*
X164459444Y-88894835D01*
X164512127Y-88900500D01*
X166407872Y-88900499D01*
X166467483Y-88894091D01*
X166602331Y-88843796D01*
X166717546Y-88757546D01*
X166803796Y-88642331D01*
X166831429Y-88568243D01*
X166833601Y-88562420D01*
X166875471Y-88506486D01*
X166940936Y-88482068D01*
X167009209Y-88496919D01*
X167037464Y-88518071D01*
X167087636Y-88568243D01*
X167087641Y-88568247D01*
X167189603Y-88642326D01*
X167265978Y-88697815D01*
X167394375Y-88763237D01*
X167462393Y-88797895D01*
X167462396Y-88797896D01*
X167549220Y-88826106D01*
X167672049Y-88866015D01*
X167889778Y-88900500D01*
X167889779Y-88900500D01*
X168110221Y-88900500D01*
X168110222Y-88900500D01*
X168327951Y-88866015D01*
X168537606Y-88797895D01*
X168734022Y-88697815D01*
X168912365Y-88568242D01*
X169068242Y-88412365D01*
X169197815Y-88234022D01*
X169297895Y-88037606D01*
X169366015Y-87827951D01*
X169400500Y-87610222D01*
X169400500Y-87389778D01*
X169366015Y-87172049D01*
X169297895Y-86962394D01*
X169297895Y-86962393D01*
X169263237Y-86894375D01*
X169197815Y-86765978D01*
X169135291Y-86679920D01*
X169068247Y-86587641D01*
X169068243Y-86587636D01*
X168912363Y-86431756D01*
X168912358Y-86431752D01*
X168734025Y-86302187D01*
X168734024Y-86302186D01*
X168734022Y-86302185D01*
X168616791Y-86242452D01*
X168537606Y-86202104D01*
X168537603Y-86202103D01*
X168327952Y-86133985D01*
X168219086Y-86116742D01*
X168110222Y-86099500D01*
X167889778Y-86099500D01*
X167817201Y-86110995D01*
X167672047Y-86133985D01*
X167462396Y-86202103D01*
X167462393Y-86202104D01*
X167265974Y-86302187D01*
X167087641Y-86431752D01*
X167087636Y-86431756D01*
X167037463Y-86481929D01*
X166976140Y-86515413D01*
X166906448Y-86510428D01*
X166850515Y-86468557D01*
X166833601Y-86437580D01*
X166803797Y-86357671D01*
X166803793Y-86357664D01*
X166717547Y-86242455D01*
X166717544Y-86242452D01*
X166602335Y-86156206D01*
X166602328Y-86156202D01*
X166467482Y-86105908D01*
X166467483Y-86105908D01*
X166407883Y-86099501D01*
X166407881Y-86099500D01*
X166407873Y-86099500D01*
X166407865Y-86099500D01*
X166334500Y-86099500D01*
X166267461Y-86079815D01*
X166221706Y-86027011D01*
X166210500Y-85975500D01*
X166210500Y-83417229D01*
X166230185Y-83350190D01*
X166246814Y-83329553D01*
X170520853Y-79055513D01*
X171489500Y-79055513D01*
X171489500Y-79244486D01*
X171519059Y-79431118D01*
X171577454Y-79610836D01*
X171663240Y-79779199D01*
X171774310Y-79932073D01*
X171907927Y-80065690D01*
X172060801Y-80176760D01*
X172140347Y-80217290D01*
X172229163Y-80262545D01*
X172229165Y-80262545D01*
X172229168Y-80262547D01*
X172325497Y-80293846D01*
X172408881Y-80320940D01*
X172595514Y-80350500D01*
X172595519Y-80350500D01*
X172784486Y-80350500D01*
X172971118Y-80320940D01*
X173150832Y-80262547D01*
X173319199Y-80176760D01*
X173472073Y-80065690D01*
X173605690Y-79932073D01*
X173716760Y-79779199D01*
X173802547Y-79610832D01*
X173860940Y-79431118D01*
X173890500Y-79244486D01*
X173890500Y-79055513D01*
X173860940Y-78868881D01*
X173802545Y-78689163D01*
X173716759Y-78520800D01*
X173605690Y-78367927D01*
X173472073Y-78234310D01*
X173319199Y-78123240D01*
X173150836Y-78037454D01*
X172971118Y-77979059D01*
X172784486Y-77949500D01*
X172784481Y-77949500D01*
X172595519Y-77949500D01*
X172595514Y-77949500D01*
X172408881Y-77979059D01*
X172229163Y-78037454D01*
X172060800Y-78123240D01*
X171973579Y-78186610D01*
X171907927Y-78234310D01*
X171907925Y-78234312D01*
X171907924Y-78234312D01*
X171774312Y-78367924D01*
X171774312Y-78367925D01*
X171774310Y-78367927D01*
X171726610Y-78433579D01*
X171663240Y-78520800D01*
X171577454Y-78689163D01*
X171519059Y-78868881D01*
X171489500Y-79055513D01*
X170520853Y-79055513D01*
X172514548Y-77061818D01*
X172575871Y-77028334D01*
X172602229Y-77025500D01*
X172784486Y-77025500D01*
X172971118Y-76995940D01*
X172972623Y-76995451D01*
X173150832Y-76937547D01*
X173319199Y-76851760D01*
X173472073Y-76740690D01*
X173605690Y-76607073D01*
X173716760Y-76454199D01*
X173802547Y-76285832D01*
X173860940Y-76106118D01*
X173877676Y-76000450D01*
X173890500Y-75919486D01*
X173890500Y-75730513D01*
X173860940Y-75543881D01*
X173802545Y-75364163D01*
X173720685Y-75203505D01*
X173716760Y-75195801D01*
X173605690Y-75042927D01*
X173472073Y-74909310D01*
X173319199Y-74798240D01*
X173150836Y-74712454D01*
X172971118Y-74654059D01*
X172784486Y-74624500D01*
X172784481Y-74624500D01*
X172595519Y-74624500D01*
X172595514Y-74624500D01*
X172408881Y-74654059D01*
X172229163Y-74712454D01*
X172060800Y-74798240D01*
X171973579Y-74861610D01*
X171907927Y-74909310D01*
X171907925Y-74909312D01*
X171907924Y-74909312D01*
X171774312Y-75042924D01*
X171774312Y-75042925D01*
X171774310Y-75042927D01*
X171746950Y-75080585D01*
X171663240Y-75195800D01*
X171577454Y-75364163D01*
X171519059Y-75543881D01*
X171489500Y-75730513D01*
X171489500Y-75912769D01*
X171469815Y-75979808D01*
X171453181Y-76000450D01*
X164877052Y-82576578D01*
X164877046Y-82576585D01*
X164831390Y-82644915D01*
X164831391Y-82644916D01*
X164794913Y-82699508D01*
X164738343Y-82836082D01*
X164738340Y-82836092D01*
X164709500Y-82981079D01*
X164709500Y-85975500D01*
X164689815Y-86042539D01*
X164637011Y-86088294D01*
X164585502Y-86099500D01*
X164512130Y-86099500D01*
X164512123Y-86099501D01*
X164452516Y-86105908D01*
X164317671Y-86156202D01*
X164317664Y-86156206D01*
X164202455Y-86242452D01*
X164202452Y-86242455D01*
X164116206Y-86357664D01*
X164116202Y-86357671D01*
X164065908Y-86492517D01*
X164059501Y-86552116D01*
X164059500Y-86552135D01*
X154438774Y-86552135D01*
X154393574Y-86489923D01*
X154393570Y-86489918D01*
X154220995Y-86317343D01*
X154220990Y-86317339D01*
X154023556Y-86173896D01*
X154023555Y-86173895D01*
X154023553Y-86173894D01*
X153806099Y-86063096D01*
X153573990Y-85987679D01*
X153573988Y-85987678D01*
X153573986Y-85987678D01*
X153373405Y-85955909D01*
X153332941Y-85949500D01*
X153088887Y-85949500D01*
X153048429Y-85955908D01*
X152847841Y-85987678D01*
X152615726Y-86063097D01*
X152398271Y-86173896D01*
X152200837Y-86317339D01*
X152200832Y-86317343D01*
X152028257Y-86489918D01*
X152028253Y-86489923D01*
X151884810Y-86687357D01*
X151774011Y-86904812D01*
X151774010Y-86904814D01*
X151774010Y-86904815D01*
X151743082Y-87000000D01*
X151698592Y-87136927D01*
X151660414Y-87377973D01*
X134761413Y-87377973D01*
X134761413Y-86402128D01*
X134755005Y-86342517D01*
X134745616Y-86317345D01*
X134704711Y-86207671D01*
X134704707Y-86207664D01*
X134618461Y-86092455D01*
X134618458Y-86092452D01*
X134503249Y-86006206D01*
X134503242Y-86006202D01*
X134368396Y-85955908D01*
X134368397Y-85955908D01*
X134308797Y-85949501D01*
X134308795Y-85949500D01*
X134308787Y-85949500D01*
X134308778Y-85949500D01*
X132113043Y-85949500D01*
X132113037Y-85949501D01*
X132053430Y-85955908D01*
X131918585Y-86006202D01*
X131918578Y-86006206D01*
X131803369Y-86092452D01*
X131803366Y-86092455D01*
X131717120Y-86207664D01*
X131717116Y-86207671D01*
X131666822Y-86342517D01*
X131662196Y-86385551D01*
X131660415Y-86402123D01*
X131660414Y-86402135D01*
X129970639Y-86402135D01*
X129982196Y-86294640D01*
X129982745Y-86290273D01*
X129984632Y-86277155D01*
X130133254Y-85243457D01*
X130133959Y-85239110D01*
X130148165Y-85160374D01*
X130321743Y-84198293D01*
X130322594Y-84194014D01*
X130547406Y-83160570D01*
X130548419Y-83156287D01*
X130557547Y-83120524D01*
X130809972Y-82131530D01*
X130811121Y-82127341D01*
X131109094Y-81112543D01*
X131110413Y-81108333D01*
X131160017Y-80959297D01*
X131444401Y-80104858D01*
X131445834Y-80100791D01*
X131815464Y-79109778D01*
X131817054Y-79105736D01*
X132221791Y-78128617D01*
X132223555Y-78124566D01*
X132662870Y-77162600D01*
X132664780Y-77158606D01*
X132713228Y-77061819D01*
X133138190Y-76212851D01*
X133140234Y-76208947D01*
X133156830Y-76178554D01*
X133647079Y-75280729D01*
X133649244Y-75276926D01*
X134188928Y-74367337D01*
X134191208Y-74363647D01*
X134763015Y-73473898D01*
X134765450Y-73470255D01*
X134803335Y-73415690D01*
X135368648Y-72601483D01*
X135371152Y-72598010D01*
X136005012Y-71751273D01*
X136007664Y-71747859D01*
X136671304Y-70924332D01*
X136674114Y-70920970D01*
X137366696Y-70121687D01*
X137369649Y-70118401D01*
X137682840Y-69782010D01*
X138090333Y-69344331D01*
X138093352Y-69341203D01*
X138841203Y-68593352D01*
X138844331Y-68590333D01*
X139618407Y-67869643D01*
X139621694Y-67866691D01*
X140054295Y-67491840D01*
X140420970Y-67174114D01*
X140424332Y-67171304D01*
X141247859Y-66507664D01*
X141251273Y-66505012D01*
X142098010Y-65871152D01*
X142101483Y-65868648D01*
X142970267Y-65265441D01*
X142973898Y-65263015D01*
X143863647Y-64691208D01*
X143867337Y-64688928D01*
X144776926Y-64149244D01*
X144780729Y-64147079D01*
X145708965Y-63640224D01*
X145712851Y-63638190D01*
X146658610Y-63164777D01*
X146662600Y-63162870D01*
X147624566Y-62723555D01*
X147628624Y-62721788D01*
X147663087Y-62707513D01*
X148605736Y-62317054D01*
X148609778Y-62315464D01*
X149600791Y-61945834D01*
X149604858Y-61944401D01*
X150608346Y-61610408D01*
X150612543Y-61609094D01*
X151627341Y-61311121D01*
X151631530Y-61309972D01*
X152656312Y-61048413D01*
X152660570Y-61047406D01*
X153694014Y-60822594D01*
X153698293Y-60821743D01*
X154739132Y-60633955D01*
X154743457Y-60633254D01*
X155790298Y-60482741D01*
X155794640Y-60482196D01*
X156846257Y-60369135D01*
X156850553Y-60368752D01*
X157905475Y-60293301D01*
X157909882Y-60293065D01*
X158966789Y-60255317D01*
X158971215Y-60255239D01*
X160028785Y-60255239D01*
X160033210Y-60255317D01*
G37*
%TD.AperFunction*%
%TD*%
M02*
