<svg version="1.1" xmlns="http://www.w3.org/2000/svg" xmlns:xlink="http://www.w3.org/1999/xlink" stroke-linecap="round" stroke-linejoin="round" stroke-width="0" fill-rule="evenodd" width="54.514086000000006mm" height="35.62mm" viewBox="132160.914 -107420 54514.086 35620" id="Mj_CkRquNiRQPE7Bh9dY"><defs><circle cx="0" cy="0" r="700" id="Mj_CkRquNiRQPE7Bh9dY_pad-10"/><rect x="-750" y="-1250" width="1500" height="2500" rx="750" ry="750" id="Mj_CkRquNiRQPE7Bh9dY_pad-11"/><rect x="-750" y="-1250" width="1500" height="2500" id="Mj_CkRquNiRQPE7Bh9dY_pad-12"/><rect x="-1100" y="-1750" width="2200" height="3500" rx="1100" ry="1100" id="Mj_CkRquNiRQPE7Bh9dY_pad-13"/><circle cx="0" cy="0" r="800" id="Mj_CkRquNiRQPE7Bh9dY_pad-14"/><rect x="-1050" y="-1050" width="2100" height="2100" id="Mj_CkRquNiRQPE7Bh9dY_pad-15"/><circle cx="0" cy="0" r="1050" id="Mj_CkRquNiRQPE7Bh9dY_pad-16"/><g id="Mj_CkRquNiRQPE7Bh9dY_pad-17"><polygon points="550,-550 550,550 -550,550 -550,-550"/><circle cx="550" cy="-550" r="250"/><circle cx="550" cy="550" r="250"/><circle cx="-550" cy="550" r="250"/><circle cx="-550" cy="-550" r="250"/><polygon points="800,-550 800,550 300,550 300,-550"/><polygon points="550,300 -550,300 -550,800 550,800"/><polygon points="-300,550 -300,-550 -800,-550 -800,550"/><polygon points="-550,-800 550,-800 550,-300 -550,-300"/></g><rect x="-900" y="-900" width="1800" height="1800" id="Mj_CkRquNiRQPE7Bh9dY_pad-18"/><circle cx="0" cy="0" r="900" id="Mj_CkRquNiRQPE7Bh9dY_pad-19"/><rect x="-675" y="-675" width="1350" height="1350" id="Mj_CkRquNiRQPE7Bh9dY_pad-20"/><circle cx="0" cy="0" r="675" id="Mj_CkRquNiRQPE7Bh9dY_pad-21"/></defs><g transform="translate(0,-179220) scale(1,-1)" fill="currentColor" stroke="currentColor"><use xlink:href="#Mj_CkRquNiRQPE7Bh9dY_pad-10" x="180310" y="-72500"/><use xlink:href="#Mj_CkRquNiRQPE7Bh9dY_pad-10" x="172690" y="-72500"/><use xlink:href="#Mj_CkRquNiRQPE7Bh9dY_pad-11" x="161000" y="-104500"/><use xlink:href="#Mj_CkRquNiRQPE7Bh9dY_pad-11" x="159000" y="-104500"/><use xlink:href="#Mj_CkRquNiRQPE7Bh9dY_pad-12" x="157000" y="-104500"/><use xlink:href="#Mj_CkRquNiRQPE7Bh9dY_pad-13" x="163100" y="-104500"/><use xlink:href="#Mj_CkRquNiRQPE7Bh9dY_pad-13" x="154900" y="-104500"/><use xlink:href="#Mj_CkRquNiRQPE7Bh9dY_pad-14" x="177000" y="-91800"/><use xlink:href="#Mj_CkRquNiRQPE7Bh9dY_pad-14" x="177000" y="-84200"/><use xlink:href="#Mj_CkRquNiRQPE7Bh9dY_pad-15" x="133210.914" y="-87500"/><use xlink:href="#Mj_CkRquNiRQPE7Bh9dY_pad-16" x="153210.914" y="-87500"/><use xlink:href="#Mj_CkRquNiRQPE7Bh9dY_pad-10" x="172690" y="-79150"/><use xlink:href="#Mj_CkRquNiRQPE7Bh9dY_pad-10" x="180310" y="-79150"/><use xlink:href="#Mj_CkRquNiRQPE7Bh9dY_pad-17" x="170920" y="-106620"/><use xlink:href="#Mj_CkRquNiRQPE7Bh9dY_pad-14" x="173460" y="-106620"/><use xlink:href="#Mj_CkRquNiRQPE7Bh9dY_pad-14" x="176000" y="-106620"/><use xlink:href="#Mj_CkRquNiRQPE7Bh9dY_pad-14" x="178540" y="-106620"/><use xlink:href="#Mj_CkRquNiRQPE7Bh9dY_pad-14" x="178540" y="-99000"/><use xlink:href="#Mj_CkRquNiRQPE7Bh9dY_pad-14" x="176000" y="-99000"/><use xlink:href="#Mj_CkRquNiRQPE7Bh9dY_pad-14" x="173460" y="-99000"/><use xlink:href="#Mj_CkRquNiRQPE7Bh9dY_pad-14" x="170920" y="-99000"/><use xlink:href="#Mj_CkRquNiRQPE7Bh9dY_pad-10" x="172690" y="-75825"/><use xlink:href="#Mj_CkRquNiRQPE7Bh9dY_pad-10" x="180310" y="-75825"/><use xlink:href="#Mj_CkRquNiRQPE7Bh9dY_pad-18" x="165460" y="-87500"/><use xlink:href="#Mj_CkRquNiRQPE7Bh9dY_pad-19" x="168000" y="-87500"/><use xlink:href="#Mj_CkRquNiRQPE7Bh9dY_pad-20" x="186000" y="-87000"/><use xlink:href="#Mj_CkRquNiRQPE7Bh9dY_pad-21" x="186000" y="-89000"/></g></svg>