<svg version="1.1" xmlns="http://www.w3.org/2000/svg" xmlns:xlink="http://www.w3.org/1999/xlink" stroke-linecap="round" stroke-linejoin="round" stroke-width="0" fill-rule="evenodd" width="55.611228000000004mm" height="44.513551mm" viewBox="131820.914 -108529.819 55611.228 44513.551" id="TRS9Trm_BeDRP84tSMlj"><g transform="translate(0,-172546.087) scale(1,-1)" fill="currentColor" stroke="currentColor"><path d="M 176333.333 -70954.819 176000 -70478.628 M 175761.905 -70954.819 175761.905 -69954.819 176142.857 -69954.819 176238.095 -70002.438 176285.714 -70050.057 176333.333 -70145.295 176333.333 -70288.152 176285.714 -70383.39 176238.095 -70431.009 176142.857 -70478.628 175761.905 -70478.628 M 177285.714 -70954.819 176714.286 -70954.819 M 177000 -70954.819 177000 -69954.819 176904.762 -70097.676 176809.524 -70192.914 176714.286 -70240.533 M 157166.667 -108407.2 157309.524 -108454.819 157547.619 -108454.819 157642.857 -108407.2 157690.476 -108359.58 157738.095 -108264.342 157738.095 -108169.104 157690.476 -108073.866 157642.857 -108026.247 157547.619 -107978.628 157357.143 -107931.009 157261.905 -107883.39 157214.286 -107835.771 157166.667 -107740.533 157166.667 -107645.295 157214.286 -107550.057 157261.905 -107502.438 157357.143 -107454.819 157595.238 -107454.819 157738.095 -107502.438 M 158071.429 -107454.819 158309.524 -108454.819 158500 -107740.533 158690.476 -108454.819 158928.572 -107454.819 M 159261.905 -107550.057 159309.524 -107502.438 159404.762 -107454.819 159642.857 -107454.819 159738.095 -107502.438 159785.714 -107550.057 159833.333 -107645.295 159833.333 -107740.533 159785.714 -107883.39 159214.286 -108454.819 159833.333 -108454.819 M 172254.819 -88166.666 171778.628 -88499.999 M 172254.819 -88738.094 171254.819 -88738.094 171254.819 -88357.142 171302.438 -88261.904 171350.057 -88214.285 171445.295 -88166.666 171588.152 -88166.666 171683.39 -88214.285 171731.009 -88261.904 171778.628 -88357.142 171778.628 -88738.094 M 171588.152 -87309.523 172254.819 -87309.523 M 171207.2 -87547.618 171921.485 -87785.713 171921.485 -87166.666 M 132525.199 -80811.009 132668.056 -80858.628 132715.675 -80906.247 132763.294 -81001.485 132763.294 -81144.342 132715.675 -81239.58 132668.056 -81287.2 132572.818 -81334.819 132191.866 -81334.819 132191.866 -80334.819 132525.199 -80334.819 132620.437 -80382.438 132668.056 -80430.057 132715.675 -80525.295 132715.675 -80620.533 132668.056 -80715.771 132620.437 -80763.39 132525.199 -80811.009 132191.866 -80811.009 M 133049.009 -80334.819 133620.437 -80334.819 M 133334.723 -81334.819 133334.723 -80334.819 M 133906.152 -80430.057 133953.771 -80382.438 134049.009 -80334.819 134287.104 -80334.819 134382.342 -80382.438 134429.961 -80430.057 134477.58 -80525.295 134477.58 -80620.533 134429.961 -80763.39 133858.533 -81334.819 134477.58 -81334.819 M 182833.333 -79454.819 182500 -78978.628 M 182261.905 -79454.819 182261.905 -78454.819 182642.857 -78454.819 182738.095 -78502.438 182785.714 -78550.057 182833.333 -78645.295 182833.333 -78788.152 182785.714 -78883.39 182738.095 -78931.009 182642.857 -78978.628 182261.905 -78978.628 M 183166.667 -78454.819 183785.714 -78454.819 183452.381 -78835.771 183595.238 -78835.771 183690.476 -78883.39 183738.095 -78931.009 183785.714 -79026.247 183785.714 -79264.342 183738.095 -79359.58 183690.476 -79407.2 183595.238 -79454.819 183309.524 -79454.819 183214.286 -79407.2 183166.667 -79359.58 M 168044.819 -103571.904 168854.342 -103571.904 168949.58 -103524.285 168997.2 -103476.666 169044.819 -103381.428 169044.819 -103190.952 168997.2 -103095.714 168949.58 -103048.095 168854.342 -103000.476 168044.819 -103000.476 M 169044.819 -102000.476 169044.819 -102571.904 M 169044.819 -102286.19 168044.819 -102286.19 168187.676 -102381.428 168282.914 -102476.666 168330.533 -102571.904 M 182833.333 -76454.819 182500 -75978.628 M 182261.905 -76454.819 182261.905 -75454.819 182642.857 -75454.819 182738.095 -75502.438 182785.714 -75550.057 182833.333 -75645.295 182833.333 -75788.152 182785.714 -75883.39 182738.095 -75931.009 182642.857 -75978.628 182261.905 -75978.628 M 183214.286 -75550.057 183261.905 -75502.438 183357.143 -75454.819 183595.238 -75454.819 183690.476 -75502.438 183738.095 -75550.057 183785.714 -75645.295 183785.714 -75740.533 183738.095 -75883.39 183166.667 -76454.819 183785.714 -76454.819 M 165991.905 -83994.819 165991.905 -82994.819 166230 -82994.819 166372.857 -83042.438 166468.095 -83137.676 166515.714 -83232.914 166563.333 -83423.39 166563.333 -83566.247 166515.714 -83756.723 166468.095 -83851.961 166372.857 -83947.2 166230 -83994.819 165991.905 -83994.819 M 166944.286 -83090.057 166991.905 -83042.438 167087.143 -82994.819 167325.238 -82994.819 167420.476 -83042.438 167468.095 -83090.057 167515.714 -83185.295 167515.714 -83280.533 167468.095 -83423.39 166896.667 -83994.819 167515.714 -83994.819 M 184690.476 -84954.819 184690.476 -83954.819 185023.809 -84669.104 185357.142 -83954.819 185357.142 -84954.819 M 185833.333 -84954.819 185833.333 -83954.819 M 186404.761 -84954.819 185976.19 -84383.39 M 186404.761 -83954.819 185833.333 -84526.247 M 187357.142 -84954.819 186785.714 -84954.819 M 187071.428 -84954.819 187071.428 -83954.819 186976.19 -84097.676 186880.952 -84192.914 186785.714 -84240.533" fill="none" stroke-width="150"/><path d="M 165200.322 -70642.069 165224.035 -70656.839 165250.686 -70678.419 165250.686 -70999.965 165250.601 -71094.022 165250.237 -71168.124 165249.432 -71224.896 165248.021 -71266.96 165245.841 -71296.94 165242.729 -71317.459 165238.522 -71331.141 165233.056 -71340.608 165229.18 -71345.274 165197.742 -71365.767 165161.941 -71364.931 165130.581 -71347.456 165103.93 -71325.876 165103.93 -70678.419 165130.581 -70656.839 165156.302 -70641.141 165177.308 -70635.259 165200.322 -70642.069" fill="none" stroke-width="10"/><path d="M 165200.322 -70642.069 165224.035 -70656.839 165250.686 -70678.419 165250.686 -70999.965 165250.601 -71094.022 165250.237 -71168.124 165249.432 -71224.896 165248.021 -71266.96 165245.841 -71296.94 165242.729 -71317.459 165238.522 -71331.141 165233.056 -71340.608 165229.18 -71345.274 165197.742 -71365.767 165161.941 -71364.931 165130.581 -71347.456 165103.93 -71325.876 165103.93 -70678.419 165130.581 -70656.839 165156.302 -70641.141 165177.308 -70635.259 165200.322 -70642.069"/><path d="M 158087.886 -70657.837 158094.466 -70665.41 158099.629 -70675.179 158103.544 -70689.763 158106.384 -70711.777 158108.321 -70743.84 158109.525 -70788.567 158110.169 -70848.577 158110.424 -70926.486 158110.463 -71002.148 158110.394 -71095.994 158110.07 -71169.881 158109.322 -71226.424 158107.976 -71268.241 158105.862 -71297.949 158102.808 -71318.165 158098.642 -71331.506 158093.192 -71340.59 158087.886 -71346.459 158054.882 -71366.139 158019.717 -71364.373 157988.253 -71342.909 157981.024 -71334.529 157975.374 -71324.806 157971.109 -71311.053 157968.035 -71290.581 157965.956 -71260.704 157964.678 -71218.733 157964.007 -71161.981 157963.749 -71087.759 157963.708 -71003.729 157963.708 -70690.677 157991.417 -70662.968 158025.571 -70639.655 158058.702 -70638.815 158087.886 -70657.837" fill="none" stroke-width="10"/><path d="M 158087.886 -70657.837 158094.466 -70665.41 158099.629 -70675.179 158103.544 -70689.763 158106.384 -70711.777 158108.321 -70743.84 158109.525 -70788.567 158110.169 -70848.577 158110.424 -70926.486 158110.463 -71002.148 158110.394 -71095.994 158110.07 -71169.881 158109.322 -71226.424 158107.976 -71268.241 158105.862 -71297.949 158102.808 -71318.165 158098.642 -71331.506 158093.192 -71340.59 158087.886 -71346.459 158054.882 -71366.139 158019.717 -71364.373 157988.253 -71342.909 157981.024 -71334.529 157975.374 -71324.806 157971.109 -71311.053 157968.035 -71290.581 157965.956 -71260.704 157964.678 -71218.733 157964.007 -71161.981 157963.749 -71087.759 157963.708 -71003.729 157963.708 -70690.677 157991.417 -70662.968 158025.571 -70639.655 158058.702 -70638.815 158087.886 -70657.837"/><path d="M 158273.921 -64036.49 158377.027 -64072.238 158473.022 -64128.507 158558.753 -64205.288 158631.07 -64302.573 158663.555 -64363.892 158691.668 -64449.66 158705.295 -64548.677 158703.786 -64650.471 158687.031 -64742.714 158641.237 -64855.432 158574.832 -64953.207 158491.191 -65034.115 158393.688 -65096.232 158285.7 -65137.634 158170.601 -65156.397 158051.766 -65150.598 157993.189 -65138.206 157879.028 -65093.797 157777.635 -65026.033 157691.455 -64937.001 157622.934 -64828.791 157617.136 -64816.973 157597.096 -64772.628 157584.513 -64735.28 157577.681 -64695.88 157574.895 -64645.381 157574.432 -64590.433 157575.197 -64524.415 157578.648 -64476.689 157586.523 -64438.103 157600.557 -64399.506 157617.88 -64361.426 157682.495 -64253.328 157762.066 -64165.803 157853.44 -64098.841 157953.464 -64052.436 158058.988 -64026.581 158166.858 -64021.268 158273.921 -64036.49" fill="none" stroke-width="10"/><path d="M 158273.921 -64036.49 158377.027 -64072.238 158473.022 -64128.507 158558.753 -64205.288 158631.07 -64302.573 158663.555 -64363.892 158691.668 -64449.66 158705.295 -64548.677 158703.786 -64650.471 158687.031 -64742.714 158641.237 -64855.432 158574.832 -64953.207 158491.191 -65034.115 158393.688 -65096.232 158285.7 -65137.634 158170.601 -65156.397 158051.766 -65150.598 157993.189 -65138.206 157879.028 -65093.797 157777.635 -65026.033 157691.455 -64937.001 157622.934 -64828.791 157617.136 -64816.973 157597.096 -64772.628 157584.513 -64735.28 157577.681 -64695.88 157574.895 -64645.381 157574.432 -64590.433 157575.197 -64524.415 157578.648 -64476.689 157586.523 -64438.103 157600.557 -64399.506 157617.88 -64361.426 157682.495 -64253.328 157762.066 -64165.803 157853.44 -64098.841 157953.464 -64052.436 158058.988 -64026.581 158166.858 -64021.268 158273.921 -64036.49"/><path d="M 165974.773 -70635.355 166053.48 -70635.734 166114.571 -70636.525 166160.525 -70637.862 166193.822 -70639.875 166216.944 -70642.698 166232.37 -70646.461 166242.579 -70651.297 166247.521 -70655.014 166273.165 -70687.55 166276.267 -70721.33 166260.419 -70752.018 166250.056 -70764.281 166238.904 -70772.642 166222.743 -70777.849 166197.35 -70780.649 166158.506 -70781.788 166101.988 -70782.013 166090.888 -70782.014 165944.952 -70782.014 165944.952 -71052.948 165944.856 -71138.346 165944.419 -71204.056 165943.42 -71252.966 165941.636 -71287.965 165938.845 -71311.941 165934.825 -71327.785 165929.353 -71338.383 165922.374 -71346.459 165889.442 -71366.304 165855.062 -71364.74 165823.884 -71342.098 165821.594 -71339.292 165814.137 -71328.684 165808.455 -71316.273 165804.309 -71299.042 165801.458 -71273.976 165799.662 -71238.059 165798.68 -71188.275 165798.272 -71121.609 165798.197 -71045.781 165798.197 -70782.014 165658.835 -70782.014 165599.03 -70781.61 165557.626 -70780.032 165530.456 -70776.739 165513.354 -70771.184 165502.151 -70762.823 165500.791 -70761.37 165484.433 -70728.131 165485.88 -70690.554 165504.686 -70657.837 165511.958 -70651.49 165521.335 -70646.458 165535.317 -70642.588 165556.404 -70639.729 165587.097 -70637.727 165629.897 -70636.431 165687.303 -70635.69 165761.818 -70635.35 165855.941 -70635.26 165875.968 -70635.259 165974.773 -70635.355" fill="none" stroke-width="10"/><path d="M 165974.773 -70635.355 166053.48 -70635.734 166114.571 -70636.525 166160.525 -70637.862 166193.822 -70639.875 166216.944 -70642.698 166232.37 -70646.461 166242.579 -70651.297 166247.521 -70655.014 166273.165 -70687.55 166276.267 -70721.33 166260.419 -70752.018 166250.056 -70764.281 166238.904 -70772.642 166222.743 -70777.849 166197.35 -70780.649 166158.506 -70781.788 166101.988 -70782.013 166090.888 -70782.014 165944.952 -70782.014 165944.952 -71052.948 165944.856 -71138.346 165944.419 -71204.056 165943.42 -71252.966 165941.636 -71287.965 165938.845 -71311.941 165934.825 -71327.785 165929.353 -71338.383 165922.374 -71346.459 165889.442 -71366.304 165855.062 -71364.74 165823.884 -71342.098 165821.594 -71339.292 165814.137 -71328.684 165808.455 -71316.273 165804.309 -71299.042 165801.458 -71273.976 165799.662 -71238.059 165798.68 -71188.275 165798.272 -71121.609 165798.197 -71045.781 165798.197 -70782.014 165658.835 -70782.014 165599.03 -70781.61 165557.626 -70780.032 165530.456 -70776.739 165513.354 -70771.184 165502.151 -70762.823 165500.791 -70761.37 165484.433 -70728.131 165485.88 -70690.554 165504.686 -70657.837 165511.958 -70651.49 165521.335 -70646.458 165535.317 -70642.588 165556.404 -70639.729 165587.097 -70637.727 165629.897 -70636.431 165687.303 -70635.69 165761.818 -70635.35 165855.941 -70635.26 165875.968 -70635.259 165974.773 -70635.355"/><path d="M 167240.531 -70640.725 167271.91 -70662.968 167299.619 -70690.677 167299.619 -71000.112 167299.546 -71091.991 167299.203 -71164.032 167298.4 -71218.972 167296.949 -71259.552 167294.66 -71288.509 167291.344 -71308.583 167286.813 -71322.513 167280.877 -71333.037 167276.222 -71339.292 167245.491 -71363.865 167210.204 -71366.533 167177.953 -71351.463 167167.296 -71342.566 167160.172 -71330.749 167155.875 -71311.718 167153.699 -71281.184 167152.936 -71234.854 167152.863 -71199.063 167152.863 -71064.237 166656.152 -71064.237 166656.152 -71186.892 166655.639 -71242.979 166653.584 -71281.525 166649.216 -71307.553 166641.764 -71326.089 166632.755 -71339.292 166601.852 -71363.796 166566.904 -71366.698 166533.446 -71349.281 166524.312 -71340.151 166517.86 -71328.047 166513.605 -71309.193 166511.06 -71279.812 166509.737 -71236.129 166509.151 -71174.367 166509.083 -71160.192 166508.599 -71043.823 166508.349 -70947.919 166508.431 -70870.369 166508.939 -70809.061 166509.97 -70761.882 166511.621 -70726.722 166513.987 -70701.468 166517.165 -70684.009 166521.252 -70672.233 166526.342 -70664.027 166531.974 -70657.837 166563.836 -70638.036 166597.065 -70640.725 166628.443 -70662.968 166641.141 -70677.318 166649.234 -70693.17 166653.75 -70715.746 166655.714 -70750.27 166656.152 -70801.968 166656.152 -70917.481 167152.863 -70917.481 167152.863 -70798.948 167153.37 -70744.34 167155.406 -70707.467 167159.743 -70683.499 167167.155 -70667.607 167175.441 -70657.837 167207.302 -70638.036 167240.531 -70640.725" fill="none" stroke-width="10"/><path d="M 167240.531 -70640.725 167271.91 -70662.968 167299.619 -70690.677 167299.619 -71000.112 167299.546 -71091.991 167299.203 -71164.032 167298.4 -71218.972 167296.949 -71259.552 167294.66 -71288.509 167291.344 -71308.583 167286.813 -71322.513 167280.877 -71333.037 167276.222 -71339.292 167245.491 -71363.865 167210.204 -71366.533 167177.953 -71351.463 167167.296 -71342.566 167160.172 -71330.749 167155.875 -71311.718 167153.699 -71281.184 167152.936 -71234.854 167152.863 -71199.063 167152.863 -71064.237 166656.152 -71064.237 166656.152 -71186.892 166655.639 -71242.979 166653.584 -71281.525 166649.216 -71307.553 166641.764 -71326.089 166632.755 -71339.292 166601.852 -71363.796 166566.904 -71366.698 166533.446 -71349.281 166524.312 -71340.151 166517.86 -71328.047 166513.605 -71309.193 166511.06 -71279.812 166509.737 -71236.129 166509.151 -71174.367 166509.083 -71160.192 166508.599 -71043.823 166508.349 -70947.919 166508.431 -70870.369 166508.939 -70809.061 166509.97 -70761.882 166511.621 -70726.722 166513.987 -70701.468 166517.165 -70684.009 166521.252 -70672.233 166526.342 -70664.027 166531.974 -70657.837 166563.836 -70638.036 166597.065 -70640.725 166628.443 -70662.968 166641.141 -70677.318 166649.234 -70693.17 166653.75 -70715.746 166655.714 -70750.27 166656.152 -70801.968 166656.152 -70917.481 167152.863 -70917.481 167152.863 -70798.948 167153.37 -70744.34 167155.406 -70707.467 167159.743 -70683.499 167167.155 -70667.607 167175.441 -70657.837 167207.302 -70638.036 167240.531 -70640.725"/><path d="M 162030.017 -70635.467 162158.996 -70639.828 162268.699 -70653.053 162360.934 -70675.933 162437.51 -70709.262 162500.235 -70753.83 162550.92 -70810.428 162591.371 -70879.85 162592.167 -70881.543 162616.309 -70943.675 162624.911 -70998.701 162617.939 -71054.079 162595.362 -71117.265 162591.08 -71126.881 162561.88 -71183.158 162529.064 -71226.643 162486.71 -71263.609 162428.898 -71300.327 162425.539 -71302.244 162375.212 -71326.419 162318.329 -71344.474 162251.235 -71357.031 162170.273 -71364.714 162071.79 -71368.145 162036.994 -71368.443 161871.302 -71369.037 161847.905 -71339.292 161840.965 -71329.511 161835.55 -71318.089 161831.473 -71302.287 161828.545 -71279.367 161826.575 -71246.588 161825.933 -71222.281 161825.376 -71201.213 161824.758 -71140.503 161824.533 -71061.718 161824.508 -71000.112 161824.508 -70782.014 161982.552 -70782.014 161982.552 -71222.281 162076.434 -71222.281 162131.372 -71220.675 162187.768 -71216.447 162234.053 -71210.484 162236.847 -71209.982 162319.056 -71187.928 162382.822 -71154.792 162430.16 -71109.039 162463.09 -71049.131 162468.816 -71033.253 162474.429 -71008.525 162471.999 -70984.094 162460.175 -70951.592 162453.048 -70935.626 162429.708 -70893.198 162401.588 -70863.432 162370.648 -70842.703 162308.674 -70815.729 162229.359 -70796.19 162136.961 -70784.938 162070.041 -70782.462 161982.552 -70782.014 161824.508 -70782.014 161824.508 -70690.677 161852.217 -70662.968 161864.514 -70651.736 161877.811 -70644.045 161896.38 -70639.232 161924.494 -70636.638 161966.425 -70635.602 162026.445 -70635.462 162030.017 -70635.467" fill="none" stroke-width="10"/><path d="M 162030.017 -70635.467 162158.996 -70639.828 162268.699 -70653.053 162360.934 -70675.933 162437.51 -70709.262 162500.235 -70753.83 162550.92 -70810.428 162591.371 -70879.85 162592.167 -70881.543 162616.309 -70943.675 162624.911 -70998.701 162617.939 -71054.079 162595.362 -71117.265 162591.08 -71126.881 162561.88 -71183.158 162529.064 -71226.643 162486.71 -71263.609 162428.898 -71300.327 162425.539 -71302.244 162375.212 -71326.419 162318.329 -71344.474 162251.235 -71357.031 162170.273 -71364.714 162071.79 -71368.145 162036.994 -71368.443 161871.302 -71369.037 161847.905 -71339.292 161840.965 -71329.511 161835.55 -71318.089 161831.473 -71302.287 161828.545 -71279.367 161826.575 -71246.588 161825.933 -71222.281 161825.376 -71201.213 161824.758 -71140.503 161824.533 -71061.718 161824.508 -71000.112 161824.508 -70782.014 161982.552 -70782.014 161982.552 -71222.281 162076.434 -71222.281 162131.372 -71220.675 162187.768 -71216.447 162234.053 -71210.484 162236.847 -71209.982 162319.056 -71187.928 162382.822 -71154.792 162430.16 -71109.039 162463.09 -71049.131 162468.816 -71033.253 162474.429 -71008.525 162471.999 -70984.094 162460.175 -70951.592 162453.048 -70935.626 162429.708 -70893.198 162401.588 -70863.432 162370.648 -70842.703 162308.674 -70815.729 162229.359 -70796.19 162136.961 -70784.938 162070.041 -70782.462 161982.552 -70782.014 161824.508 -70782.014 161824.508 -70690.677 161852.217 -70662.968 161864.514 -70651.736 161877.811 -70644.045 161896.38 -70639.232 161924.494 -70636.638 161966.425 -70635.602 162026.445 -70635.462 162030.017 -70635.467"/><path d="M 154890.337 -70635.258 154929.819 -70635.659 155045.508 -70638.451 155142.397 -70646.742 155223.789 -70661.424 155292.985 -70683.385 155353.288 -70713.514 155408 -70752.702 155427.541 -70769.724 155459.958 -70809.555 155489.188 -70863.605 155511.717 -70923.515 155524.029 -70980.931 155525.308 -71002.148 155517.291 -71060.961 155495.809 -71125.205 155464.709 -71186.013 155427.842 -71234.522 155421.854 -71240.374 155371.129 -71281.513 155315.583 -71313.627 155252.012 -71337.557 155177.214 -71354.145 155087.986 -71364.233 154981.126 -71368.661 154932.18 -71369.037 154869.946 -71368.737 154826.18 -71367.484 154796.777 -71364.746 154777.629 -71359.993 154764.631 -71352.693 154757.663 -71346.459 154751.082 -71338.886 154745.92 -71329.116 154742.005 -71314.532 154739.165 -71292.518 154737.228 -71260.456 154736.2 -71222.281 154881.841 -71222.281 154974.974 -71222.196 155031.015 -71220.588 155089.709 -71216.448 155138.68 -71210.656 155140.17 -71210.418 155219.316 -71191.282 155280.706 -71161.479 155327.403 -71119.07 155357.073 -71073.153 155375.355 -71022.218 155373.937 -70974.392 155352.72 -70923.125 155311.219 -70870.091 155253.71 -70830.792 155178.958 -70804.523 155129 -70795.227 155072.292 -70788.699 155012.189 -70783.974 154961.069 -70782.009 154958.041 -70782 154881.841 -70782.014 154881.841 -71222.281 154736.2 -71222.281 154736.024 -71215.728 154735.38 -71155.718 154735.125 -71077.809 154735.086 -71002.148 154734.838 -70901.233 154734.891 -70820.619 154735.851 -70782.014 154736.448 -70758.043 154740.71 -70711.247 154748.878 -70677.97 154762.152 -70655.951 154781.734 -70642.931 154808.825 -70636.649 154844.626 -70634.845 154890.337 -70635.258" fill="none" stroke-width="10"/><path d="M 154890.337 -70635.258 154929.819 -70635.659 155045.508 -70638.451 155142.397 -70646.742 155223.789 -70661.424 155292.985 -70683.385 155353.288 -70713.514 155408 -70752.702 155427.541 -70769.724 155459.958 -70809.555 155489.188 -70863.605 155511.717 -70923.515 155524.029 -70980.931 155525.308 -71002.148 155517.291 -71060.961 155495.809 -71125.205 155464.709 -71186.013 155427.842 -71234.522 155421.854 -71240.374 155371.129 -71281.513 155315.583 -71313.627 155252.012 -71337.557 155177.214 -71354.145 155087.986 -71364.233 154981.126 -71368.661 154932.18 -71369.037 154869.946 -71368.737 154826.18 -71367.484 154796.777 -71364.746 154777.629 -71359.993 154764.631 -71352.693 154757.663 -71346.459 154751.082 -71338.886 154745.92 -71329.116 154742.005 -71314.532 154739.165 -71292.518 154737.228 -71260.456 154736.2 -71222.281 154881.841 -71222.281 154974.974 -71222.196 155031.015 -71220.588 155089.709 -71216.448 155138.68 -71210.656 155140.17 -71210.418 155219.316 -71191.282 155280.706 -71161.479 155327.403 -71119.07 155357.073 -71073.153 155375.355 -71022.218 155373.937 -70974.392 155352.72 -70923.125 155311.219 -70870.091 155253.71 -70830.792 155178.958 -70804.523 155129 -70795.227 155072.292 -70788.699 155012.189 -70783.974 154961.069 -70782.009 154958.041 -70782 154881.841 -70782.014 154881.841 -71222.281 154736.2 -71222.281 154736.024 -71215.728 154735.38 -71155.718 154735.125 -71077.809 154735.086 -71002.148 154734.838 -70901.233 154734.891 -70820.619 154735.851 -70782.014 154736.448 -70758.043 154740.71 -70711.247 154748.878 -70677.97 154762.152 -70655.951 154781.734 -70642.931 154808.825 -70636.649 154844.626 -70634.845 154890.337 -70635.258"/><path d="M 159711.594 -70639.64 159735.16 -70653.465 159765.973 -70676.073 159805.63 -70708.53 159855.728 -70751.9 159917.865 -70807.25 159993.636 -70875.643 160080.374 -70954.276 160260.997 -71118.07 160266.641 -70898.221 160268.679 -70822.543 160270.645 -70766.186 160272.974 -70725.898 160276.102 -70698.427 160280.463 -70680.521 160286.492 -70668.929 160294.624 -70660.4 160298.936 -70656.815 160333.467 -70637.862 160366.325 -70640.633 160392.39 -70656.825 160419.041 -70678.391 160422.356 -70993.343 160423.273 -71085.971 160423.74 -71158.736 160423.595 -71214.353 160422.676 -71255.534 160420.821 -71284.995 160417.869 -71305.447 160413.658 -71319.605 160408.026 -71330.183 160401.781 -71338.666 160388.269 -71354.399 160374.825 -71364.828 160359.584 -71368.831 160340.682 -71365.286 160316.253 -71353.071 160284.435 -71331.063 160243.36 -71298.141 160191.166 -71253.183 160125.986 -71195.067 160052.152 -71128.291 159786.863 -70887.65 159781.219 -71106.781 159779.177 -71182.32 159777.206 -71238.546 159774.869 -71278.716 159771.727 -71306.088 159767.344 -71323.92 159761.284 -71335.471 159753.108 -71343.999 159748.924 -71347.474 159711.943 -71366.564 159677 -71363.685 159646.572 -71339.292 159639.611 -71329.478 159634.185 -71318.018 159630.105 -71302.16 159627.179 -71279.155 159625.216 -71246.254 159624.025 -71200.708 159623.416 -71139.765 159623.197 -71060.678 159623.174 -71002.148 159623.248 -70910.599 159623.595 -70838.879 159624.407 -70784.237 159625.875 -70743.924 159628.189 -70715.19 159631.541 -70695.285 159636.12 -70681.46 159642.119 -70670.964 159646.572 -70665.003 159657.858 -70650.883 159668.407 -70640.221 159679.815 -70634.084 159693.678 -70633.535 159711.594 -70639.64" fill="none" stroke-width="10"/><path d="M 159711.594 -70639.64 159735.16 -70653.465 159765.973 -70676.073 159805.63 -70708.53 159855.728 -70751.9 159917.865 -70807.25 159993.636 -70875.643 160080.374 -70954.276 160260.997 -71118.07 160266.641 -70898.221 160268.679 -70822.543 160270.645 -70766.186 160272.974 -70725.898 160276.102 -70698.427 160280.463 -70680.521 160286.492 -70668.929 160294.624 -70660.4 160298.936 -70656.815 160333.467 -70637.862 160366.325 -70640.633 160392.39 -70656.825 160419.041 -70678.391 160422.356 -70993.343 160423.273 -71085.971 160423.74 -71158.736 160423.595 -71214.353 160422.676 -71255.534 160420.821 -71284.995 160417.869 -71305.447 160413.658 -71319.605 160408.026 -71330.183 160401.781 -71338.666 160388.269 -71354.399 160374.825 -71364.828 160359.584 -71368.831 160340.682 -71365.286 160316.253 -71353.071 160284.435 -71331.063 160243.36 -71298.141 160191.166 -71253.183 160125.986 -71195.067 160052.152 -71128.291 159786.863 -70887.65 159781.219 -71106.781 159779.177 -71182.32 159777.206 -71238.546 159774.869 -71278.716 159771.727 -71306.088 159767.344 -71323.92 159761.284 -71335.471 159753.108 -71343.999 159748.924 -71347.474 159711.943 -71366.564 159677 -71363.685 159646.572 -71339.292 159639.611 -71329.478 159634.185 -71318.018 159630.105 -71302.16 159627.179 -71279.155 159625.216 -71246.254 159624.025 -71200.708 159623.416 -71139.765 159623.197 -71060.678 159623.174 -71002.148 159623.248 -70910.599 159623.595 -70838.879 159624.407 -70784.237 159625.875 -70743.924 159628.189 -70715.19 159631.541 -70695.285 159636.12 -70681.46 159642.119 -70670.964 159646.572 -70665.003 159657.858 -70650.883 159668.407 -70640.221 159679.815 -70634.084 159693.678 -70633.535 159711.594 -70639.64"/><path d="M 159061.627 -70640.791 159130.143 -70652.287 159182.765 -70670.159 159217 -70693.691 159226.329 -70707.116 159235.815 -70738.34 159229.431 -70766.587 159209.278 -70793.374 159177.963 -70805.905 159132.525 -70804.888 159097.382 -70798.098 159019.289 -70785.163 158939.482 -70783.934 158850.153 -70794.433 158825.479 -70798.882 158742.417 -70822.3 158677.435 -70857.137 158631.247 -70902.796 158604.563 -70958.686 158599.045 -70987.58 158602.657 -71046.204 158625.979 -71098.071 158666.884 -71142.17 158723.249 -71177.491 158792.948 -71203.021 158873.856 -71217.751 158963.848 -71220.67 159060.798 -71210.767 159066.272 -71209.833 159104.833 -71202.651 159126.214 -71195.713 159135.481 -71185.419 159137.702 -71168.168 159137.752 -71159.033 159137.752 -71120.681 159069.277 -71120.681 159008.808 -71116.539 158967.543 -71103.339 158943.533 -71079.922 158934.831 -71045.128 158934.725 -71040.586 158939.816 -71010.846 158957.275 -70989.611 158989.769 -70975.558 159039.965 -70967.365 159088.585 -70964.353 159159.252 -70962.625 159210.51 -70965.262 159245.469 -70974.992 159267.238 -70994.545 159278.928 -71026.648 159283.648 -71074.03 159284.508 -71136.263 159283.099 -71205.727 159278.86 -71252.978 159271.772 -71278.204 159270.397 -71280.18 159231.48 -71311.7 159174.422 -71336.662 159102.839 -71354.532 159020.35 -71364.778 158930.569 -71366.865 158837.116 -71360.26 158782.152 -71352.148 158695.942 -71327.746 158615.816 -71287.854 158548.731 -71236.079 158538.535 -71225.731 158505.406 -71182.227 158475.514 -71128.31 158452.351 -71071.784 158439.41 -71020.451 158437.85 -71000.736 158444.49 -70959.611 158462.14 -70908.444 158487.411 -70854.586 158516.919 -70805.387 158542.989 -70772.526 158603.943 -70723.644 158682.739 -70684.737 158776.551 -70656.686 158882.558 -70640.371 158979.708 -70636.384 159061.627 -70640.791" fill="none" stroke-width="10"/><path d="M 159061.627 -70640.791 159130.143 -70652.287 159182.765 -70670.159 159217 -70693.691 159226.329 -70707.116 159235.815 -70738.34 159229.431 -70766.587 159209.278 -70793.374 159177.963 -70805.905 159132.525 -70804.888 159097.382 -70798.098 159019.289 -70785.163 158939.482 -70783.934 158850.153 -70794.433 158825.479 -70798.882 158742.417 -70822.3 158677.435 -70857.137 158631.247 -70902.796 158604.563 -70958.686 158599.045 -70987.58 158602.657 -71046.204 158625.979 -71098.071 158666.884 -71142.17 158723.249 -71177.491 158792.948 -71203.021 158873.856 -71217.751 158963.848 -71220.67 159060.798 -71210.767 159066.272 -71209.833 159104.833 -71202.651 159126.214 -71195.713 159135.481 -71185.419 159137.702 -71168.168 159137.752 -71159.033 159137.752 -71120.681 159069.277 -71120.681 159008.808 -71116.539 158967.543 -71103.339 158943.533 -71079.922 158934.831 -71045.128 158934.725 -71040.586 158939.816 -71010.846 158957.275 -70989.611 158989.769 -70975.558 159039.965 -70967.365 159088.585 -70964.353 159159.252 -70962.625 159210.51 -70965.262 159245.469 -70974.992 159267.238 -70994.545 159278.928 -71026.648 159283.648 -71074.03 159284.508 -71136.263 159283.099 -71205.727 159278.86 -71252.978 159271.772 -71278.204 159270.397 -71280.18 159231.48 -71311.7 159174.422 -71336.662 159102.839 -71354.532 159020.35 -71364.778 158930.569 -71366.865 158837.116 -71360.26 158782.152 -71352.148 158695.942 -71327.746 158615.816 -71287.854 158548.731 -71236.079 158538.535 -71225.731 158505.406 -71182.227 158475.514 -71128.31 158452.351 -71071.784 158439.41 -71020.451 158437.85 -71000.736 158444.49 -70959.611 158462.14 -70908.444 158487.411 -70854.586 158516.919 -70805.387 158542.989 -70772.526 158603.943 -70723.644 158682.739 -70684.737 158776.551 -70656.686 158882.558 -70640.371 158979.708 -70636.384 159061.627 -70640.791"/><path d="M 161242.051 -70635.452 161318.409 -70636.366 161376.925 -70638.503 161419.963 -70642.367 161449.891 -70648.459 161469.076 -70657.282 161479.884 -70669.338 161484.681 -70685.131 161485.835 -70705.162 161485.841 -70707.527 161484.839 -70730.184 161480.104 -70747.695 161469.041 -70760.766 161449.056 -70770.105 161417.554 -70776.419 161371.94 -70780.414 161309.621 -70782.798 161228.001 -70784.278 161202.985 -70784.606 160960.908 -70787.659 160957.522 -70852.57 160954.137 -70917.481 161122.284 -70917.481 161187.974 -70917.723 161234.88 -70918.748 161266.791 -70921.003 161287.499 -70924.934 161300.792 -70930.99 161310.463 -70939.616 161310.525 -70939.685 161328.064 -70973.304 161327.43 -71009.64 161309.022 -71040.615 161305.379 -71043.799 161292.449 -71052.004 161274.732 -71057.713 161248.278 -71061.354 161209.14 -71063.359 161153.37 -71064.156 161117.702 -71064.237 160955.263 -71064.237 160955.263 -71222.281 161201.869 -71222.281 161283.288 -71222.423 161345.118 -71223.006 161390.345 -71224.26 161421.956 -71226.419 161442.939 -71229.715 161456.281 -71234.381 161464.969 -71240.649 161467.158 -71242.925 161483.322 -71274.472 161484.505 -71310.36 161471.244 -71341.477 161460.751 -71351.463 161449.837 -71356.961 161432.925 -71361.214 161407.341 -71364.372 161370.409 -71366.584 161319.454 -71367.998 161251.802 -71368.764 161164.777 -71369.03 161145.102 -71369.037 161056.619 -71368.979 160987.935 -71368.659 160936.272 -71367.859 160898.853 -71366.359 160872.898 -71363.941 160855.63 -71360.386 160844.27 -71355.474 160836.04 -71348.987 160831.525 -71344.33 160824.729 -71336.081 160819.42 -71325.861 160815.414 -71310.992 160812.529 -71288.794 160810.582 -71256.585 160809.389 -71211.688 160808.769 -71151.42 160808.537 -71073.103 160808.508 -71007.186 160808.579 -70914.82 160808.916 -70842.309 160809.706 -70786.929 160811.134 -70745.957 160813.387 -70716.67 160816.651 -70696.345 160821.112 -70682.258 160826.956 -70671.687 160831.905 -70665.003 160855.302 -70635.259 161145.482 -70635.259 161242.051 -70635.452" fill="none" stroke-width="10"/><path d="M 161242.051 -70635.452 161318.409 -70636.366 161376.925 -70638.503 161419.963 -70642.367 161449.891 -70648.459 161469.076 -70657.282 161479.884 -70669.338 161484.681 -70685.131 161485.835 -70705.162 161485.841 -70707.527 161484.839 -70730.184 161480.104 -70747.695 161469.041 -70760.766 161449.056 -70770.105 161417.554 -70776.419 161371.94 -70780.414 161309.621 -70782.798 161228.001 -70784.278 161202.985 -70784.606 160960.908 -70787.659 160957.522 -70852.57 160954.137 -70917.481 161122.284 -70917.481 161187.974 -70917.723 161234.88 -70918.748 161266.791 -70921.003 161287.499 -70924.934 161300.792 -70930.99 161310.463 -70939.616 161310.525 -70939.685 161328.064 -70973.304 161327.43 -71009.64 161309.022 -71040.615 161305.379 -71043.799 161292.449 -71052.004 161274.732 -71057.713 161248.278 -71061.354 161209.14 -71063.359 161153.37 -71064.156 161117.702 -71064.237 160955.263 -71064.237 160955.263 -71222.281 161201.869 -71222.281 161283.288 -71222.423 161345.118 -71223.006 161390.345 -71224.26 161421.956 -71226.419 161442.939 -71229.715 161456.281 -71234.381 161464.969 -71240.649 161467.158 -71242.925 161483.322 -71274.472 161484.505 -71310.36 161471.244 -71341.477 161460.751 -71351.463 161449.837 -71356.961 161432.925 -71361.214 161407.341 -71364.372 161370.409 -71366.584 161319.454 -71367.998 161251.802 -71368.764 161164.777 -71369.03 161145.102 -71369.037 161056.619 -71368.979 160987.935 -71368.659 160936.272 -71367.859 160898.853 -71366.359 160872.898 -71363.941 160855.63 -71360.386 160844.27 -71355.474 160836.04 -71348.987 160831.525 -71344.33 160824.729 -71336.081 160819.42 -71325.861 160815.414 -71310.992 160812.529 -71288.794 160810.582 -71256.585 160809.389 -71211.688 160808.769 -71151.42 160808.537 -71073.103 160808.508 -71007.186 160808.579 -70914.82 160808.916 -70842.309 160809.706 -70786.929 160811.134 -70745.957 160813.387 -70716.67 160816.651 -70696.345 160821.112 -70682.258 160826.956 -70671.687 160831.905 -70665.003 160855.302 -70635.259 161145.482 -70635.259 161242.051 -70635.452"/><path d="M 156298.914 -70635.338 156368.322 -70635.71 156420.711 -70636.577 156458.861 -70638.138 156485.549 -70640.595 156503.555 -70644.149 156515.659 -70649.002 156524.639 -70655.353 156527.89 -70658.276 156547.665 -70689.334 156551.226 -70725.02 156538.217 -70756.702 156532.202 -70763.105 156522.473 -70769.313 156506.807 -70774.102 156482.3 -70777.706 156446.047 -70780.356 156395.143 -70782.287 156326.682 -70783.731 156264.091 -70784.61 156016.374 -70787.659 156012.989 -70852.57 156009.603 -70917.481 156177.75 -70917.481 156250.749 -70918.111 156304.191 -70920.745 156341.08 -70926.501 156364.42 -70936.496 156377.214 -70951.848 156382.466 -70973.674 156383.263 -70993.93 156380.785 -71018.784 156371.431 -71037.098 156352.325 -71049.829 156320.59 -71057.933 156273.349 -71062.368 156207.725 -71064.091 156171.907 -71064.237 156010.73 -71064.237 156010.73 -71222.281 156259.086 -71222.281 156340.495 -71222.394 156402.366 -71222.904 156447.74 -71224.062 156479.654 -71226.122 156501.149 -71229.338 156515.265 -71233.964 156525.04 -71240.251 156530.019 -71244.859 156547.098 -71271.752 156552.597 -71295.659 156544.745 -71324.859 156530.019 -71346.459 156522.162 -71353.258 156512.02 -71358.538 156496.864 -71362.49 156473.967 -71365.305 156440.599 -71367.174 156394.033 -71368.29 156331.541 -71368.843 156250.394 -71369.025 156208.286 -71369.037 156118.11 -71368.957 156047.784 -71368.59 155994.579 -71367.744 155955.768 -71366.228 155928.621 -71363.851 155910.41 -71360.421 155898.408 -71355.746 155889.886 -71349.636 155886.552 -71346.459 155879.953 -71338.862 155874.781 -71329.062 155870.862 -71314.431 155868.024 -71292.344 155866.093 -71260.174 155864.896 -71215.295 155864.26 -71155.081 155864.011 -71076.905 155863.974 -71004.115 155864.008 -70910.899 155864.243 -70837.623 155864.878 -70781.65 155866.114 -70740.343 155868.152 -70711.064 155871.191 -70691.176 155875.431 -70678.042 155881.073 -70669.024 155888.317 -70661.485 155890.102 -70659.804 155898.763 -70652.364 155908.826 -70646.601 155923.083 -70642.304 155944.325 -70639.256 155975.344 -70637.243 156018.931 -70636.052 156077.877 -70635.467 156154.974 -70635.275 156209.707 -70635.259 156298.914 -70635.338" fill="none" stroke-width="10"/><path d="M 156298.914 -70635.338 156368.322 -70635.71 156420.711 -70636.577 156458.861 -70638.138 156485.549 -70640.595 156503.555 -70644.149 156515.659 -70649.002 156524.639 -70655.353 156527.89 -70658.276 156547.665 -70689.334 156551.226 -70725.02 156538.217 -70756.702 156532.202 -70763.105 156522.473 -70769.313 156506.807 -70774.102 156482.3 -70777.706 156446.047 -70780.356 156395.143 -70782.287 156326.682 -70783.731 156264.091 -70784.61 156016.374 -70787.659 156012.989 -70852.57 156009.603 -70917.481 156177.75 -70917.481 156250.749 -70918.111 156304.191 -70920.745 156341.08 -70926.501 156364.42 -70936.496 156377.214 -70951.848 156382.466 -70973.674 156383.263 -70993.93 156380.785 -71018.784 156371.431 -71037.098 156352.325 -71049.829 156320.59 -71057.933 156273.349 -71062.368 156207.725 -71064.091 156171.907 -71064.237 156010.73 -71064.237 156010.73 -71222.281 156259.086 -71222.281 156340.495 -71222.394 156402.366 -71222.904 156447.74 -71224.062 156479.654 -71226.122 156501.149 -71229.338 156515.265 -71233.964 156525.04 -71240.251 156530.019 -71244.859 156547.098 -71271.752 156552.597 -71295.659 156544.745 -71324.859 156530.019 -71346.459 156522.162 -71353.258 156512.02 -71358.538 156496.864 -71362.49 156473.967 -71365.305 156440.599 -71367.174 156394.033 -71368.29 156331.541 -71368.843 156250.394 -71369.025 156208.286 -71369.037 156118.11 -71368.957 156047.784 -71368.59 155994.579 -71367.744 155955.768 -71366.228 155928.621 -71363.851 155910.41 -71360.421 155898.408 -71355.746 155889.886 -71349.636 155886.552 -71346.459 155879.953 -71338.862 155874.781 -71329.062 155870.862 -71314.431 155868.024 -71292.344 155866.093 -71260.174 155864.896 -71215.295 155864.26 -71155.081 155864.011 -71076.905 155863.974 -71004.115 155864.008 -70910.899 155864.243 -70837.623 155864.878 -70781.65 155866.114 -70740.343 155868.152 -70711.064 155871.191 -70691.176 155875.431 -70678.042 155881.073 -70669.024 155888.317 -70661.485 155890.102 -70659.804 155898.763 -70652.364 155908.826 -70646.601 155923.083 -70642.304 155944.325 -70639.256 155975.344 -70637.243 156018.931 -70636.052 156077.877 -70635.467 156154.974 -70635.275 156209.707 -70635.259 156298.914 -70635.338"/><path d="M 164756.373 -70637.226 164775.963 -70644.227 164776.718 -70644.569 164803.321 -70664.87 164817.978 -70685.753 164820.846 -70695.544 164820.704 -70708.553 164816.669 -70727.087 164807.854 -70753.449 164793.377 -70789.944 164772.353 -70838.879 164743.896 -70902.557 164707.123 -70983.285 164686.883 -71027.408 164650.333 -71106.177 164616.023 -71178.615 164585.26 -71242.072 164559.356 -71293.9 164539.618 -71331.451 164527.358 -71352.076 164524.932 -71354.925 164493.891 -71367.494 164458.829 -71365.811 164430.708 -71350.524 164429.562 -71349.281 164418.376 -71332.346 164399.612 -71299.362 164375.583 -71254.572 164348.605 -71202.224 164338.909 -71182.934 164265.722 -71036.342 164185.948 -71195.585 164157.475 -71250.607 164131.058 -71298.324 164108.856 -71335.085 164093.027 -71357.236 164087.662 -71361.933 164045.965 -71368.294 164011.557 -71354.925 164001.436 -71340.638 163983.922 -71308.884 163960.443 -71262.789 163932.428 -71205.477 163901.307 -71140.072 163868.507 -71069.699 163835.458 -70997.483 163803.589 -70926.547 163774.327 -70860.017 163749.103 -70801.018 163729.344 -70752.673 163716.48 -70718.107 163711.939 -70700.445 163711.985 -70699.805 163723.034 -70677.58 163745.118 -70654.945 163746.418 -70653.96 163773.561 -70638.617 163798.666 -70638.766 163808.076 -70641.658 163819.542 -70647.91 163831.718 -70660.206 163846.065 -70681.1 163864.044 -70713.141 163887.115 -70758.88 163916.738 -70820.869 163943.453 -70878.09 163974.188 -70944.418 164001.729 -71004.066 164024.646 -71053.917 164041.506 -71090.856 164050.881 -71111.765 164052.248 -71115.037 164058.397 -71109.689 164072.53 -71087.301 164092.765 -71051.138 164117.223 -71004.469 164126.956 -70985.214 164159.925 -70920.196 164185.351 -70872.846 164205.32 -70840.411 164221.918 -70820.138 164237.232 -70809.274 164253.348 -70805.067 164263.851 -70804.592 164282.378 -70806.234 164298.612 -70813.023 164314.743 -70827.758 164332.959 -70853.236 164355.447 -70892.253 164384.397 -70947.606 164400.37 -70979.095 164426.278 -71029.279 164448.875 -71070.896 164466.166 -71100.434 164476.158 -71114.381 164477.517 -71114.962 164483.969 -71103.985 164498.416 -71075.482 164519.411 -71032.436 164545.505 -70977.83 164575.254 -70914.646 164589.888 -70883.263 164627.958 -70802.27 164658.613 -70739.948 164683.445 -70694.263 164704.045 -70663.181 164722.006 -70644.67 164738.918 -70636.696 164756.373 -70637.226" fill="none" stroke-width="10"/><path d="M 164756.373 -70637.226 164775.963 -70644.227 164776.718 -70644.569 164803.321 -70664.87 164817.978 -70685.753 164820.846 -70695.544 164820.704 -70708.553 164816.669 -70727.087 164807.854 -70753.449 164793.377 -70789.944 164772.353 -70838.879 164743.896 -70902.557 164707.123 -70983.285 164686.883 -71027.408 164650.333 -71106.177 164616.023 -71178.615 164585.26 -71242.072 164559.356 -71293.9 164539.618 -71331.451 164527.358 -71352.076 164524.932 -71354.925 164493.891 -71367.494 164458.829 -71365.811 164430.708 -71350.524 164429.562 -71349.281 164418.376 -71332.346 164399.612 -71299.362 164375.583 -71254.572 164348.605 -71202.224 164338.909 -71182.934 164265.722 -71036.342 164185.948 -71195.585 164157.475 -71250.607 164131.058 -71298.324 164108.856 -71335.085 164093.027 -71357.236 164087.662 -71361.933 164045.965 -71368.294 164011.557 -71354.925 164001.436 -71340.638 163983.922 -71308.884 163960.443 -71262.789 163932.428 -71205.477 163901.307 -71140.072 163868.507 -71069.699 163835.458 -70997.483 163803.589 -70926.547 163774.327 -70860.017 163749.103 -70801.018 163729.344 -70752.673 163716.48 -70718.107 163711.939 -70700.445 163711.985 -70699.805 163723.034 -70677.58 163745.118 -70654.945 163746.418 -70653.96 163773.561 -70638.617 163798.666 -70638.766 163808.076 -70641.658 163819.542 -70647.91 163831.718 -70660.206 163846.065 -70681.1 163864.044 -70713.141 163887.115 -70758.88 163916.738 -70820.869 163943.453 -70878.09 163974.188 -70944.418 164001.729 -71004.066 164024.646 -71053.917 164041.506 -71090.856 164050.881 -71111.765 164052.248 -71115.037 164058.397 -71109.689 164072.53 -71087.301 164092.765 -71051.138 164117.223 -71004.469 164126.956 -70985.214 164159.925 -70920.196 164185.351 -70872.846 164205.32 -70840.411 164221.918 -70820.138 164237.232 -70809.274 164253.348 -70805.067 164263.851 -70804.592 164282.378 -70806.234 164298.612 -70813.023 164314.743 -70827.758 164332.959 -70853.236 164355.447 -70892.253 164384.397 -70947.606 164400.37 -70979.095 164426.278 -71029.279 164448.875 -71070.896 164466.166 -71100.434 164476.158 -71114.381 164477.517 -71114.962 164483.969 -71103.985 164498.416 -71075.482 164519.411 -71032.436 164545.505 -70977.83 164575.254 -70914.646 164589.888 -70883.263 164627.958 -70802.27 164658.613 -70739.948 164683.445 -70694.263 164704.045 -70663.181 164722.006 -70644.67 164738.918 -70636.696 164756.373 -70637.226"/><path d="M 157320.005 -70636.543 157394.82 -70641.773 157464.402 -70649.942 157524.706 -70660.742 157571.688 -70673.865 157601.302 -70689.005 157605.848 -70693.461 157621.654 -70728.042 157616.861 -70763.543 157592.344 -70793.917 157591.174 -70794.788 157576.754 -70804.146 157561.7 -70809.068 157540.703 -70809.665 157508.451 -70806.053 157459.635 -70798.346 157455.708 -70797.697 157382.969 -70788.761 157304.491 -70784.353 157225.781 -70784.311 157152.347 -70788.471 157089.697 -70796.671 157043.338 -70808.749 157040.292 -70809.963 157006.66 -70828.807 156994.844 -70847.877 157004.094 -70866.631 157033.661 -70884.529 157082.797 -70901.029 157150.751 -70915.588 157196.063 -70922.598 157290.252 -70936.081 157365.164 -70948.406 157423.991 -70960.641 157469.923 -70973.853 157506.153 -70989.109 157535.87 -71007.477 157562.266 -71030.023 157583.478 -71052.163 157608.643 -71083.011 157621.027 -71109.537 157624.9 -71142.218 157625.041 -71154.187 157622.132 -71193.904 157610.506 -71223.451 157590.385 -71249.678 157549.492 -71289.768 157503.891 -71320.341 157450.195 -71342.395 157385.016 -71356.927 157304.964 -71364.933 157206.651 -71367.41 157190.419 -71367.369 157124.859 -71366.01 157059.842 -71362.922 157002.456 -71358.548 156959.786 -71353.332 156956.336 -71352.733 156913.912 -71342.683 156877.928 -71329.988 156857.558 -71318.382 156838.601 -71287.764 156837.281 -71252.11 156853.623 -71220.336 156857.279 -71216.743 156872.393 -71206.068 156891.293 -71201.468 156920.546 -71202.251 156956.057 -71206.319 156995.738 -71209.954 157051.363 -71213.02 157116.302 -71215.245 157183.923 -71216.356 157201.708 -71216.429 157269.58 -71216.156 157319.254 -71214.838 157355.098 -71212.019 157381.484 -71207.242 157402.782 -71200.049 157415.582 -71194.059 157443.708 -71177.425 157461.64 -71162.36 157464.261 -71158.089 157458.732 -71140.455 157432.448 -71123.384 157387.23 -71107.65 157324.9 -71094.03 157306.537 -71090.996 157210.618 -71075.93 157134.067 -71063.338 157073.928 -71052.303 157027.248 -71041.912 156991.071 -71031.248 156962.443 -71019.397 156938.41 -71005.443 156916.016 -70988.473 156892.306 -70967.57 156884.328 -70960.241 156856.355 -70932.891 156841.548 -70911.221 156835.756 -70886.424 156834.819 -70855.175 156845.133 -70793.897 156875.956 -70741.832 156927.113 -70699.15 156998.425 -70666.017 157049.308 -70651.156 157104.608 -70641.558 157170.855 -70636.128 157244.002 -70634.559 157320.005 -70636.543" fill="none" stroke-width="10"/><path d="M 157320.005 -70636.543 157394.82 -70641.773 157464.402 -70649.942 157524.706 -70660.742 157571.688 -70673.865 157601.302 -70689.005 157605.848 -70693.461 157621.654 -70728.042 157616.861 -70763.543 157592.344 -70793.917 157591.174 -70794.788 157576.754 -70804.146 157561.7 -70809.068 157540.703 -70809.665 157508.451 -70806.053 157459.635 -70798.346 157455.708 -70797.697 157382.969 -70788.761 157304.491 -70784.353 157225.781 -70784.311 157152.347 -70788.471 157089.697 -70796.671 157043.338 -70808.749 157040.292 -70809.963 157006.66 -70828.807 156994.844 -70847.877 157004.094 -70866.631 157033.661 -70884.529 157082.797 -70901.029 157150.751 -70915.588 157196.063 -70922.598 157290.252 -70936.081 157365.164 -70948.406 157423.991 -70960.641 157469.923 -70973.853 157506.153 -70989.109 157535.87 -71007.477 157562.266 -71030.023 157583.478 -71052.163 157608.643 -71083.011 157621.027 -71109.537 157624.9 -71142.218 157625.041 -71154.187 157622.132 -71193.904 157610.506 -71223.451 157590.385 -71249.678 157549.492 -71289.768 157503.891 -71320.341 157450.195 -71342.395 157385.016 -71356.927 157304.964 -71364.933 157206.651 -71367.41 157190.419 -71367.369 157124.859 -71366.01 157059.842 -71362.922 157002.456 -71358.548 156959.786 -71353.332 156956.336 -71352.733 156913.912 -71342.683 156877.928 -71329.988 156857.558 -71318.382 156838.601 -71287.764 156837.281 -71252.11 156853.623 -71220.336 156857.279 -71216.743 156872.393 -71206.068 156891.293 -71201.468 156920.546 -71202.251 156956.057 -71206.319 156995.738 -71209.954 157051.363 -71213.02 157116.302 -71215.245 157183.923 -71216.356 157201.708 -71216.429 157269.58 -71216.156 157319.254 -71214.838 157355.098 -71212.019 157381.484 -71207.242 157402.782 -71200.049 157415.582 -71194.059 157443.708 -71177.425 157461.64 -71162.36 157464.261 -71158.089 157458.732 -71140.455 157432.448 -71123.384 157387.23 -71107.65 157324.9 -71094.03 157306.537 -71090.996 157210.618 -71075.93 157134.067 -71063.338 157073.928 -71052.303 157027.248 -71041.912 156991.071 -71031.248 156962.443 -71019.397 156938.41 -71005.443 156916.016 -70988.473 156892.306 -70967.57 156884.328 -70960.241 156856.355 -70932.891 156841.548 -70911.221 156835.756 -70886.424 156834.819 -70855.175 156845.133 -70793.897 156875.956 -70741.832 156927.113 -70699.15 156998.425 -70666.017 157049.308 -70651.156 157104.608 -70641.558 157170.855 -70636.128 157244.002 -70634.559 157320.005 -70636.543"/><path d="M 161439.962 -65160.499 161588.014 -65176.707 161731.452 -65205.718 161876.11 -65249.045 162027.824 -65308.201 162192.428 -65384.7 162222.071 -65399.517 162290.098 -65433.031 162354.256 -65463.208 162408.215 -65487.166 162445.64 -65502.024 162451.389 -65503.895 162506.486 -65520.402 162259.851 -65879.201 162199.552 -65966.893 162144.422 -66047.012 162096.336 -66116.836 162057.168 -66173.647 162028.794 -66214.723 162013.087 -66237.346 162010.536 -66240.928 162000.171 -66233.438 161974.66 -66210.918 161938.563 -66177.461 161918.642 -66158.55 161805.773 -66068.778 161679.014 -66000.561 161569.783 -65963.195 161504.214 -65951.46 161422.116 -65944.308 161333.144 -65941.874 161246.956 -65944.288 161173.205 -65951.683 161143.776 -65957.347 161011.133 -66002.982 160891.606 -66072.663 160785.283 -66166.26 160692.253 -66283.649 160612.605 -66424.7 160546.426 -66589.286 160493.806 -66777.28 160462.533 -66938.217 160454.374 -67009.263 160448.815 -67101.046 160445.802 -67206.968 160445.281 -67320.434 160447.2 -67434.849 160451.503 -67543.617 160458.137 -67640.143 160467.049 -67717.831 160468.979 -67729.817 160511.499 -67922.892 160569.433 -68093.773 160643.133 -68243.224 160732.951 -68372.011 160796.707 -68441.639 160911.286 -68536.173 161036.942 -68606.246 161171.557 -68651.477 161313.011 -68671.484 161459.183 -68665.885 161607.955 -68634.3 161695.911 -68603.394 161817.629 -68541.506 161943.08 -68452.729 162013.353 -68392.694 162052.811 -68357.947 162083.812 -68332.454 162101.458 -68320.17 162103.648 -68319.795 162111.524 -68332.347 162131.932 -68365.516 162163.132 -68416.458 162203.386 -68482.331 162250.957 -68560.289 162304.104 -68647.49 162333.687 -68696.067 162559.648 -69067.215 162277.527 -69206.639 162175.522 -69256.719 162092.889 -69296.21 162024.578 -69327.073 161965.537 -69351.268 161910.714 -69370.758 161855.06 -69387.503 161793.523 -69403.465 161734.54 -69417.482 161682.115 -69428.329 161627.288 -69436.526 161564.572 -69442.528 161488.477 -69446.79 161393.516 -69449.767 161329.513 -69451.052 161238.192 -69451.93 161150.627 -69451.487 161072.612 -69449.852 161009.942 -69447.149 160968.413 -69443.505 160965.952 -69443.142 160750.303 -69396.487 160547.793 -69325.729 160358.495 -69230.914 160182.479 -69112.089 160019.816 -68969.3 159870.578 -68802.594 159762.496 -68654.433 159647.434 -68460.502 159554.423 -68255.699 159483.013 -68038.383 159432.756 -67806.912 159403.201 -67559.643 159393.889 -67308.559 159401.548 -67065.67 159425.613 -66841.57 159466.852 -66632.477 159526.027 -66434.613 159603.904 -66244.196 159613.203 -66224.468 159715.648 -66040.059 159841.472 -65864.576 159987.112 -65701.65 160149.001 -65554.914 160323.576 -65428.001 160486.244 -65334.905 160650.573 -65261.991 160815.251 -65209.174 160986.652 -65175.015 161171.153 -65158.078 161281.459 -65155.58 161439.962 -65160.499" fill="none" stroke-width="10"/><path d="M 161439.962 -65160.499 161588.014 -65176.707 161731.452 -65205.718 161876.11 -65249.045 162027.824 -65308.201 162192.428 -65384.7 162222.071 -65399.517 162290.098 -65433.031 162354.256 -65463.208 162408.215 -65487.166 162445.64 -65502.024 162451.389 -65503.895 162506.486 -65520.402 162259.851 -65879.201 162199.552 -65966.893 162144.422 -66047.012 162096.336 -66116.836 162057.168 -66173.647 162028.794 -66214.723 162013.087 -66237.346 162010.536 -66240.928 162000.171 -66233.438 161974.66 -66210.918 161938.563 -66177.461 161918.642 -66158.55 161805.773 -66068.778 161679.014 -66000.561 161569.783 -65963.195 161504.214 -65951.46 161422.116 -65944.308 161333.144 -65941.874 161246.956 -65944.288 161173.205 -65951.683 161143.776 -65957.347 161011.133 -66002.982 160891.606 -66072.663 160785.283 -66166.26 160692.253 -66283.649 160612.605 -66424.7 160546.426 -66589.286 160493.806 -66777.28 160462.533 -66938.217 160454.374 -67009.263 160448.815 -67101.046 160445.802 -67206.968 160445.281 -67320.434 160447.2 -67434.849 160451.503 -67543.617 160458.137 -67640.143 160467.049 -67717.831 160468.979 -67729.817 160511.499 -67922.892 160569.433 -68093.773 160643.133 -68243.224 160732.951 -68372.011 160796.707 -68441.639 160911.286 -68536.173 161036.942 -68606.246 161171.557 -68651.477 161313.011 -68671.484 161459.183 -68665.885 161607.955 -68634.3 161695.911 -68603.394 161817.629 -68541.506 161943.08 -68452.729 162013.353 -68392.694 162052.811 -68357.947 162083.812 -68332.454 162101.458 -68320.17 162103.648 -68319.795 162111.524 -68332.347 162131.932 -68365.516 162163.132 -68416.458 162203.386 -68482.331 162250.957 -68560.289 162304.104 -68647.49 162333.687 -68696.067 162559.648 -69067.215 162277.527 -69206.639 162175.522 -69256.719 162092.889 -69296.21 162024.578 -69327.073 161965.537 -69351.268 161910.714 -69370.758 161855.06 -69387.503 161793.523 -69403.465 161734.54 -69417.482 161682.115 -69428.329 161627.288 -69436.526 161564.572 -69442.528 161488.477 -69446.79 161393.516 -69449.767 161329.513 -69451.052 161238.192 -69451.93 161150.627 -69451.487 161072.612 -69449.852 161009.942 -69447.149 160968.413 -69443.505 160965.952 -69443.142 160750.303 -69396.487 160547.793 -69325.729 160358.495 -69230.914 160182.479 -69112.089 160019.816 -68969.3 159870.578 -68802.594 159762.496 -68654.433 159647.434 -68460.502 159554.423 -68255.699 159483.013 -68038.383 159432.756 -67806.912 159403.201 -67559.643 159393.889 -67308.559 159401.548 -67065.67 159425.613 -66841.57 159466.852 -66632.477 159526.027 -66434.613 159603.904 -66244.196 159613.203 -66224.468 159715.648 -66040.059 159841.472 -65864.576 159987.112 -65701.65 160149.001 -65554.914 160323.576 -65428.001 160486.244 -65334.905 160650.573 -65261.991 160815.251 -65209.174 160986.652 -65175.015 161171.153 -65158.078 161281.459 -65155.58 161439.962 -65160.499"/><path d="M 167842.27 -64956.825 167959.041 -64957.304 167998.729 -64957.545 168544.486 -64961.135 168551.351 -67054.919 168552.258 -67338.842 168553.062 -67596.64 168553.815 -67829.646 168554.569 -68039.194 168555.375 -68226.618 168556.285 -68393.25 168557.351 -68540.425 168558.624 -68669.477 168560.156 -68781.739 168561.998 -68878.544 168564.203 -68961.226 168566.822 -69031.119 168569.906 -69089.557 168573.508 -69137.872 168577.678 -69177.4 168582.469 -69209.473 168587.931 -69235.424 168594.118 -69256.589 168601.08 -69274.299 168608.869 -69289.889 168617.537 -69304.693 168627.135 -69320.044 168637.715 -69337.276 168639.884 -69340.946 168676.268 -69403.031 168150.431 -69399.434 167624.594 -69395.838 167617.729 -69280.331 167613.992 -69224.899 167610.097 -69192.851 167604.811 -69180.135 167596.903 -69182.696 167590.27 -69190.024 167561.374 -69216.714 167514.279 -69251.021 167455.62 -69288.846 167392.031 -69326.09 167330.149 -69358.653 167282.634 -69380.077 167171.316 -69415.283 167043.596 -69440.222 166908.901 -69453.941 166776.663 -69455.486 166656.308 -69443.906 166654.326 -69443.574 166489.641 -69402.25 166335.479 -69336.412 166193.328 -69247.474 166064.675 -69136.852 165951.007 -69005.961 165853.81 -68856.216 165774.572 -68689.033 165731.43 -68565.19 165702.979 -68461.581 165681.88 -68361.252 165667.488 -68258.109 165659.158 -68146.057 165656.245 -68019.001 165657.535 -67915.252 166670.65 -67915.252 166675.444 -68089.222 166690.568 -68238.895 166716.485 -68365.597 166753.663 -68470.658 166802.565 -68555.406 166863.658 -68621.169 166934.177 -68667.659 166970.871 -68685.014 167002.696 -68695.419 167038.177 -68700.179 167085.841 -68700.601 167137.189 -68698.748 167238.169 -68689.841 167318.035 -68672.398 167343.135 -68663.661 167400.448 -68637.857 167460.897 -68605.453 167487.297 -68589.233 167555.946 -68544.205 167555.946 -67116.982 167480.432 -67071.718 167375.121 -67020.572 167267.525 -66990.324 167161.581 -66980.795 167061.224 -66991.807 166970.387 -67023.181 166893.007 -67074.74 166868.039 -67099.488 166807.856 -67180.577 166759.145 -67278.734 166721.499 -67395.643 166694.512 -67532.985 166677.775 -67692.444 166670.883 -67875.7 166670.65 -67915.252 165657.535 -67915.252 165658.073 -67872.067 165669.647 -67646.053 165692.92 -67442.192 165728.504 -67257.513 165777.013 -67089.048 165839.06 -66933.826 165861.201 -66887.808 165950.385 -66737.739 166058.159 -66604.377 166181.99 -66489.877 166319.342 -66396.389 166467.683 -66326.068 166556.604 -66297.06 166643.933 -66279.84 166749.011 -66269.594 166863.029 -66266.318 166977.177 -66270.009 167082.648 -66280.66 167167.334 -66297.37 167268.128 -66330.14 167365.822 -66372.279 167451.296 -66419.519 167496.789 -66451.581 167528.169 -66475.422 167550.142 -66489.939 167555.141 -66492 167556.69 -66478.718 167558.135 -66440.663 167559.443 -66380.519 167560.583 -66300.973 167561.521 -66204.711 167562.226 -66094.419 167562.667 -65972.781 167562.811 -65848.885 167562.73 -65690.196 167562.335 -65556.408 167561.395 -65444.96 167559.68 -65353.295 167556.957 -65278.853 167552.997 -65219.075 167547.569 -65171.402 167540.441 -65133.274 167531.384 -65102.134 167520.167 -65075.421 167506.558 -65050.577 167490.328 -65025.043 167488.24 -65021.881 167467.306 -64988.81 167454.667 -64966.069 167452.973 -64961.272 167466.216 -64959.759 167504.002 -64958.528 167563.416 -64957.599 167641.542 -64956.992 167735.465 -64956.727 167842.27 -64956.825" fill="none" stroke-width="10"/><path d="M 167842.27 -64956.825 167959.041 -64957.304 167998.729 -64957.545 168544.486 -64961.135 168551.351 -67054.919 168552.258 -67338.842 168553.062 -67596.64 168553.815 -67829.646 168554.569 -68039.194 168555.375 -68226.618 168556.285 -68393.25 168557.351 -68540.425 168558.624 -68669.477 168560.156 -68781.739 168561.998 -68878.544 168564.203 -68961.226 168566.822 -69031.119 168569.906 -69089.557 168573.508 -69137.872 168577.678 -69177.4 168582.469 -69209.473 168587.931 -69235.424 168594.118 -69256.589 168601.08 -69274.299 168608.869 -69289.889 168617.537 -69304.693 168627.135 -69320.044 168637.715 -69337.276 168639.884 -69340.946 168676.268 -69403.031 168150.431 -69399.434 167624.594 -69395.838 167617.729 -69280.331 167613.992 -69224.899 167610.097 -69192.851 167604.811 -69180.135 167596.903 -69182.696 167590.27 -69190.024 167561.374 -69216.714 167514.279 -69251.021 167455.62 -69288.846 167392.031 -69326.09 167330.149 -69358.653 167282.634 -69380.077 167171.316 -69415.283 167043.596 -69440.222 166908.901 -69453.941 166776.663 -69455.486 166656.308 -69443.906 166654.326 -69443.574 166489.641 -69402.25 166335.479 -69336.412 166193.328 -69247.474 166064.675 -69136.852 165951.007 -69005.961 165853.81 -68856.216 165774.572 -68689.033 165731.43 -68565.19 165702.979 -68461.581 165681.88 -68361.252 165667.488 -68258.109 165659.158 -68146.057 165656.245 -68019.001 165657.535 -67915.252 166670.65 -67915.252 166675.444 -68089.222 166690.568 -68238.895 166716.485 -68365.597 166753.663 -68470.658 166802.565 -68555.406 166863.658 -68621.169 166934.177 -68667.659 166970.871 -68685.014 167002.696 -68695.419 167038.177 -68700.179 167085.841 -68700.601 167137.189 -68698.748 167238.169 -68689.841 167318.035 -68672.398 167343.135 -68663.661 167400.448 -68637.857 167460.897 -68605.453 167487.297 -68589.233 167555.946 -68544.205 167555.946 -67116.982 167480.432 -67071.718 167375.121 -67020.572 167267.525 -66990.324 167161.581 -66980.795 167061.224 -66991.807 166970.387 -67023.181 166893.007 -67074.74 166868.039 -67099.488 166807.856 -67180.577 166759.145 -67278.734 166721.499 -67395.643 166694.512 -67532.985 166677.775 -67692.444 166670.883 -67875.7 166670.65 -67915.252 165657.535 -67915.252 165658.073 -67872.067 165669.647 -67646.053 165692.92 -67442.192 165728.504 -67257.513 165777.013 -67089.048 165839.06 -66933.826 165861.201 -66887.808 165950.385 -66737.739 166058.159 -66604.377 166181.99 -66489.877 166319.342 -66396.389 166467.683 -66326.068 166556.604 -66297.06 166643.933 -66279.84 166749.011 -66269.594 166863.029 -66266.318 166977.177 -66270.009 167082.648 -66280.66 167167.334 -66297.37 167268.128 -66330.14 167365.822 -66372.279 167451.296 -66419.519 167496.789 -66451.581 167528.169 -66475.422 167550.142 -66489.939 167555.141 -66492 167556.69 -66478.718 167558.135 -66440.663 167559.443 -66380.519 167560.583 -66300.973 167561.521 -66204.711 167562.226 -66094.419 167562.667 -65972.781 167562.811 -65848.885 167562.73 -65690.196 167562.335 -65556.408 167561.395 -65444.96 167559.68 -65353.295 167556.957 -65278.853 167552.997 -65219.075 167547.569 -65171.402 167540.441 -65133.274 167531.384 -65102.134 167520.167 -65075.421 167506.558 -65050.577 167490.328 -65025.043 167488.24 -65021.881 167467.306 -64988.81 167454.667 -64966.069 167452.973 -64961.272 167466.216 -64959.759 167504.002 -64958.528 167563.416 -64957.599 167641.542 -64956.992 167735.465 -64956.727 167842.27 -64956.825"/><path d="M 164167.505 -66264.229 164235.531 -66269.378 164430.163 -66295.273 164602.529 -66336.575 164753.47 -66393.853 164883.825 -66467.674 164994.434 -66558.608 165086.135 -66667.222 165159.77 -66794.085 165213.539 -66931.352 165227.187 -66975.137 165239.073 -67016.141 165249.334 -67056.569 165258.113 -67098.63 165265.548 -67144.531 165271.78 -67196.48 165276.95 -67256.685 165281.196 -67327.352 165284.66 -67410.689 165287.481 -67508.905 165289.8 -67624.205 165291.757 -67758.799 165293.491 -67914.893 165295.143 -68094.695 165296.324 -68235.676 165304.27 -69203.622 165355.756 -69296.77 165380.137 -69341.645 165398.28 -69376.501 165406.935 -69395.054 165407.243 -69396.311 165394.014 -69397.749 165356.326 -69399.074 165297.183 -69400.249 165219.586 -69401.237 165126.536 -69401.999 165021.035 -69402.5 164906.084 -69402.701 164892.378 -69402.703 164377.513 -69402.703 164377.513 -69286 164376.635 -69233.26 164374.292 -69192.926 164370.921 -69171.3 164369.431 -69169.298 164355.804 -69177.683 164327.757 -69199.692 164291.303 -69230.601 164290.485 -69231.316 164223.962 -69280.843 164139.948 -69330.575 164047.937 -69375.626 163957.421 -69411.11 163917.567 -69423.236 163838.255 -69438.637 163740.935 -69448.465 163634.516 -69452.58 163527.907 -69450.841 163430.017 -69443.108 163361.513 -69431.981 163193.52 -69382.648 163042.281 -69312.342 162908.782 -69221.933 162794.006 -69112.295 162698.937 -68984.299 162624.56 -68838.818 162592.474 -68750.541 162572.365 -68664.739 162559.038 -68561.736 162552.872 -68451.034 162553.074 -68434.925 163481.648 -68434.925 163489.348 -68517.184 163514.989 -68585.546 163562.378 -68648.97 163580.579 -68667.567 163645.282 -68717.846 163720.066 -68750.056 163809.662 -68765.648 163904.012 -68766.796 163993.501 -68759.216 164062.018 -68744.389 164091.775 -68733.253 164145.408 -68702.904 164202.235 -68660.221 164254.082 -68612.317 164292.778 -68566.301 164303.054 -68549.421 164311.042 -68525.782 164316.721 -68488.168 164320.356 -68432.985 164322.211 -68356.64 164322.594 -68283.981 164322.335 -68199.27 164321.287 -68138.018 164319.045 -68096.227 164315.206 -68069.899 164309.365 -68055.035 164301.118 -68047.639 164298.567 -68046.461 164276.4 -68042.833 164232.68 -68039.866 164173.311 -68037.827 164104.196 -68036.983 164089.189 -68036.982 163996.805 -68038.457 163925.432 -68042.842 163868.719 -68050.738 163821.872 -68062.27 163705.669 -68106.215 163614.543 -68160.243 163547.705 -68225.219 163504.365 -68302.005 163483.734 -68391.467 163481.648 -68434.925 162553.074 -68434.925 162554.244 -68342.133 162563.532 -68244.536 162570.777 -68205.105 162617.039 -68058.701 162687.384 -67923.995 162780.484 -67802.28 162895.012 -67694.847 163029.64 -67602.988 163183.04 -67527.996 163313.459 -67482.458 163400.623 -67458.533 163483.996 -67439.943 163568.976 -67426.084 163660.965 -67416.351 163765.362 -67410.141 163887.568 -67406.851 163998.055 -67405.924 164325.677 -67405.027 164319.401 -67306.547 164301.579 -67199.695 164263.667 -67107.852 164207.28 -67033.31 164134.031 -66978.364 164069.535 -66951.552 163977.123 -66934.654 163867.111 -66932.227 163744.656 -66943.378 163614.914 -66967.21 163483.042 -67002.83 163354.198 -67049.343 163260.566 -67091.883 163215.517 -67113.728 163181.156 -67128.984 163163.681 -67134.937 163162.733 -67134.746 163156.703 -67121.412 163141.645 -67086.068 163118.977 -67032.101 163090.115 -66962.896 163056.477 -66881.84 163022.284 -66799.118 162885.586 -66467.803 162982.82 -66451.833 163024.964 -66443.82 163088.319 -66430.361 163167.457 -66412.679 163256.951 -66391.996 163351.373 -66369.532 163388.973 -66360.403 163551.637 -66322.674 163694.05 -66294.388 163821.527 -66274.972 163939.384 -66263.854 164052.938 -66260.464 164167.505 -66264.229" fill="none" stroke-width="10"/><path d="M 164167.505 -66264.229 164235.531 -66269.378 164430.163 -66295.273 164602.529 -66336.575 164753.47 -66393.853 164883.825 -66467.674 164994.434 -66558.608 165086.135 -66667.222 165159.77 -66794.085 165213.539 -66931.352 165227.187 -66975.137 165239.073 -67016.141 165249.334 -67056.569 165258.113 -67098.63 165265.548 -67144.531 165271.78 -67196.48 165276.95 -67256.685 165281.196 -67327.352 165284.66 -67410.689 165287.481 -67508.905 165289.8 -67624.205 165291.757 -67758.799 165293.491 -67914.893 165295.143 -68094.695 165296.324 -68235.676 165304.27 -69203.622 165355.756 -69296.77 165380.137 -69341.645 165398.28 -69376.501 165406.935 -69395.054 165407.243 -69396.311 165394.014 -69397.749 165356.326 -69399.074 165297.183 -69400.249 165219.586 -69401.237 165126.536 -69401.999 165021.035 -69402.5 164906.084 -69402.701 164892.378 -69402.703 164377.513 -69402.703 164377.513 -69286 164376.635 -69233.26 164374.292 -69192.926 164370.921 -69171.3 164369.431 -69169.298 164355.804 -69177.683 164327.757 -69199.692 164291.303 -69230.601 164290.485 -69231.316 164223.962 -69280.843 164139.948 -69330.575 164047.937 -69375.626 163957.421 -69411.11 163917.567 -69423.236 163838.255 -69438.637 163740.935 -69448.465 163634.516 -69452.58 163527.907 -69450.841 163430.017 -69443.108 163361.513 -69431.981 163193.52 -69382.648 163042.281 -69312.342 162908.782 -69221.933 162794.006 -69112.295 162698.937 -68984.299 162624.56 -68838.818 162592.474 -68750.541 162572.365 -68664.739 162559.038 -68561.736 162552.872 -68451.034 162553.074 -68434.925 163481.648 -68434.925 163489.348 -68517.184 163514.989 -68585.546 163562.378 -68648.97 163580.579 -68667.567 163645.282 -68717.846 163720.066 -68750.056 163809.662 -68765.648 163904.012 -68766.796 163993.501 -68759.216 164062.018 -68744.389 164091.775 -68733.253 164145.408 -68702.904 164202.235 -68660.221 164254.082 -68612.317 164292.778 -68566.301 164303.054 -68549.421 164311.042 -68525.782 164316.721 -68488.168 164320.356 -68432.985 164322.211 -68356.64 164322.594 -68283.981 164322.335 -68199.27 164321.287 -68138.018 164319.045 -68096.227 164315.206 -68069.899 164309.365 -68055.035 164301.118 -68047.639 164298.567 -68046.461 164276.4 -68042.833 164232.68 -68039.866 164173.311 -68037.827 164104.196 -68036.983 164089.189 -68036.982 163996.805 -68038.457 163925.432 -68042.842 163868.719 -68050.738 163821.872 -68062.27 163705.669 -68106.215 163614.543 -68160.243 163547.705 -68225.219 163504.365 -68302.005 163483.734 -68391.467 163481.648 -68434.925 162553.074 -68434.925 162554.244 -68342.133 162563.532 -68244.536 162570.777 -68205.105 162617.039 -68058.701 162687.384 -67923.995 162780.484 -67802.28 162895.012 -67694.847 163029.64 -67602.988 163183.04 -67527.996 163313.459 -67482.458 163400.623 -67458.533 163483.996 -67439.943 163568.976 -67426.084 163660.965 -67416.351 163765.362 -67410.141 163887.568 -67406.851 163998.055 -67405.924 164325.677 -67405.027 164319.401 -67306.547 164301.579 -67199.695 164263.667 -67107.852 164207.28 -67033.31 164134.031 -66978.364 164069.535 -66951.552 163977.123 -66934.654 163867.111 -66932.227 163744.656 -66943.378 163614.914 -66967.21 163483.042 -67002.83 163354.198 -67049.343 163260.566 -67091.883 163215.517 -67113.728 163181.156 -67128.984 163163.681 -67134.937 163162.733 -67134.746 163156.703 -67121.412 163141.645 -67086.068 163118.977 -67032.101 163090.115 -66962.896 163056.477 -66881.84 163022.284 -66799.118 162885.586 -66467.803 162982.82 -66451.833 163024.964 -66443.82 163088.319 -66430.361 163167.457 -66412.679 163256.951 -66391.996 163351.373 -66369.532 163388.973 -66360.403 163551.637 -66322.674 163694.05 -66294.388 163821.527 -66274.972 163939.384 -66263.854 164052.938 -66260.464 164167.505 -66264.229"/><path d="M 155044.257 -64473.689 155308.78 -64473.725 155431.912 -64473.73 157402.811 -64473.73 157402.811 -64589.91 157415.211 -64731.291 157452.636 -64861.684 157515.423 -64981.862 157603.906 -65092.602 157633.843 -65122.511 157741.534 -65207.348 157860.275 -65269.221 157986.54 -65308.159 158116.803 -65324.19 158247.535 -65317.342 158375.212 -65287.643 158496.305 -65235.12 158607.288 -65159.803 158657.132 -65114.363 158750.017 -65002.952 158818.127 -64880.435 158860.871 -64748.215 158877.653 -64607.692 158877.876 -64593.867 158878.756 -64473.734 158931.557 -64473.732 158978.396 -64480.089 159021.183 -64495.556 159024.011 -64497.154 159033.675 -64502.168 159042.549 -64506.073 159050.665 -64510.007 159058.057 -64515.106 159064.755 -64522.508 159070.792 -64533.351 159076.199 -64548.772 159081.01 -64569.909 159085.255 -64597.899 159088.968 -64633.879 159092.179 -64678.987 159094.922 -64734.36 159097.228 -64801.137 159099.129 -64880.453 159100.658 -64973.447 159101.846 -65081.257 159102.726 -65205.019 159103.33 -65345.871 159103.689 -65504.95 159103.835 -65683.395 159103.802 -65882.342 159103.62 -66102.929 159103.323 -66346.293 159102.941 -66613.572 159102.508 -66905.903 159102.055 -67224.424 159102.002 -67263.23 159101.596 -67583.782 159101.251 -67878.012 159100.931 -68147.056 159100.6 -68392.052 159100.221 -68614.137 159099.757 -68814.447 159099.172 -68994.119 159098.43 -69154.29 159097.494 -69296.098 159096.327 -69420.679 159094.893 -69529.17 159093.156 -69622.707 159091.078 -69702.429 159088.624 -69769.472 159085.756 -69824.973 159082.439 -69870.068 159078.636 -69905.895 159074.31 -69933.591 159069.425 -69954.293 159063.945 -69969.137 159057.832 -69979.26 159051.05 -69985.8 159043.563 -69989.893 159035.334 -69992.676 159026.327 -69995.287 159016.505 -69998.862 159014.106 -69999.95 159006.565 -70002.396 158993.944 -70004.642 158975.141 -70006.698 158949.053 -70008.572 158914.578 -70010.271 158870.615 -70011.803 158816.061 -70013.177 158749.815 -70014.4 158670.774 -70015.481 158577.837 -70016.427 158469.901 -70017.247 158345.864 -70017.947 158204.624 -70018.538 158045.079 -70019.025 157866.128 -70019.419 157666.668 -70019.725 157445.596 -70019.953 157201.812 -70020.11 156934.213 -70020.205 156641.697 -70020.245 156323.161 -70020.238 156219.979 -70020.228 155894.377 -70020.176 155595.119 -70020.091 155321.091 -70019.963 155071.176 -70019.785 154844.26 -70019.548 154639.227 -70019.242 154454.962 -70018.86 154290.35 -70018.392 154144.275 -70017.83 154015.624 -70017.165 153903.279 -70016.388 153806.126 -70015.491 153723.05 -70014.465 153652.936 -70013.301 153594.668 -70011.991 153547.131 -70010.525 153509.21 -70008.896 153479.79 -70007.093 153457.755 -70005.11 153441.99 -70002.936 153431.38 -70000.563 153425.596 -69998.391 153415.316 -69994.056 153405.878 -69990.859 153397.245 -69987.665 153389.381 -69983.338 153382.252 -69976.744 153375.821 -69966.747 153370.053 -69952.212 153364.911 -69932.003 153360.36 -69904.985 153356.365 -69870.023 153352.889 -69825.981 153349.898 -69771.724 153347.354 -69706.117 153345.223 -69628.024 153343.468 -69536.31 153342.055 -69429.84 153341.685 -69388.973 153708.116 -69388.973 155003.266 -69388.973 154978.345 -69351.217 154953.553 -69312.417 154932.56 -69275.469 154915.065 -69237.788 154900.77 -69196.788 154889.377 -69149.883 154880.587 -69094.487 154874.102 -69028.016 154869.623 -68947.883 154866.85 -68851.502 154865.487 -68736.289 154865.233 -68599.657 154865.791 -68439.02 154866.107 -68379.382 154869.675 -67740.041 155274.702 -68291.449 155389.446 -68447.876 155488.857 -68584.088 155574.01 -68701.89 155645.978 -68803.084 155705.834 -68889.477 155754.652 -68962.874 155793.505 -69025.077 155823.466 -69077.893 155845.609 -69123.125 155861.007 -69162.578 155870.734 -69198.058 155875.863 -69231.368 155877.468 -69264.313 155876.621 -69298.697 155876.405 -69303.019 155871.946 -69389.031 157291.308 -69388.973 157540.627 -69388.973 158146.604 -69388.973 158291.266 -69388.931 158410.756 -69388.741 158507.358 -69388.308 158583.358 -69387.536 158641.043 -69386.33 158682.699 -69384.594 158710.611 -69382.232 158727.065 -69379.15 158734.348 -69375.251 158734.745 -69370.44 158730.542 -69364.622 158730.499 -69364.574 158713.187 -69339.532 158690.264 -69298.815 158670.019 -69258.168 158631.621 -69176.162 158623.789 -66327.244 157540.627 -66327.244 157591.854 -66419.919 157643.081 -66512.595 157643.081 -69203.622 157591.854 -69296.298 157540.627 -69388.973 157291.308 -69388.973 157185.735 -69282.522 157157.087 -69253.406 157129.91 -69225.076 157103.011 -69195.968 157075.197 -69164.52 157045.275 -69129.169 157012.054 -69088.354 156974.339 -69040.511 156930.94 -68984.079 156880.662 -68917.494 156822.312 -68839.195 156754.7 -68747.619 156676.631 -68641.204 156586.912 -68518.387 156484.352 -68377.605 156367.758 -68217.297 156272.191 -68085.798 156152.251 -67920.596 156047.62 -67776.152 155957.352 -67651.094 155880.497 -67544.052 155816.109 -67453.654 155763.239 -67378.529 155720.94 -67317.304 155688.264 -67268.61 155664.262 -67231.074 155647.987 -67203.325 155638.492 -67183.992 155634.827 -67171.703 155635.929 -67165.242 155649.276 -67148.048 155678.134 -67111.655 155720.76 -67058.224 155775.415 -66989.919 155840.356 -66908.903 155913.842 -66817.34 155994.132 -66717.392 156079.485 -66611.224 156168.16 -66500.997 156258.414 -66388.876 156308.056 -66327.244 156348.507 -66277.024 156436.698 -66167.604 156521.246 -66062.778 156600.408 -65964.711 156672.444 -65875.566 156735.613 -65797.505 156788.173 -65732.692 156828.383 -65683.29 156852 -65654.487 156943.71 -65546.778 157031.94 -65449.58 157113.597 -65366.076 157185.59 -65299.448 157236.681 -65258.599 157297.093 -65215.135 155907.702 -65215.135 155908.092 -65296.666 155904.209 -65356.606 155889.61 -65412.177 155867.012 -65464.855 155852.322 -65494.615 155836.528 -65524.103 155818.186 -65555.276 155795.855 -65590.093 155768.091 -65630.51 155733.451 -65678.486 155690.493 -65735.978 155637.773 -65804.943 155573.849 -65887.339 155497.279 -65985.124 155406.619 -66100.255 155300.426 -66234.69 155288.432 -66249.859 154869.675 -66779.412 154865.622 -66192.922 154864.805 -66017.251 154864.979 -65868.532 154866.151 -65746.275 154868.331 -65649.989 154871.526 -65579.183 154875.744 -65533.369 154877.162 -65524.679 154899.409 -65433.135 154928.557 -65350.608 154961.818 -65284.253 154981.8 -65256.11 155016.278 -65215.135 154362.086 -65215.135 154206.031 -65215.269 154075.533 -65215.703 153968.69 -65216.489 153883.602 -65217.676 153818.365 -65219.317 153771.079 -65221.461 153739.843 -65224.159 153722.754 -65227.462 153717.912 -65231.421 153718.247 -65232.298 153732.115 -65253.231 153755.268 -65286.412 153767.246 -65303.193 153779.631 -65319.94 153790.763 -65334.915 153800.712 -65349.594 153809.549 -65365.449 153817.343 -65383.955 153824.165 -65406.585 153830.084 -65434.813 153835.171 -65470.113 153839.496 -65513.958 153843.129 -65567.822 153846.14 -65633.18 153848.599 -65711.504 153850.577 -65804.268 153852.142 -65912.947 153853.366 -66039.013 153854.319 -66183.942 153855.07 -66349.206 153855.689 -66536.279 153856.248 -66746.635 153856.815 -66981.748 153857.345 -67197.741 153857.845 -67438.535 153858.105 -67668.274 153858.132 -67885.493 153857.933 -68088.722 153857.514 -68276.496 153856.882 -68447.345 153856.044 -68599.803 153855.008 -68732.403 153853.78 -68843.676 153852.367 -68932.156 153850.775 -68996.375 153849.013 -69034.865 153848.679 -69038.933 153836.534 -69132.248 153817.573 -69207.19 153788.698 -69272.594 153746.81 -69337.293 153741.571 -69344.352 153708.116 -69388.973 153341.685 -69388.973 153340.946 -69307.479 153340.107 -69168.09 153339.502 -69010.539 153339.095 -68833.691 153338.85 -68636.41 153338.733 -68417.56 153338.705 -68176.007 153338.733 -67910.615 153338.78 -67620.249 153338.81 -67303.773 153338.811 -67240.946 153338.828 -66921.137 153338.888 -66627.661 153338.998 -66359.39 153339.167 -66115.198 153339.403 -65893.957 153339.716 -65694.54 153340.115 -65515.82 153340.607 -65356.671 153341.203 -65215.966 153341.91 -65092.576 153342.737 -64985.376 153343.693 -64893.238 153344.787 -64815.035 153346.027 -64749.641 153347.422 -64695.928 153348.982 -64652.769 153350.714 -64619.037 153352.628 -64593.605 153354.732 -64575.347 153357.034 -64563.134 153359.545 -64555.841 153359.637 -64555.659 153364.808 -64544.518 153369.115 -64534.431 153373.879 -64525.346 153380.422 -64517.212 153390.065 -64509.976 153404.129 -64503.586 153423.937 -64497.989 153450.809 -64493.133 153486.067 -64488.966 153531.032 -64485.436 153587.026 -64482.491 153655.371 -64480.077 153737.386 -64478.144 153834.395 -64476.638 153947.718 -64475.508 154078.677 -64474.702 154228.593 -64474.166 154398.787 -64473.849 154590.582 -64473.699 154805.298 -64473.663 155044.257 -64473.689" fill="none" stroke-width="10"/><path d="M 155044.257 -64473.689 155308.78 -64473.725 155431.912 -64473.73 157402.811 -64473.73 157402.811 -64589.91 157415.211 -64731.291 157452.636 -64861.684 157515.423 -64981.862 157603.906 -65092.602 157633.843 -65122.511 157741.534 -65207.348 157860.275 -65269.221 157986.54 -65308.159 158116.803 -65324.19 158247.535 -65317.342 158375.212 -65287.643 158496.305 -65235.12 158607.288 -65159.803 158657.132 -65114.363 158750.017 -65002.952 158818.127 -64880.435 158860.871 -64748.215 158877.653 -64607.692 158877.876 -64593.867 158878.756 -64473.734 158931.557 -64473.732 158978.396 -64480.089 159021.183 -64495.556 159024.011 -64497.154 159033.675 -64502.168 159042.549 -64506.073 159050.665 -64510.007 159058.057 -64515.106 159064.755 -64522.508 159070.792 -64533.351 159076.199 -64548.772 159081.01 -64569.909 159085.255 -64597.899 159088.968 -64633.879 159092.179 -64678.987 159094.922 -64734.36 159097.228 -64801.137 159099.129 -64880.453 159100.658 -64973.447 159101.846 -65081.257 159102.726 -65205.019 159103.33 -65345.871 159103.689 -65504.95 159103.835 -65683.395 159103.802 -65882.342 159103.62 -66102.929 159103.323 -66346.293 159102.941 -66613.572 159102.508 -66905.903 159102.055 -67224.424 159102.002 -67263.23 159101.596 -67583.782 159101.251 -67878.012 159100.931 -68147.056 159100.6 -68392.052 159100.221 -68614.137 159099.757 -68814.447 159099.172 -68994.119 159098.43 -69154.29 159097.494 -69296.098 159096.327 -69420.679 159094.893 -69529.17 159093.156 -69622.707 159091.078 -69702.429 159088.624 -69769.472 159085.756 -69824.973 159082.439 -69870.068 159078.636 -69905.895 159074.31 -69933.591 159069.425 -69954.293 159063.945 -69969.137 159057.832 -69979.26 159051.05 -69985.8 159043.563 -69989.893 159035.334 -69992.676 159026.327 -69995.287 159016.505 -69998.862 159014.106 -69999.95 159006.565 -70002.396 158993.944 -70004.642 158975.141 -70006.698 158949.053 -70008.572 158914.578 -70010.271 158870.615 -70011.803 158816.061 -70013.177 158749.815 -70014.4 158670.774 -70015.481 158577.837 -70016.427 158469.901 -70017.247 158345.864 -70017.947 158204.624 -70018.538 158045.079 -70019.025 157866.128 -70019.419 157666.668 -70019.725 157445.596 -70019.953 157201.812 -70020.11 156934.213 -70020.205 156641.697 -70020.245 156323.161 -70020.238 156219.979 -70020.228 155894.377 -70020.176 155595.119 -70020.091 155321.091 -70019.963 155071.176 -70019.785 154844.26 -70019.548 154639.227 -70019.242 154454.962 -70018.86 154290.35 -70018.392 154144.275 -70017.83 154015.624 -70017.165 153903.279 -70016.388 153806.126 -70015.491 153723.05 -70014.465 153652.936 -70013.301 153594.668 -70011.991 153547.131 -70010.525 153509.21 -70008.896 153479.79 -70007.093 153457.755 -70005.11 153441.99 -70002.936 153431.38 -70000.563 153425.596 -69998.391 153415.316 -69994.056 153405.878 -69990.859 153397.245 -69987.665 153389.381 -69983.338 153382.252 -69976.744 153375.821 -69966.747 153370.053 -69952.212 153364.911 -69932.003 153360.36 -69904.985 153356.365 -69870.023 153352.889 -69825.981 153349.898 -69771.724 153347.354 -69706.117 153345.223 -69628.024 153343.468 -69536.31 153342.055 -69429.84 153341.685 -69388.973 153708.116 -69388.973 155003.266 -69388.973 154978.345 -69351.217 154953.553 -69312.417 154932.56 -69275.469 154915.065 -69237.788 154900.77 -69196.788 154889.377 -69149.883 154880.587 -69094.487 154874.102 -69028.016 154869.623 -68947.883 154866.85 -68851.502 154865.487 -68736.289 154865.233 -68599.657 154865.791 -68439.02 154866.107 -68379.382 154869.675 -67740.041 155274.702 -68291.449 155389.446 -68447.876 155488.857 -68584.088 155574.01 -68701.89 155645.978 -68803.084 155705.834 -68889.477 155754.652 -68962.874 155793.505 -69025.077 155823.466 -69077.893 155845.609 -69123.125 155861.007 -69162.578 155870.734 -69198.058 155875.863 -69231.368 155877.468 -69264.313 155876.621 -69298.697 155876.405 -69303.019 155871.946 -69389.031 157291.308 -69388.973 157540.627 -69388.973 158146.604 -69388.973 158291.266 -69388.931 158410.756 -69388.741 158507.358 -69388.308 158583.358 -69387.536 158641.043 -69386.33 158682.699 -69384.594 158710.611 -69382.232 158727.065 -69379.15 158734.348 -69375.251 158734.745 -69370.44 158730.542 -69364.622 158730.499 -69364.574 158713.187 -69339.532 158690.264 -69298.815 158670.019 -69258.168 158631.621 -69176.162 158623.789 -66327.244 157540.627 -66327.244 157591.854 -66419.919 157643.081 -66512.595 157643.081 -69203.622 157591.854 -69296.298 157540.627 -69388.973 157291.308 -69388.973 157185.735 -69282.522 157157.087 -69253.406 157129.91 -69225.076 157103.011 -69195.968 157075.197 -69164.52 157045.275 -69129.169 157012.054 -69088.354 156974.339 -69040.511 156930.94 -68984.079 156880.662 -68917.494 156822.312 -68839.195 156754.7 -68747.619 156676.631 -68641.204 156586.912 -68518.387 156484.352 -68377.605 156367.758 -68217.297 156272.191 -68085.798 156152.251 -67920.596 156047.62 -67776.152 155957.352 -67651.094 155880.497 -67544.052 155816.109 -67453.654 155763.239 -67378.529 155720.94 -67317.304 155688.264 -67268.61 155664.262 -67231.074 155647.987 -67203.325 155638.492 -67183.992 155634.827 -67171.703 155635.929 -67165.242 155649.276 -67148.048 155678.134 -67111.655 155720.76 -67058.224 155775.415 -66989.919 155840.356 -66908.903 155913.842 -66817.34 155994.132 -66717.392 156079.485 -66611.224 156168.16 -66500.997 156258.414 -66388.876 156308.056 -66327.244 156348.507 -66277.024 156436.698 -66167.604 156521.246 -66062.778 156600.408 -65964.711 156672.444 -65875.566 156735.613 -65797.505 156788.173 -65732.692 156828.383 -65683.29 156852 -65654.487 156943.71 -65546.778 157031.94 -65449.58 157113.597 -65366.076 157185.59 -65299.448 157236.681 -65258.599 157297.093 -65215.135 155907.702 -65215.135 155908.092 -65296.666 155904.209 -65356.606 155889.61 -65412.177 155867.012 -65464.855 155852.322 -65494.615 155836.528 -65524.103 155818.186 -65555.276 155795.855 -65590.093 155768.091 -65630.51 155733.451 -65678.486 155690.493 -65735.978 155637.773 -65804.943 155573.849 -65887.339 155497.279 -65985.124 155406.619 -66100.255 155300.426 -66234.69 155288.432 -66249.859 154869.675 -66779.412 154865.622 -66192.922 154864.805 -66017.251 154864.979 -65868.532 154866.151 -65746.275 154868.331 -65649.989 154871.526 -65579.183 154875.744 -65533.369 154877.162 -65524.679 154899.409 -65433.135 154928.557 -65350.608 154961.818 -65284.253 154981.8 -65256.11 155016.278 -65215.135 154362.086 -65215.135 154206.031 -65215.269 154075.533 -65215.703 153968.69 -65216.489 153883.602 -65217.676 153818.365 -65219.317 153771.079 -65221.461 153739.843 -65224.159 153722.754 -65227.462 153717.912 -65231.421 153718.247 -65232.298 153732.115 -65253.231 153755.268 -65286.412 153767.246 -65303.193 153779.631 -65319.94 153790.763 -65334.915 153800.712 -65349.594 153809.549 -65365.449 153817.343 -65383.955 153824.165 -65406.585 153830.084 -65434.813 153835.171 -65470.113 153839.496 -65513.958 153843.129 -65567.822 153846.14 -65633.18 153848.599 -65711.504 153850.577 -65804.268 153852.142 -65912.947 153853.366 -66039.013 153854.319 -66183.942 153855.07 -66349.206 153855.689 -66536.279 153856.248 -66746.635 153856.815 -66981.748 153857.345 -67197.741 153857.845 -67438.535 153858.105 -67668.274 153858.132 -67885.493 153857.933 -68088.722 153857.514 -68276.496 153856.882 -68447.345 153856.044 -68599.803 153855.008 -68732.403 153853.78 -68843.676 153852.367 -68932.156 153850.775 -68996.375 153849.013 -69034.865 153848.679 -69038.933 153836.534 -69132.248 153817.573 -69207.19 153788.698 -69272.594 153746.81 -69337.293 153741.571 -69344.352 153708.116 -69388.973 153341.685 -69388.973 153340.946 -69307.479 153340.107 -69168.09 153339.502 -69010.539 153339.095 -68833.691 153338.85 -68636.41 153338.733 -68417.56 153338.705 -68176.007 153338.733 -67910.615 153338.78 -67620.249 153338.81 -67303.773 153338.811 -67240.946 153338.828 -66921.137 153338.888 -66627.661 153338.998 -66359.39 153339.167 -66115.198 153339.403 -65893.957 153339.716 -65694.54 153340.115 -65515.82 153340.607 -65356.671 153341.203 -65215.966 153341.91 -65092.576 153342.737 -64985.376 153343.693 -64893.238 153344.787 -64815.035 153346.027 -64749.641 153347.422 -64695.928 153348.982 -64652.769 153350.714 -64619.037 153352.628 -64593.605 153354.732 -64575.347 153357.034 -64563.134 153359.545 -64555.841 153359.637 -64555.659 153364.808 -64544.518 153369.115 -64534.431 153373.879 -64525.346 153380.422 -64517.212 153390.065 -64509.976 153404.129 -64503.586 153423.937 -64497.989 153450.809 -64493.133 153486.067 -64488.966 153531.032 -64485.436 153587.026 -64482.491 153655.371 -64480.077 153737.386 -64478.144 153834.395 -64476.638 153947.718 -64475.508 154078.677 -64474.702 154228.593 -64474.166 154398.787 -64473.849 154590.582 -64473.699 154805.298 -64473.663 155044.257 -64473.689"/><path d="M 174580 -71580 178420 -71580 178420 -73420 174580 -73420 174580 -71580 M 179370 -72500 178420 -72500 M 173630 -72500 174580 -72500 M 163410 -106760 163410 -106450 M 163410 -106760 154590 -106760 M 163410 -102240 163410 -102550 M 157500 -101540 156500 -101540 M 157000 -102040 157500 -101540 M 156500 -101540 157000 -102040 M 154590 -106760 154590 -106450 M 154590 -102550 154590 -102240 163410 -102240 M 172600 -91000 172600 -85000 M 181400 -91000 181400 -85000 M 172600 -85000 A 5325.4107823 5325.4107823 0 0 0 181377.56 -84967.35 M 181400 -91000 A 5325.4107823 5325.4107823 0 0 0 172622.44 -91032.65 M 131880.914 -81890 135055.914 -81890 M 131880.914 -93110 131880.914 -81890 M 135055.914 -93110 131880.914 -93110 M 135055.914 -81890 A 13641.8959459 13641.8959459 0 1 0 135055.914 -93110 M 173630 -79150 174580 -79150 M 179370 -79150 178420 -79150 M 174580 -78230 178420 -78230 178420 -80070 174580 -80070 174580 -78230 M 169590 -100160 169590 -101810 M 169590 -103810 169590 -105460 179870 -105460 M 179870 -100160 169590 -100160 M 179870 -105460 179870 -100160 M 169590 -101810 A 1000 1000 0 0 0 169590 -103810 M 173630 -75825 174580 -75825 M 179370 -75825 178420 -75825 M 174580 -74905 178420 -74905 178420 -76745 174580 -76745 174580 -74905 M 164170 -85955 164170 -89045 M 164170 -85955.17 A 2989.9999547 2989.9999547 0 0 0 169720 -87500 2990 2990 0 0 0 164170 -89044.83 M 169230 -87500 A 2500 2500 0 0 0 164230 -87500 2500 2500 0 0 0 169230 -87500 M 184940 -88000 184940 -90060 M 184940 -88000 187060 -88000 M 184940 -90060 187060 -90060 M 186000 -85940 187060 -85940 187060 -87000 M 187060 -88000 187060 -90060" fill="none" stroke-width="120"/></g></svg>