<svg version="1.1" xmlns="http://www.w3.org/2000/svg" xmlns:xlink="http://www.w3.org/1999/xlink" stroke-linecap="round" stroke-linejoin="round" stroke-width="0" fill-rule="evenodd" width="59.489521999999994mm" height="59.489521999999994mm" viewBox="129755.239 -119744.761 59489.522 59489.522" id="kpkkN12TjTPtikmA42kp"><defs><circle cx="0" cy="0" r="700" id="kpkkN12TjTPtikmA42kp_pad-10"/><rect x="-750" y="-1250" width="1500" height="2500" rx="750" ry="750" id="kpkkN12TjTPtikmA42kp_pad-11"/><rect x="-750" y="-1250" width="1500" height="2500" id="kpkkN12TjTPtikmA42kp_pad-12"/><rect x="-1100" y="-1750" width="2200" height="3500" rx="1100" ry="1100" id="kpkkN12TjTPtikmA42kp_pad-13"/><circle cx="0" cy="0" r="800" id="kpkkN12TjTPtikmA42kp_pad-14"/><rect x="-1050" y="-1050" width="2100" height="2100" id="kpkkN12TjTPtikmA42kp_pad-15"/><circle cx="0" cy="0" r="1050" id="kpkkN12TjTPtikmA42kp_pad-16"/><g id="kpkkN12TjTPtikmA42kp_pad-17"><polygon points="550,-550 550,550 -550,550 -550,-550"/><circle cx="550" cy="-550" r="250"/><circle cx="550" cy="550" r="250"/><circle cx="-550" cy="550" r="250"/><circle cx="-550" cy="-550" r="250"/><polygon points="800,-550 800,550 300,550 300,-550"/><polygon points="550,300 -550,300 -550,800 550,800"/><polygon points="-300,550 -300,-550 -800,-550 -800,550"/><polygon points="-550,-800 550,-800 550,-300 -550,-300"/></g><rect x="-900" y="-900" width="1800" height="1800" id="kpkkN12TjTPtikmA42kp_pad-18"/><circle cx="0" cy="0" r="900" id="kpkkN12TjTPtikmA42kp_pad-19"/><rect x="-675" y="-675" width="1350" height="1350" id="kpkkN12TjTPtikmA42kp_pad-20"/><circle cx="0" cy="0" r="675" id="kpkkN12TjTPtikmA42kp_pad-21"/></defs><g transform="translate(0,-180000) scale(1,-1)" fill="currentColor" stroke="currentColor"><use xlink:href="#kpkkN12TjTPtikmA42kp_pad-10" x="180310" y="-72500"/><use xlink:href="#kpkkN12TjTPtikmA42kp_pad-10" x="172690" y="-72500"/><use xlink:href="#kpkkN12TjTPtikmA42kp_pad-11" x="161000" y="-104500"/><use xlink:href="#kpkkN12TjTPtikmA42kp_pad-11" x="159000" y="-104500"/><use xlink:href="#kpkkN12TjTPtikmA42kp_pad-12" x="157000" y="-104500"/><use xlink:href="#kpkkN12TjTPtikmA42kp_pad-13" x="163100" y="-104500"/><use xlink:href="#kpkkN12TjTPtikmA42kp_pad-13" x="154900" y="-104500"/><use xlink:href="#kpkkN12TjTPtikmA42kp_pad-14" x="177000" y="-91800"/><use xlink:href="#kpkkN12TjTPtikmA42kp_pad-14" x="177000" y="-84200"/><use xlink:href="#kpkkN12TjTPtikmA42kp_pad-15" x="133210.914" y="-87500"/><use xlink:href="#kpkkN12TjTPtikmA42kp_pad-16" x="153210.914" y="-87500"/><use xlink:href="#kpkkN12TjTPtikmA42kp_pad-10" x="172690" y="-79150"/><use xlink:href="#kpkkN12TjTPtikmA42kp_pad-10" x="180310" y="-79150"/><use xlink:href="#kpkkN12TjTPtikmA42kp_pad-17" x="170920" y="-106620"/><use xlink:href="#kpkkN12TjTPtikmA42kp_pad-14" x="173460" y="-106620"/><use xlink:href="#kpkkN12TjTPtikmA42kp_pad-14" x="176000" y="-106620"/><use xlink:href="#kpkkN12TjTPtikmA42kp_pad-14" x="178540" y="-106620"/><use xlink:href="#kpkkN12TjTPtikmA42kp_pad-14" x="178540" y="-99000"/><use xlink:href="#kpkkN12TjTPtikmA42kp_pad-14" x="176000" y="-99000"/><use xlink:href="#kpkkN12TjTPtikmA42kp_pad-14" x="173460" y="-99000"/><use xlink:href="#kpkkN12TjTPtikmA42kp_pad-14" x="170920" y="-99000"/><use xlink:href="#kpkkN12TjTPtikmA42kp_pad-10" x="172690" y="-75825"/><use xlink:href="#kpkkN12TjTPtikmA42kp_pad-10" x="180310" y="-75825"/><use xlink:href="#kpkkN12TjTPtikmA42kp_pad-18" x="165460" y="-87500"/><use xlink:href="#kpkkN12TjTPtikmA42kp_pad-19" x="168000" y="-87500"/><use xlink:href="#kpkkN12TjTPtikmA42kp_pad-20" x="186000" y="-87000"/><use xlink:href="#kpkkN12TjTPtikmA42kp_pad-21" x="186000" y="-89000"/><path d="M 141560.914 -79150 172690 -79150 M 133210.914 -87500 141560.914 -79150 M 173660 -79150 180310 -72500 M 170920 -81890 170920 -99000 M 172690 -79150 173660 -79150 M 180310 -72500 170920 -81890" fill="none" stroke-width="200"/><path d="M 160900 -104500 160900 -95189.086 153210.914 -87500 M 176000 -99000 174849 -100151 170443.24 -100151 168000 -97707.76 168000 -87500" fill="none" stroke-width="300"/><path d="M 179058.182 -107871 186000 -100929.182 M 174711 -107871 179058.182 -107871 M 186000 -100929.182 186000 -89000 M 173460 -106620 174711 -107871" fill="none" stroke-width="500"/><path d="M 185024 -100136 178540 -106620 M 185024 -87976 185024 -100136 M 177000 -84200 177000 -79135 M 177000 -84200 183200 -84200 M 186000 -87000 185024 -87976 M 177000 -79135 180310 -75825 M 183200 -84200 186000 -87000" fill="none" stroke-width="200"/><path d="M 160033.21 -60255.317 161090.114 -60293.065 161094.527 -60293.301 162149.441 -60368.751 162153.747 -60369.136 163205.352 -60482.195 163209.708 -60482.742 164256.533 -60633.253 164260.876 -60633.956 165301.696 -60821.741 165305.996 -60822.597 166339.417 -61047.404 166343.7 -61048.416 167368.455 -61309.969 167372.672 -61311.126 168344.521 -61596.487 168387.442 -61609.09 168391.669 -61610.413 169395.124 -61944.395 169399.226 -61945.841 170390.202 -62315.457 170394.282 -62317.062 170967.752 -62554.601 171371.375 -62721.788 171375.433 -62723.555 172337.399 -63162.87 172341.393 -63164.78 173287.13 -63638.182 173291.052 -63640.234 174219.248 -64147.067 174223.094 -64149.257 175132.636 -64688.913 175136.377 -64691.224 176026.064 -65262.991 176029.744 -65265.45 176309.375 -65459.601 176898.489 -65868.63 176902.015 -65871.172 177748.699 -66504.992 177752.167 -66507.686 178575.649 -67171.29 178579.046 -67174.129 179378.305 -67866.691 179381.598 -67869.649 180155.639 -68590.306 180158.824 -68593.38 180906.619 -69341.175 180909.693 -69344.36 181630.35 -70118.401 181633.308 -70121.694 182325.87 -70920.953 182328.709 -70924.35 182992.313 -71747.832 182995.013 -71751.308 183628.819 -72597.974 183631.383 -72601.529 184234.549 -73470.255 184237.008 -73473.935 184357.218 -73660.986 184808.759 -74363.596 184811.086 -74367.363 185350.742 -75276.905 185352.932 -75280.751 185859.765 -76208.947 185861.817 -76212.869 186335.219 -77158.606 186337.129 -77162.6 186776.444 -78124.566 186778.211 -78128.624 187182.929 -79105.698 187184.55 -79109.817 187554.145 -80100.737 187555.615 -80104.908 187579.53 -80176.759 187889.586 -81108.333 187890.909 -81112.557 188188.866 -82127.301 188190.037 -82131.57 188451.58 -83156.287 188452.598 -83160.595 188677.398 -84193.983 188678.262 -84198.324 188866.04 -85239.11 188866.748 -85243.48 189017.254 -86290.273 189017.806 -86294.665 189130.858 -87346.201 189131.252 -87350.61 189206.697 -88405.468 189206.934 -88409.888 189244.682 -89466.789 189244.761 -89471.215 189244.761 -90528.784 189244.682 -90533.21 189206.934 -91590.111 189206.697 -91594.531 189131.252 -92649.389 189130.858 -92653.798 189017.806 -93705.334 189017.254 -93709.726 188866.748 -94756.519 188866.04 -94760.889 188678.262 -95801.675 188677.398 -95806.016 188452.598 -96839.404 188451.58 -96843.712 188190.037 -97868.429 188188.866 -97872.698 187890.909 -98887.442 187889.586 -98891.666 187555.617 -99895.087 187554.145 -99899.262 187184.55 -100890.182 187182.929 -100894.301 186778.211 -101871.375 186776.444 -101875.433 186337.129 -102837.399 186335.219 -102841.393 185861.817 -103787.13 185859.765 -103791.052 185352.932 -104719.248 185350.742 -104723.094 184811.086 -105632.636 184808.759 -105636.403 184237.008 -106526.064 184234.549 -106529.744 183631.383 -107398.47 183628.8 -107402.052 183358.815 -107762.71 182995.028 -108248.672 182992.313 -108252.167 182328.709 -109075.649 182325.87 -109079.046 181633.308 -109878.305 181630.35 -109881.598 180909.693 -110655.639 180906.619 -110658.824 180158.824 -111406.619 180155.639 -111409.693 179381.598 -112130.35 179378.305 -112133.308 178579.046 -112825.87 178575.649 -112828.709 177752.167 -113492.313 177748.672 -113495.028 176902.061 -114128.794 176898.47 -114131.383 176029.744 -114734.549 176026.064 -114737.008 175136.403 -115308.759 175132.636 -115311.086 174223.094 -115850.742 174219.248 -115852.932 173291.052 -116359.765 173287.13 -116361.817 172341.393 -116835.219 172337.399 -116837.129 171375.433 -117276.444 171371.375 -117278.211 170394.301 -117682.929 170390.182 -117684.55 169399.262 -118054.145 169395.087 -118055.617 168391.666 -118389.586 168387.442 -118390.909 167372.698 -118688.866 167368.429 -118690.037 166343.712 -118951.58 166339.404 -118952.598 165306.016 -119177.398 165301.675 -119178.262 164260.889 -119366.04 164256.519 -119366.748 163209.726 -119517.254 163205.334 -119517.806 162153.798 -119630.858 162149.389 -119631.252 161094.531 -119706.697 161090.111 -119706.934 160033.211 -119744.682 160028.785 -119744.761 158971.215 -119744.761 158966.789 -119744.682 157909.888 -119706.934 157905.468 -119706.697 156850.61 -119631.252 156846.201 -119630.858 155794.665 -119517.806 155790.273 -119517.254 154743.48 -119366.748 154739.11 -119366.04 153698.324 -119178.262 153693.983 -119177.398 152660.595 -118952.598 152656.287 -118951.58 151631.57 -118690.037 151627.301 -118688.866 150612.557 -118390.909 150608.333 -118389.586 149604.912 -118055.617 149600.737 -118054.145 148609.817 -117684.55 148605.698 -117682.929 147628.624 -117278.211 147624.566 -117276.444 146662.6 -116837.129 146658.606 -116835.219 145712.869 -116361.817 145708.947 -116359.765 144780.751 -115852.932 144776.905 -115850.742 143867.363 -115311.086 143863.596 -115308.759 143626.488 -115156.379 142973.935 -114737.008 142970.255 -114734.549 142101.529 -114131.383 142097.974 -114128.819 141251.308 -113495.013 141247.832 -113492.313 140424.35 -112828.709 140420.953 -112825.87 139621.694 -112133.308 139618.401 -112130.35 138844.36 -111409.693 138841.175 -111406.619 138093.38 -110658.824 138090.306 -110655.639 137369.649 -109881.598 137366.691 -109878.305 136674.129 -109079.046 136671.29 -109075.649 136007.686 -108252.167 136004.992 -108248.699 135371.172 -107402.015 135368.63 -107398.489 134899.18 -106722.352 134765.45 -106529.744 134762.991 -106526.064 134758.366 -106518.867 134191.224 -105636.377 134188.913 -105632.636 133649.257 -104723.094 133647.067 -104719.248 133140.234 -103791.052 133138.184 -103787.133 133131.947 -103774.674 133131.946 -103774.671 133131.945 -103774.67 132664.78 -102841.392 132662.87 -102837.399 132223.555 -101875.433 132221.788 -101871.375 131978.769 -101284.677 131817.062 -100894.282 131815.449 -100890.182 131802.426 -100855.265 131445.841 -99899.226 131444.395 -99895.124 131110.413 -98891.666 131109.09 -98887.442 130995.554 -98500.776 130811.126 -97872.672 130809.969 -97868.455 130548.416 -96843.7 130547.401 -96839.404 130322.597 -95805.996 130321.737 -95801.675 130259.827 -95458.532 130133.956 -94760.876 130133.251 -94756.519 129982.745 -93709.726 129982.193 -93705.334 129913.724 -93068.477 129869.136 -92653.747 129868.751 -92649.441 129793.301 -91594.527 129793.065 -91590.111 129782.731 -91300.776 129757.517 -90594.78 129755.318 -90533.21 129755.239 -90528.784 129755.239 -89471.215 129755.318 -89466.789 129779.406 -88792.328 129793.065 -88409.882 129793.302 -88405.468 129794.844 -88383.904 129868.752 -87350.553 129869.135 -87346.257 129970.639 -86402.135 131660.414 -86402.135 131660.414 -88597.87 131660.415 -88597.876 131666.822 -88657.483 131717.116 -88792.328 131717.12 -88792.335 131803.366 -88907.544 131803.369 -88907.547 131918.578 -88993.793 131918.585 -88993.797 132053.431 -89044.091 132053.43 -89044.091 132060.358 -89044.835 132113.041 -89050.5 134308.786 -89050.499 134368.397 -89044.091 134503.245 -88993.796 134618.46 -88907.546 134704.71 -88792.331 134755.005 -88657.483 134761.414 -88597.873 134761.413 -87377.973 151660.414 -87377.973 151660.414 -87622.026 151697.067 -87853.445 151698.593 -87863.076 151774.01 -88095.185 151844.752 -88234.025 151884.81 -88312.642 152028.253 -88510.076 152028.257 -88510.081 152200.832 -88682.656 152200.837 -88682.66 152351.793 -88792.335 152398.275 -88826.106 152615.729 -88936.904 152847.838 -89012.321 153088.887 -89050.5 153088.888 -89050.5 153332.94 -89050.5 153332.941 -89050.5 153573.99 -89012.321 153674.789 -88979.568 153744.629 -88977.574 153800.787 -89009.819 160213.181 -95422.213 160246.666 -95483.536 160249.5 -95509.894 160249.5 -102936.385 160240.466 -102967.15 160232.921 -102998.327 160230.532 -103000.981 160229.815 -103003.424 160211.118 -103026.082 160205.104 -103031.822 160185.354 -103046.172 160086.34 -103145.185 160085.263 -103146.214 160055.451 -103161.602 160026.002 -103177.683 160024.508 -103177.576 160023.178 -103178.263 159989.8 -103175.094 159956.311 -103172.699 159954.878 -103171.778 159953.621 -103171.659 159948.799 -103167.871 159911.964 -103144.198 159814.321 -103046.555 159655.143 -102930.904 159479.835 -102841.581 159292.705 -102780.778 159250 -102774.014 159250 -104184.314 159245.606 -104179.92 159154.394 -104127.259 159052.661 -104100 158947.339 -104100 158845.606 -104127.259 158754.394 -104179.92 158750 -104184.314 158750 -102774.014 158749.999 -102774.014 158707.294 -102780.778 158520.164 -102841.581 158344.855 -102930.905 158344.848 -102930.91 158308.684 -102957.184 158242.877 -102980.663 158174.824 -102964.837 158136.534 -102931.177 158109.267 -102894.753 158107.546 -102892.454 158107.544 -102892.453 158107.544 -102892.452 157992.335 -102806.206 157992.328 -102806.202 157857.482 -102755.908 157857.483 -102755.908 157797.883 -102749.501 157797.881 -102749.5 157797.873 -102749.5 157797.864 -102749.5 156202.129 -102749.5 156202.123 -102749.501 156135.443 -102756.669 156066.683 -102744.262 156034.509 -102721.06 155942.654 -102629.205 155942.649 -102629.201 155738.848 -102481.132 155738.847 -102481.131 155738.845 -102481.13 155668.747 -102445.413 155514.383 -102366.76 155274.785 -102288.91 155025.962 -102249.5 154774.038 -102249.5 154649.626 -102269.205 154525.214 -102288.91 154285.616 -102366.76 154061.151 -102481.132 153857.35 -102629.201 153857.345 -102629.205 153679.205 -102807.345 153679.201 -102807.35 153531.132 -103011.151 153416.76 -103235.616 153338.91 -103475.214 153299.5 -103724.038 153299.5 -105275.961 153338.91 -105524.785 153416.76 -105764.383 153468.767 -105866.451 153530.851 -105988.298 153531.132 -105988.848 153679.201 -106192.649 153679.205 -106192.654 153857.345 -106370.794 153857.35 -106370.798 153862.3 -106374.394 154061.155 -106518.87 154204.184 -106591.747 154285.616 -106633.239 154285.618 -106633.239 154285.621 -106633.241 154525.215 -106711.09 154774.038 -106750.5 154774.039 -106750.5 155025.961 -106750.5 155025.962 -106750.5 155274.785 -106711.09 155514.379 -106633.241 155738.845 -106518.87 155942.656 -106370.793 156034.511 -106278.937 156095.831 -106245.454 156135.445 -106243.33 156142.514 -106244.089 156142.517 -106244.091 156202.127 -106250.5 157797.872 -106250.499 157857.483 -106244.091 157992.331 -106193.796 158107.546 -106107.546 158136.535 -106068.821 158192.467 -106026.952 158262.158 -106021.968 158308.686 -106042.816 158344.856 -106069.095 158520.162 -106158.418 158707.283 -106219.218 158750 -106225.984 158750 -104815.686 158754.394 -104820.08 158845.606 -104872.741 158947.339 -104900 159052.661 -104900 159154.394 -104872.741 159245.606 -104820.08 159250 -104815.686 159250 -106225.983 159292.716 -106219.218 159479.837 -106158.418 159655.143 -106069.095 159814.321 -105953.444 159814.322 -105953.443 159911.965 -105855.801 159973.288 -105822.316 160042.98 -105827.3 160087.327 -105855.801 160185.354 -105953.828 160344.595 -106069.524 160369.917 -106082.426 160519.97 -106158.882 160519.972 -106158.882 160519.975 -106158.884 160620.317 -106191.487 160707.173 -106219.709 160901.578 -106250.5 160901.583 -106250.5 161098.422 -106250.5 161292.826 -106219.709 161372.574 -106193.797 161480.025 -106158.884 161655.405 -106069.524 161655.409 -106069.52 161659.087 -106067.647 161727.756 -106054.751 161792.497 -106081.027 161815.699 -106105.245 161879.207 -106192.656 161879.209 -106192.658 162057.345 -106370.794 162057.35 -106370.798 162062.3 -106374.394 162261.155 -106518.87 162404.184 -106591.747 162485.616 -106633.239 162485.618 -106633.239 162485.621 -106633.241 162725.215 -106711.09 162974.038 -106750.5 162974.039 -106750.5 163225.961 -106750.5 163225.962 -106750.5 163474.785 -106711.09 163714.379 -106633.241 163938.845 -106518.87 164142.656 -106370.793 164320.793 -106192.656 164446.247 -106019.983 169619.5 -106019.983 169619.5 -107220.001 169619.501 -107220.018 169630 -107322.796 169630.001 -107322.799 169658.045 -107407.429 169685.186 -107489.334 169777.288 -107638.656 169901.344 -107762.712 170050.666 -107854.814 170217.203 -107909.999 170319.991 -107920.5 171520.008 -107920.499 171622.797 -107909.999 171789.334 -107854.814 171938.656 -107762.712 172062.712 -107638.656 172154.814 -107489.334 172181.955 -107407.427 172221.726 -107349.984 172286.242 -107323.161 172355.018 -107335.476 172399.977 -107373.547 172468.034 -107467.219 172612.786 -107611.971 172767.749 -107724.556 172778.39 -107732.287 172894.607 -107791.503 172960.776 -107825.218 172960.778 -107825.218 172960.781 -107825.22 173051.856 -107854.812 173155.465 -107888.477 173239.564 -107901.797 173357.648 -107920.5 173357.649 -107920.5 173562.35 -107920.5 173562.352 -107920.5 173618.027 -107911.681 173687.319 -107920.635 173725.106 -107946.473 174232.58 -108453.948 174232.584 -108453.951 174355.498 -108536.08 174355.511 -108536.087 174415.085 -108560.763 174492.087 -108592.658 174492.091 -108592.658 174492.092 -108592.659 174637.079 -108621.5 174637.082 -108621.5 179132.102 -108621.5 179229.644 -108602.096 179277.095 -108592.658 179413.677 -108536.084 179462.911 -108503.186 179536.598 -108453.952 186582.951 -101407.598 186665.084 -101284.677 186721.658 -101148.095 186750.5 -101003.1 186750.5 -100855.265 186750.5 -89963.27 186770.185 -89896.231 186786.819 -89875.589 186896.621 -89765.787 187005.378 -89616.096 187089.379 -89451.235 187146.555 -89275.264 187175.5 -89092.514 187175.5 -88907.486 187146.555 -88724.736 187095.708 -88568.243 187089.38 -88548.767 187089.379 -88548.764 187037.97 -88447.87 187005.378 -88383.904 186921.159 -88267.987 186897.68 -88202.183 186913.505 -88134.129 186947.167 -88095.836 187032.19 -88032.186 187118.35 -87917.093 187118.354 -87917.086 187168.596 -87782.379 187168.598 -87782.372 187174.999 -87722.844 187175 -87722.827 187175 -87250 186315.686 -87250 186320.08 -87245.606 186372.741 -87154.394 186400 -87052.661 186400 -86947.339 186372.741 -86845.606 186320.08 -86754.394 186315.686 -86750 187175 -86750 187175 -86277.172 187174.999 -86277.155 187168.598 -86217.627 187168.596 -86217.62 187118.354 -86082.913 187118.35 -86082.906 187032.19 -85967.812 187032.187 -85967.809 186917.093 -85881.649 186917.086 -85881.645 186782.379 -85831.403 186782.372 -85831.401 186722.844 -85825 186250 -85825 186250 -86684.314 186245.606 -86679.92 186154.394 -86627.259 186052.661 -86600 185947.339 -86600 185845.606 -86627.259 185754.394 -86679.92 185750 -86684.314 185750 -85825 185277.155 -85825 185217.627 -85831.401 185217.62 -85831.403 185082.913 -85881.645 185082.906 -85881.649 184967.812 -85967.809 184967.809 -85967.812 184881.649 -86082.906 184881.645 -86082.913 184831.403 -86217.62 184831.401 -86217.627 184825 -86277.155 184825 -86750 185684.314 -86750 185679.92 -86754.394 185627.259 -86845.606 185600 -86947.339 185600 -87052.661 185627.259 -87154.394 185679.92 -87245.606 185684.314 -87250 184825 -87250 184825 -87722.844 184831.401 -87782.372 184831.403 -87782.379 184881.645 -87917.086 184881.649 -87917.093 184967.809 -88032.186 185052.832 -88095.835 185094.703 -88151.769 185099.687 -88221.461 185078.839 -88267.987 184994.624 -88383.9 184910.62 -88548.764 184910.619 -88548.767 184853.445 -88724.734 184824.5 -88907.486 184824.5 -89092.513 184853.445 -89275.265 184910.619 -89451.232 184910.62 -89451.235 184994.622 -89616.096 185103.379 -89765.787 185103.381 -89765.789 185213.181 -89875.589 185246.666 -89936.912 185249.5 -89963.27 185249.5 -100566.951 185229.815 -100633.99 185213.181 -100654.632 179866.143 -106001.669 179804.82 -106035.154 179735.128 -106030.17 179679.195 -105988.298 179667.977 -105970.282 179651.861 -105938.652 179619.474 -105894.077 179619.474 -105894.076 178940 -106573.551 178940 -106567.339 178912.741 -106465.606 178860.08 -106374.394 178785.606 -106299.92 178694.394 -106247.259 178592.661 -106220 178586.446 -106220 179265.922 -105540.524 179265.921 -105540.523 179221.359 -105508.147 179221.35 -105508.141 179039.031 -105415.244 178844.417 -105352.009 178642.317 -105320 178437.683 -105320 178235.582 -105352.009 178040.968 -105415.244 177858.644 -105508.143 177814.077 -105540.523 177814.077 -105540.524 178493.554 -106220 178487.339 -106220 178385.606 -106247.259 178294.394 -106299.92 178219.92 -106374.394 178167.259 -106465.606 178140 -106567.339 178140 -106573.553 177460.524 -105894.077 177460.523 -105894.077 177428.143 -105938.644 177380.765 -106031.63 177332.79 -106082.426 177264.969 -106099.221 177198.834 -106076.683 177159.795 -106031.63 177159.051 -106030.17 177112.287 -105938.39 177112.285 -105938.387 177112.284 -105938.385 176991.971 -105772.786 176847.213 -105628.028 176681.613 -105507.715 176681.612 -105507.714 176681.61 -105507.713 176621.898 -105477.288 176499.223 -105414.781 176304.534 -105351.522 176129.995 -105323.878 176102.352 -105319.5 175897.648 -105319.5 175873.329 -105323.351 175695.465 -105351.522 175500.776 -105414.781 175318.386 -105507.715 175152.786 -105628.028 175008.028 -105772.786 174887.715 -105938.386 174840.485 -106031.08 174792.51 -106081.876 174724.689 -106098.671 174658.554 -106076.134 174619.515 -106031.08 174613.861 -106019.983 174572.287 -105938.39 174540.092 -105894.077 174451.971 -105772.786 174307.213 -105628.028 174141.613 -105507.715 174141.612 -105507.714 174141.61 -105507.713 174081.898 -105477.288 173959.223 -105414.781 173764.534 -105351.522 173589.995 -105323.878 173562.352 -105319.5 173357.648 -105319.5 173333.329 -105323.351 173155.465 -105351.522 172960.776 -105414.781 172778.386 -105507.715 172612.786 -105628.028 172468.032 -105772.782 172468.028 -105772.787 172399.978 -105866.451 172344.648 -105909.117 172275.035 -105915.096 172213.24 -105882.49 172181.954 -105832.57 172180.208 -105827.3 172154.814 -105750.666 172062.712 -105601.344 171938.656 -105477.288 171789.334 -105385.186 171622.797 -105330.001 171622.795 -105330 171520.01 -105319.5 170319.998 -105319.5 170319.981 -105319.501 170217.203 -105330 170217.2 -105330.001 170050.668 -105385.185 170050.663 -105385.187 169901.342 -105477.289 169777.289 -105601.342 169685.187 -105750.663 169685.185 -105750.668 169677.858 -105772.781 169630.001 -105917.203 169630.001 -105917.204 169630 -105917.204 169619.5 -106019.983 164446.247 -106019.983 164468.87 -105988.845 164583.241 -105764.379 164661.09 -105524.785 164700.5 -105275.962 164700.5 -103724.038 164661.09 -103475.215 164583.241 -103235.621 164583.239 -103235.618 164583.239 -103235.616 164492.605 -103057.738 164468.87 -103011.155 164410.565 -102930.905 164320.798 -102807.35 164320.794 -102807.345 164142.654 -102629.205 164142.649 -102629.201 163938.848 -102481.132 163938.847 -102481.131 163938.845 -102481.13 163868.747 -102445.413 163714.383 -102366.76 163474.785 -102288.91 163225.962 -102249.5 162974.038 -102249.5 162849.626 -102269.205 162725.214 -102288.91 162485.616 -102366.76 162261.151 -102481.132 162057.35 -102629.201 162057.345 -102629.205 161879.209 -102807.341 161879.202 -102807.35 161815.699 -102894.753 161788.708 -102915.565 161762.014 -102936.764 161761.099 -102936.855 161760.369 -102937.419 161726.366 -102940.338 161692.493 -102943.736 161691.348 -102943.346 161690.756 -102943.397 161659.086 -102932.351 161618.204 -102911.52 161567.408 -102863.545 161550.5 -102801.036 161550.5 -95125.014 161525.502 -94999.347 161525.501 -94999.346 161525.501 -94999.342 161476.465 -94880.959 161405.277 -94774.417 161405.275 -94774.415 161405.273 -94774.412 161405.272 -94774.411 154720.733 -88089.873 154687.248 -88028.55 154690.482 -87963.875 154723.235 -87863.076 154761.414 -87622.027 154761.414 -87377.973 154723.235 -87136.924 154647.818 -86904.815 154537.02 -86687.361 154518.693 -86662.136 154393.574 -86489.923 154393.57 -86489.918 154220.995 -86317.343 154220.99 -86317.339 154023.556 -86173.896 154023.555 -86173.895 154023.553 -86173.894 153806.099 -86063.096 153573.99 -85987.679 153573.988 -85987.678 153573.986 -85987.678 153373.405 -85955.909 153332.941 -85949.5 153088.887 -85949.5 153048.429 -85955.908 152847.841 -85987.678 152615.726 -86063.097 152398.271 -86173.896 152200.837 -86317.339 152200.832 -86317.343 152028.257 -86489.918 152028.253 -86489.923 151884.81 -86687.357 151774.011 -86904.812 151698.592 -87136.927 151660.414 -87377.973 134761.413 -87377.973 134761.413 -86850.095 134781.098 -86783.057 134797.727 -86762.42 141773.33 -79786.819 141834.653 -79753.334 141861.011 -79750.5 171579.208 -79750.5 171581.806 -79751.262 171584.435 -79750.61 171615.149 -79761.053 171646.247 -79770.185 171648.804 -79772.497 171650.586 -79773.103 171662.975 -79785.309 171676.261 -79797.32 171677.936 -79799.427 171774.31 -79932.073 171818.806 -79976.569 171823.191 -79982.083 171833.804 -80008.183 171847.304 -80032.905 171846.788 -80040.111 171849.511 -80046.806 171844.329 -80074.499 171842.32 -80102.597 171837.738 -80109.725 171836.661 -80115.484 171828.427 -80124.213 171813.819 -80146.944 170551.286 -81409.478 170439.481 -81521.282 170439.479 -81521.285 170389.361 -81608.094 170389.359 -81608.096 170360.425 -81658.209 170360.424 -81658.21 170360.423 -81658.215 170319.499 -81810.943 170319.499 -81810.945 170319.499 -81979.046 170319.5 -81979.059 170319.5 -97770.397 170299.815 -97837.436 170251.8 -97880.879 170238.389 -97887.712 170072.786 -98008.028 169928.028 -98152.786 169807.713 -98318.388 169791.65 -98349.914 169743.676 -98400.709 169675.854 -98417.504 169609.72 -98394.966 169593.485 -98381.299 168686.819 -97474.633 168653.334 -97413.31 168650.5 -97386.952 168650.5 -88816.359 168670.185 -88749.32 168718.205 -88705.874 168734.022 -88697.815 168912.365 -88568.242 169068.242 -88412.365 169197.815 -88234.022 169297.895 -88037.606 169366.015 -87827.951 169400.5 -87610.222 169400.5 -87389.778 169366.015 -87172.049 169297.895 -86962.394 169297.895 -86962.393 169263.237 -86894.375 169197.815 -86765.978 169135.291 -86679.92 169068.247 -86587.641 169068.243 -86587.636 168912.363 -86431.756 168912.358 -86431.752 168734.025 -86302.187 168734.024 -86302.186 168734.022 -86302.185 168616.791 -86242.452 168537.606 -86202.104 168537.603 -86202.103 168327.952 -86133.985 168219.086 -86116.742 168110.222 -86099.5 167889.778 -86099.5 167817.201 -86110.995 167672.047 -86133.985 167462.396 -86202.103 167462.393 -86202.104 167265.974 -86302.187 167087.641 -86431.752 167087.636 -86431.756 167037.463 -86481.929 166976.14 -86515.413 166906.448 -86510.428 166850.515 -86468.557 166833.601 -86437.58 166803.797 -86357.671 166803.793 -86357.664 166717.547 -86242.455 166717.544 -86242.452 166602.335 -86156.206 166602.328 -86156.202 166467.482 -86105.908 166467.483 -86105.908 166407.883 -86099.501 166407.881 -86099.5 166407.873 -86099.5 166407.864 -86099.5 164512.129 -86099.5 164512.123 -86099.501 164452.516 -86105.908 164317.671 -86156.202 164317.664 -86156.206 164202.455 -86242.452 164202.452 -86242.455 164116.206 -86357.664 164116.202 -86357.671 164065.908 -86492.517 164059.501 -86552.116 164059.5 -86552.135 164059.5 -88447.87 164059.501 -88447.876 164065.908 -88507.483 164116.202 -88642.328 164116.206 -88642.335 164202.452 -88757.544 164202.455 -88757.547 164317.664 -88843.793 164317.671 -88843.797 164452.517 -88894.091 164452.516 -88894.091 164459.444 -88894.835 164512.127 -88900.5 166407.872 -88900.499 166467.483 -88894.091 166602.331 -88843.796 166717.546 -88757.546 166803.796 -88642.331 166831.429 -88568.243 166833.601 -88562.42 166875.471 -88506.486 166940.936 -88482.068 167009.209 -88496.919 167037.464 -88518.071 167087.636 -88568.243 167087.641 -88568.247 167265.973 -88697.812 167265.975 -88697.813 167265.978 -88697.815 167281.795 -88705.874 167332.591 -88753.848 167349.5 -88816.359 167349.5 -97771.831 167368.716 -97868.429 167369.143 -97870.578 167372.552 -97887.715 167374.499 -97897.504 167423.534 -98015.885 167494.726 -98122.433 167494.727 -98122.434 169937.964 -100565.669 169990.609 -100618.314 170028.572 -100656.277 170135.106 -100727.461 170135.112 -100727.464 170135.113 -100727.465 170253.496 -100776.501 170253.5 -100776.501 170253.501 -100776.502 170379.168 -100801.5 170379.171 -100801.5 174913.071 -100801.5 174997.615 -100784.682 175038.744 -100776.501 175157.127 -100727.465 175263.669 -100656.277 175612.808 -100307.136 175674.131 -100273.652 175719.887 -100272.345 175897.648 -100300.5 175897.649 -100300.5 176102.351 -100300.5 176102.352 -100300.5 176304.534 -100268.477 176499.219 -100205.22 176681.61 -100112.287 176774.59 -100044.732 176847.213 -99991.971 176847.215 -99991.968 176847.219 -99991.966 176991.966 -99847.219 176991.968 -99847.215 176991.971 -99847.213 177112.284 -99681.614 177112.285 -99681.613 177112.287 -99681.61 177159.516 -99588.917 177207.489 -99538.123 177275.31 -99521.328 177341.445 -99543.865 177380.485 -99588.919 177427.715 -99681.614 177548.028 -99847.213 177692.786 -99991.971 177793.976 -100065.488 177858.39 -100112.287 177974.607 -100171.503 178040.776 -100205.218 178040.778 -100205.218 178040.781 -100205.22 178145.137 -100239.127 178235.465 -100268.477 178336.557 -100284.488 178437.648 -100300.5 178437.649 -100300.5 178642.351 -100300.5 178642.352 -100300.5 178844.534 -100268.477 179039.219 -100205.22 179221.61 -100112.287 179314.59 -100044.732 179387.213 -99991.971 179387.215 -99991.968 179387.219 -99991.966 179531.966 -99847.219 179531.968 -99847.215 179531.971 -99847.213 179584.732 -99774.59 179652.287 -99681.61 179745.22 -99499.219 179808.477 -99304.534 179840.5 -99102.352 179840.5 -98897.648 179808.477 -98695.466 179745.22 -98500.781 179745.218 -98500.778 179745.218 -98500.776 179699.515 -98411.08 179652.287 -98318.39 179644.556 -98307.749 179531.971 -98152.786 179387.213 -98008.028 179221.613 -97887.715 179221.612 -97887.714 179221.61 -97887.713 179164.653 -97858.691 179039.223 -97794.781 178844.534 -97731.522 178669.995 -97703.878 178642.352 -97699.5 178437.648 -97699.5 178413.329 -97703.351 178235.465 -97731.522 178040.776 -97794.781 177858.386 -97887.715 177692.786 -98008.028 177548.028 -98152.786 177427.715 -98318.386 177380.485 -98411.08 177332.51 -98461.876 177264.689 -98478.671 177198.554 -98456.134 177159.515 -98411.08 177151.304 -98394.966 177112.287 -98318.39 177104.556 -98307.749 176991.971 -98152.786 176847.213 -98008.028 176681.613 -97887.715 176681.612 -97887.714 176681.61 -97887.713 176624.653 -97858.691 176499.223 -97794.781 176304.534 -97731.522 176129.995 -97703.878 176102.352 -97699.5 175897.648 -97699.5 175873.329 -97703.351 175695.465 -97731.522 175500.776 -97794.781 175318.386 -97887.715 175152.786 -98008.028 175008.028 -98152.786 174887.715 -98318.386 174840.485 -98411.08 174792.51 -98461.876 174724.689 -98478.671 174658.554 -98456.134 174619.515 -98411.08 174611.304 -98394.966 174572.287 -98318.39 174564.556 -98307.749 174451.971 -98152.786 174307.213 -98008.028 174141.613 -97887.715 174141.612 -97887.714 174141.61 -97887.713 174084.653 -97858.691 173959.223 -97794.781 173764.534 -97731.522 173589.995 -97703.878 173562.352 -97699.5 173357.648 -97699.5 173333.329 -97703.351 173155.465 -97731.522 172960.776 -97794.781 172778.386 -97887.715 172612.786 -98008.028 172468.028 -98152.786 172347.715 -98318.386 172300.485 -98411.08 172252.51 -98461.876 172184.689 -98478.671 172118.554 -98456.134 172079.515 -98411.08 172071.304 -98394.966 172032.287 -98318.39 172024.556 -98307.749 171911.971 -98152.786 171767.213 -98008.028 171601.61 -97887.712 171588.2 -97880.879 171537.406 -97832.903 171520.5 -97770.397 171520.5 -91697.648 175699.5 -91697.648 175699.5 -91902.351 175731.522 -92104.534 175794.781 -92299.223 175887.715 -92481.613 176008.028 -92647.213 176152.786 -92791.971 176307.749 -92904.556 176318.39 -92912.287 176434.607 -92971.503 176500.776 -93005.218 176500.778 -93005.218 176500.781 -93005.22 176605.137 -93039.127 176695.465 -93068.477 176796.557 -93084.488 176897.648 -93100.5 176897.649 -93100.5 177102.351 -93100.5 177102.352 -93100.5 177304.534 -93068.477 177499.219 -93005.22 177681.61 -92912.287 177774.59 -92844.732 177847.213 -92791.971 177847.215 -92791.968 177847.219 -92791.966 177991.966 -92647.219 177991.968 -92647.215 177991.971 -92647.213 178044.732 -92574.59 178112.287 -92481.61 178205.22 -92299.219 178268.477 -92104.534 178300.5 -91902.352 178300.5 -91697.648 178268.477 -91495.466 178205.22 -91300.781 178205.218 -91300.778 178205.218 -91300.776 178171.503 -91234.607 178112.287 -91118.39 178104.556 -91107.749 177991.971 -90952.786 177847.213 -90808.028 177681.613 -90687.715 177681.612 -90687.714 177681.61 -90687.713 177624.653 -90658.691 177499.223 -90594.781 177304.534 -90531.522 177129.995 -90503.878 177102.352 -90499.5 176897.648 -90499.5 176873.329 -90503.351 176695.465 -90531.522 176500.776 -90594.781 176318.386 -90687.715 176152.786 -90808.028 176008.028 -90952.786 175887.715 -91118.386 175794.781 -91300.776 175731.522 -91495.465 175699.5 -91697.648 171520.5 -91697.648 171520.5 -84097.682 175700 -84097.682 175700 -84302.317 175732.009 -84504.417 175795.244 -84699.031 175888.141 -84881.35 175888.147 -84881.359 175920.523 -84925.921 175920.524 -84925.922 176600 -84246.446 176600 -84252.661 176627.259 -84354.394 176679.92 -84445.606 176754.394 -84520.08 176845.606 -84572.741 176947.339 -84600 176953.553 -84600 176274.076 -85279.474 176318.65 -85311.859 176500.968 -85404.755 176695.582 -85467.99 176897.683 -85500 177102.317 -85500 177304.417 -85467.99 177499.031 -85404.755 177681.349 -85311.859 177725.921 -85279.474 177046.447 -84600 177052.661 -84600 177154.394 -84572.741 177245.606 -84520.08 177320.08 -84445.606 177372.741 -84354.394 177400 -84252.661 177400 -84246.448 178079.474 -84925.922 178079.474 -84925.921 178111.859 -84881.349 178204.755 -84699.031 178267.99 -84504.417 178300 -84302.317 178300 -84097.682 178267.99 -83895.582 178204.755 -83700.968 178111.859 -83518.65 178079.474 -83474.077 178079.474 -83474.076 177400 -84153.551 177400 -84147.339 177372.741 -84045.606 177320.08 -83954.394 177245.606 -83879.92 177154.394 -83827.259 177052.661 -83800 177046.446 -83800 177725.922 -83120.524 177725.921 -83120.523 177681.359 -83088.147 177681.35 -83088.141 177499.031 -82995.244 177304.417 -82932.009 177102.317 -82900 176897.683 -82900 176695.582 -82932.009 176500.968 -82995.244 176318.644 -83088.143 176274.077 -83120.523 176274.077 -83120.524 176953.554 -83800 176947.339 -83800 176845.606 -83827.259 176754.394 -83879.92 176679.92 -83954.394 176627.259 -84045.606 176600 -84147.339 176600 -84153.553 175920.524 -83474.077 175920.523 -83474.077 175888.143 -83518.644 175795.244 -83700.968 175732.009 -83895.582 175700 -84097.682 171520.5 -84097.682 171520.5 -82190.096 171540.185 -82123.057 171556.814 -82102.42 174028.713 -79630.521 174028.716 -79630.52 174140.52 -79518.716 174140.521 -79518.713 174603.721 -79055.513 179109.5 -79055.513 179109.5 -79244.486 179139.059 -79431.118 179197.454 -79610.836 179268.617 -79750.5 179283.24 -79779.199 179394.31 -79932.073 179527.927 -80065.69 179680.801 -80176.76 179760.347 -80217.29 179849.163 -80262.545 179849.165 -80262.545 179849.168 -80262.547 179945.497 -80293.846 180028.881 -80320.94 180215.514 -80350.5 180215.519 -80350.5 180404.486 -80350.5 180591.118 -80320.94 180770.832 -80262.547 180939.199 -80176.76 181092.073 -80065.69 181225.69 -79932.073 181336.76 -79779.199 181422.547 -79610.832 181480.94 -79431.118 181510.5 -79244.486 181510.5 -79055.513 181480.94 -78868.881 181422.545 -78689.163 181351.383 -78549.5 181336.76 -78520.801 181225.69 -78367.927 181092.073 -78234.31 180939.199 -78123.24 180770.836 -78037.454 180591.118 -77979.059 180404.486 -77949.5 180404.481 -77949.5 180215.519 -77949.5 180215.514 -77949.5 180028.881 -77979.059 179849.163 -78037.454 179680.8 -78123.24 179593.579 -78186.61 179527.927 -78234.31 179527.925 -78234.312 179527.924 -78234.312 179394.312 -78367.924 179394.312 -78367.925 179394.31 -78367.927 179346.61 -78433.579 179283.24 -78520.8 179197.454 -78689.163 179139.059 -78868.881 179109.5 -79055.513 174603.721 -79055.513 176826.351 -76832.882 179655.669 -76832.882 179655.67 -76832.883 179681.059 -76851.329 179849.362 -76937.085 180028.997 -76995.451 180215.553 -77025 180404.447 -77025 180591.002 -76995.451 180770.637 -76937.085 180938.937 -76851.331 180964.328 -76832.883 180964.328 -76832.882 180310.001 -76178.554 180310 -76178.554 179655.669 -76832.882 176826.351 -76832.882 177928.681 -75730.552 179110 -75730.552 179110 -75919.447 179139.548 -76106.002 179197.914 -76285.637 179283.666 -76453.933 179302.116 -76479.328 179956.446 -75825 179956.446 -75824.999 179910.369 -75778.922 179960 -75778.922 179960 -75871.078 179983.852 -75960.095 180029.93 -76039.905 180095.095 -76105.07 180174.905 -76151.148 180263.922 -76175 180356.078 -76175 180445.095 -76151.148 180524.905 -76105.07 180590.07 -76039.905 180636.148 -75960.095 180660 -75871.078 180660 -75824.999 180663.554 -75824.999 180663.554 -75825 181317.882 -76479.328 181317.883 -76479.328 181336.331 -76453.937 181422.085 -76285.637 181480.451 -76106.002 181510 -75919.447 181510 -75730.552 181480.451 -75543.997 181422.085 -75364.362 181336.329 -75196.059 181317.883 -75170.67 181317.882 -75170.669 180663.554 -75824.999 180660 -75824.999 180660 -75778.922 180636.148 -75689.905 180590.07 -75610.095 180524.905 -75544.93 180445.095 -75498.852 180356.078 -75475 180263.922 -75475 180174.905 -75498.852 180095.095 -75544.93 180029.93 -75610.095 179983.852 -75689.905 179960 -75778.922 179910.369 -75778.922 179302.116 -75170.669 179302.116 -75170.67 179283.669 -75196.06 179197.914 -75364.362 179139.548 -75543.997 179110 -75730.552 177928.681 -75730.552 178842.117 -74817.116 179655.669 -74817.116 180310 -75471.446 180310.001 -75471.446 180964.328 -74817.116 180938.933 -74798.666 180770.637 -74712.914 180591.002 -74654.548 180404.447 -74625 180215.553 -74625 180028.997 -74654.548 179849.362 -74712.914 179681.06 -74798.669 179655.67 -74817.116 179655.669 -74817.116 178842.117 -74817.116 179949.169 -73710.064 180010.49 -73676.581 180056.246 -73675.274 180215.514 -73700.5 180215.519 -73700.5 180404.486 -73700.5 180591.118 -73670.94 180621.753 -73660.986 180770.832 -73612.547 180939.199 -73526.76 181092.073 -73415.69 181225.69 -73282.073 181336.76 -73129.199 181422.547 -72960.832 181480.94 -72781.118 181510.5 -72594.486 181510.5 -72405.513 181480.94 -72218.881 181422.545 -72039.163 181336.759 -71870.8 181225.69 -71717.927 181092.073 -71584.31 180939.199 -71473.24 180770.836 -71387.454 180591.118 -71329.059 180404.486 -71299.5 180404.481 -71299.5 180215.519 -71299.5 180215.514 -71299.5 180028.881 -71329.059 179849.163 -71387.454 179680.8 -71473.24 179593.579 -71536.61 179527.927 -71584.31 179527.925 -71584.312 179527.924 -71584.312 179394.312 -71717.924 179394.312 -71717.925 179394.31 -71717.927 179346.61 -71783.579 179283.24 -71870.8 179197.454 -72039.163 179139.059 -72218.881 179109.5 -72405.513 179109.5 -72594.486 179134.725 -72753.751 179125.77 -72823.045 179099.933 -72860.83 173686.944 -78273.819 173625.621 -78307.304 173555.929 -78302.32 173511.582 -78273.819 173472.075 -78234.312 173472.073 -78234.31 173319.199 -78123.24 173150.836 -78037.454 172971.118 -77979.059 172784.486 -77949.5 172784.481 -77949.5 172595.519 -77949.5 172595.514 -77949.5 172408.881 -77979.059 172229.163 -78037.454 172060.8 -78123.24 171973.579 -78186.61 171907.927 -78234.31 171907.925 -78234.312 171907.924 -78234.312 171774.312 -78367.924 171774.312 -78367.925 171774.31 -78367.927 171679.526 -78498.386 171624.196 -78541.051 171579.208 -78549.5 141639.971 -78549.5 141481.856 -78549.5 141329.129 -78590.423 141305.339 -78604.158 141298.964 -78607.839 141298.963 -78607.838 141192.201 -78669.477 141192.196 -78669.481 141080.392 -78781.286 133948.496 -85913.181 133887.173 -85946.666 133860.815 -85949.5 132113.043 -85949.5 132113.037 -85949.501 132053.43 -85955.908 131918.585 -86006.202 131918.578 -86006.206 131803.369 -86092.452 131803.366 -86092.455 131717.12 -86207.664 131717.116 -86207.671 131666.822 -86342.517 131660.415 -86402.116 131660.414 -86402.135 129970.639 -86402.135 129982.196 -86294.64 129982.745 -86290.273 129984.632 -86277.155 130133.254 -85243.457 130133.959 -85239.11 130148.165 -85160.374 130321.743 -84198.293 130322.594 -84194.014 130547.406 -83160.57 130548.419 -83156.287 130557.547 -83120.524 130809.972 -82131.53 130811.121 -82127.341 131109.094 -81112.543 131110.413 -81108.333 131160.017 -80959.297 131444.401 -80104.858 131445.834 -80100.791 131815.464 -79109.778 131817.054 -79105.736 132221.791 -78128.617 132223.555 -78124.566 132662.87 -77162.6 132664.78 -77158.606 132731.408 -77025.5 133138.19 -76212.851 133140.234 -76208.947 133156.83 -76178.554 133401.479 -75730.513 171489.5 -75730.513 171489.5 -75919.486 171519.059 -76106.118 171577.454 -76285.836 171663.104 -76453.933 171663.24 -76454.199 171774.31 -76607.073 171907.927 -76740.69 172060.801 -76851.76 172140.347 -76892.29 172229.163 -76937.545 172229.165 -76937.545 172229.168 -76937.547 172325.497 -76968.846 172408.881 -76995.94 172595.514 -77025.5 172595.519 -77025.5 172784.486 -77025.5 172971.118 -76995.94 172972.623 -76995.451 173150.832 -76937.547 173319.199 -76851.76 173472.073 -76740.69 173605.69 -76607.073 173716.76 -76454.199 173802.547 -76285.832 173860.94 -76106.118 173871.427 -76039.905 173890.5 -75919.486 173890.5 -75730.513 173860.94 -75543.881 173802.545 -75364.163 173757.29 -75275.347 173716.76 -75195.801 173605.69 -75042.927 173472.073 -74909.31 173319.199 -74798.24 173150.836 -74712.454 172971.118 -74654.059 172784.486 -74624.5 172784.481 -74624.5 172595.519 -74624.5 172595.514 -74624.5 172408.881 -74654.059 172229.163 -74712.454 172060.8 -74798.24 171973.579 -74861.61 171907.927 -74909.31 171907.925 -74909.312 171907.924 -74909.312 171774.312 -75042.924 171774.312 -75042.925 171774.31 -75042.927 171726.61 -75108.579 171663.24 -75195.8 171577.454 -75364.163 171519.059 -75543.881 171489.5 -75730.513 133401.479 -75730.513 133647.079 -75280.729 133649.244 -75276.926 134188.928 -74367.337 134191.208 -74363.647 134763.015 -73473.898 134765.45 -73470.255 134803.335 -73415.69 135368.648 -72601.483 135371.172 -72597.984 135515.254 -72405.513 171489.5 -72405.513 171489.5 -72594.486 171519.059 -72781.118 171577.454 -72960.836 171663.24 -73129.199 171774.31 -73282.073 171907.927 -73415.69 172060.801 -73526.76 172140.347 -73567.29 172229.163 -73612.545 172229.165 -73612.545 172229.168 -73612.547 172325.497 -73643.846 172408.881 -73670.94 172595.514 -73700.5 172595.519 -73700.5 172784.486 -73700.5 172971.118 -73670.94 173001.753 -73660.986 173150.832 -73612.547 173319.199 -73526.76 173472.073 -73415.69 173605.69 -73282.073 173716.76 -73129.199 173802.547 -72960.832 173860.94 -72781.118 173890.5 -72594.486 173890.5 -72405.513 173860.94 -72218.881 173802.545 -72039.163 173716.759 -71870.8 173605.69 -71717.927 173472.073 -71584.31 173319.199 -71473.24 173150.836 -71387.454 172971.118 -71329.059 172784.486 -71299.5 172784.481 -71299.5 172595.519 -71299.5 172595.514 -71299.5 172408.881 -71329.059 172229.163 -71387.454 172060.8 -71473.24 171973.579 -71536.61 171907.927 -71584.31 171907.925 -71584.312 171907.924 -71584.312 171774.312 -71717.924 171774.312 -71717.925 171774.31 -71717.927 171726.61 -71783.579 171663.24 -71870.8 171577.454 -72039.163 171519.059 -72218.881 171489.5 -72405.513 135515.254 -72405.513 136005.012 -71751.273 136007.664 -71747.859 136671.304 -70924.332 136674.114 -70920.97 137366.696 -70121.687 137369.649 -70118.401 137682.84 -69782.01 138090.333 -69344.331 138093.352 -69341.203 138841.203 -68593.352 138844.331 -68590.333 139618.407 -67869.643 139621.694 -67866.691 140054.295 -67491.84 140420.97 -67174.114 140424.332 -67171.304 141247.859 -66507.664 141251.273 -66505.012 142098.01 -65871.152 142101.483 -65868.648 142970.267 -65265.441 142973.898 -65263.015 143863.647 -64691.208 143867.337 -64688.928 144776.926 -64149.244 144780.729 -64147.079 145708.965 -63640.224 145712.851 -63638.19 146658.61 -63164.777 146662.6 -63162.87 147624.566 -62723.555 147628.624 -62721.788 147663.087 -62707.513 148605.736 -62317.054 148609.778 -62315.464 149600.791 -61945.834 149604.858 -61944.401 150608.346 -61610.408 150612.543 -61609.094 151627.341 -61311.121 151631.53 -61309.972 152656.312 -61048.413 152660.57 -61047.406 153694.014 -60822.594 153698.293 -60821.743 154739.132 -60633.955 154743.457 -60633.254 155790.298 -60482.741 155794.64 -60482.196 156846.257 -60369.135 156850.553 -60368.752 157905.475 -60293.301 157909.882 -60293.065 158966.789 -60255.317 158971.215 -60255.239 160028.785 -60255.239 160033.21 -60255.317"/></g></svg>