<svg version="1.1" xmlns="http://www.w3.org/2000/svg" xmlns:xlink="http://www.w3.org/1999/xlink" stroke-linecap="round" stroke-linejoin="round" stroke-width="0" fill-rule="evenodd" width="14.528572mm" height="1.4333330000000002mm" viewBox="156765.162 -113755.752 14528.572 1433.333" id="GX78TzjqPJgyAlYmNDCW"><g transform="translate(0,-226078.17099999997) scale(1,-1)" fill="currentColor" stroke="currentColor"><path d="M 170767.544 -113372.419 170767.544 -112372.419 M 170767.544 -113324.8 170862.782 -113372.419 171053.258 -113372.419 171148.496 -113324.8 171196.115 -113277.18 171243.734 -113181.942 171243.734 -112896.228 171196.115 -112800.99 171148.496 -112753.371 171053.258 -112705.752 170862.782 -112705.752 170767.544 -112753.371 M 169910.401 -113324.8 170005.639 -113372.419 170196.115 -113372.419 170291.353 -113324.8 170338.972 -113229.561 170338.972 -112848.609 170291.353 -112753.371 170196.115 -112705.752 170005.639 -112705.752 169910.401 -112753.371 169862.782 -112848.609 169862.782 -112943.847 170338.972 -113039.085 M 169481.829 -113324.8 169386.591 -113372.419 169196.115 -113372.419 169100.877 -113324.8 169053.258 -113229.561 169053.258 -113181.942 169100.877 -113086.704 169196.115 -113039.085 169338.972 -113039.085 169434.21 -112991.466 169481.829 -112896.228 169481.829 -112848.609 169434.21 -112753.371 169338.972 -112705.752 169196.115 -112705.752 169100.877 -112753.371 M 168624.686 -113372.419 168624.686 -112705.752 M 168624.686 -112372.419 168672.305 -112420.038 168624.686 -112467.657 168577.067 -112420.038 168624.686 -112372.419 168624.686 -112467.657 M 167719.925 -112705.752 167719.925 -113515.276 167767.544 -113610.514 167815.163 -113658.133 167910.401 -113705.752 168053.258 -113705.752 168148.496 -113658.133 M 167719.925 -113324.8 167815.163 -113372.419 168005.639 -113372.419 168100.877 -113324.8 168148.496 -113277.18 168196.115 -113181.942 168196.115 -112896.228 168148.496 -112800.99 168100.877 -112753.371 168005.639 -112705.752 167815.163 -112705.752 167719.925 -112753.371 M 167243.734 -112705.752 167243.734 -113372.419 M 167243.734 -112800.99 167196.115 -112753.371 167100.877 -112705.752 166958.02 -112705.752 166862.782 -112753.371 166815.163 -112848.609 166815.163 -113372.419 M 165958.02 -113324.8 166053.258 -113372.419 166243.734 -113372.419 166338.972 -113324.8 166386.591 -113229.561 166386.591 -112848.609 166338.972 -112753.371 166243.734 -112705.752 166053.258 -112705.752 165958.02 -112753.371 165910.401 -112848.609 165910.401 -112943.847 166386.591 -113039.085 M 165053.258 -113372.419 165053.258 -112372.419 M 165053.258 -113324.8 165148.496 -113372.419 165338.972 -113372.419 165434.21 -113324.8 165481.829 -113277.18 165529.448 -113181.942 165529.448 -112896.228 165481.829 -112800.99 165434.21 -112753.371 165338.972 -112705.752 165148.496 -112705.752 165053.258 -112753.371 M 163815.162 -113372.419 163815.162 -112372.419 M 163815.162 -112753.371 163719.924 -112705.752 163529.448 -112705.752 163434.21 -112753.371 163386.591 -112800.99 163338.972 -112896.228 163338.972 -113181.942 163386.591 -113277.18 163434.21 -113324.8 163529.448 -113372.419 163719.924 -113372.419 163815.162 -113324.8 M 163005.638 -112705.752 162767.543 -113372.419 M 162529.448 -112705.752 162767.543 -113372.419 162862.781 -113610.514 162910.4 -113658.133 163005.638 -113705.752 M 161434.209 -113324.8 161338.971 -113372.419 161148.495 -113372.419 161053.257 -113324.8 161005.638 -113229.561 161005.638 -113181.942 161053.257 -113086.704 161148.495 -113039.085 161291.352 -113039.085 161386.59 -112991.466 161434.209 -112896.228 161434.209 -112848.609 161386.59 -112753.371 161291.352 -112705.752 161148.495 -112705.752 161053.257 -112753.371 M 160148.495 -113372.419 160148.495 -112848.609 160196.114 -112753.371 160291.352 -112705.752 160481.828 -112705.752 160577.066 -112753.371 M 160148.495 -113324.8 160243.733 -113372.419 160481.828 -113372.419 160577.066 -113324.8 160624.685 -113229.561 160624.685 -113134.323 160577.066 -113039.085 160481.828 -112991.466 160243.733 -112991.466 160148.495 -112943.847 M 159672.304 -112705.752 159672.304 -113372.419 M 159672.304 -112800.99 159624.685 -112753.371 159529.447 -112705.752 159386.59 -112705.752 159291.352 -112753.371 159243.733 -112848.609 159243.733 -113372.419 M 158767.542 -112705.752 158767.542 -113562.895 158815.161 -113658.133 158910.399 -113705.752 158958.018 -113705.752 M 158767.542 -112372.419 158815.161 -112420.038 158767.542 -112467.657 158719.923 -112420.038 158767.542 -112372.419 158767.542 -112467.657 M 158291.352 -113372.419 158291.352 -112705.752 M 158291.352 -112372.419 158338.971 -112420.038 158291.352 -112467.657 158243.733 -112420.038 158291.352 -112372.419 158291.352 -112467.657 M 157958.019 -112705.752 157577.067 -112705.752 M 157815.162 -112372.419 157815.162 -113229.561 157767.543 -113324.8 157672.305 -113372.419 157577.067 -113372.419 M 157243.733 -113372.419 157243.733 -112372.419 M 156815.162 -113372.419 156815.162 -112848.609 156862.781 -112753.371 156958.019 -112705.752 157100.876 -112705.752 157196.114 -112753.371 157243.733 -112800.99" fill="none" stroke-width="100"/></g></svg>