<svg version="1.1" xmlns="http://www.w3.org/2000/svg" xmlns:xlink="http://www.w3.org/1999/xlink" stroke-linecap="round" stroke-linejoin="round" stroke-width="0" fill-rule="evenodd" width="53.839086mm" height="34.87mm" viewBox="132560.914 -107020 53839.086 34870" id="JMCOjNvw2SH83JjXl5yJ"><defs><circle cx="0" cy="0" r="350" id="JMCOjNvw2SH83JjXl5yJ_pad-10"/><circle cx="0" cy="0" r="400" id="JMCOjNvw2SH83JjXl5yJ_pad-11"/><circle cx="0" cy="0" r="450" id="JMCOjNvw2SH83JjXl5yJ_pad-12"/><circle cx="0" cy="0" r="650" id="JMCOjNvw2SH83JjXl5yJ_pad-13"/><circle cx="0" cy="0" r="750" id="JMCOjNvw2SH83JjXl5yJ_pad-14"/></defs><g transform="translate(0,-179170) scale(1,-1)" fill="currentColor" stroke="currentColor"><use xlink:href="#JMCOjNvw2SH83JjXl5yJ_pad-10" x="172690" y="-72500"/><use xlink:href="#JMCOjNvw2SH83JjXl5yJ_pad-10" x="172690" y="-75825"/><use xlink:href="#JMCOjNvw2SH83JjXl5yJ_pad-10" x="172690" y="-79150"/><use xlink:href="#JMCOjNvw2SH83JjXl5yJ_pad-10" x="180310" y="-72500"/><use xlink:href="#JMCOjNvw2SH83JjXl5yJ_pad-10" x="180310" y="-75825"/><use xlink:href="#JMCOjNvw2SH83JjXl5yJ_pad-10" x="180310" y="-79150"/><use xlink:href="#JMCOjNvw2SH83JjXl5yJ_pad-11" x="157000" y="-104500"/><use xlink:href="#JMCOjNvw2SH83JjXl5yJ_pad-11" x="159000" y="-104500"/><use xlink:href="#JMCOjNvw2SH83JjXl5yJ_pad-11" x="161000" y="-104500"/><use xlink:href="#JMCOjNvw2SH83JjXl5yJ_pad-11" x="170920" y="-99000"/><use xlink:href="#JMCOjNvw2SH83JjXl5yJ_pad-11" x="170920" y="-106620"/><use xlink:href="#JMCOjNvw2SH83JjXl5yJ_pad-11" x="173460" y="-99000"/><use xlink:href="#JMCOjNvw2SH83JjXl5yJ_pad-11" x="173460" y="-106620"/><use xlink:href="#JMCOjNvw2SH83JjXl5yJ_pad-11" x="176000" y="-99000"/><use xlink:href="#JMCOjNvw2SH83JjXl5yJ_pad-11" x="176000" y="-106620"/><use xlink:href="#JMCOjNvw2SH83JjXl5yJ_pad-11" x="177000" y="-84200"/><use xlink:href="#JMCOjNvw2SH83JjXl5yJ_pad-11" x="177000" y="-91800"/><use xlink:href="#JMCOjNvw2SH83JjXl5yJ_pad-11" x="178540" y="-99000"/><use xlink:href="#JMCOjNvw2SH83JjXl5yJ_pad-11" x="178540" y="-106620"/><use xlink:href="#JMCOjNvw2SH83JjXl5yJ_pad-11" x="186000" y="-87000"/><use xlink:href="#JMCOjNvw2SH83JjXl5yJ_pad-11" x="186000" y="-89000"/><use xlink:href="#JMCOjNvw2SH83JjXl5yJ_pad-12" x="165460" y="-87500"/><use xlink:href="#JMCOjNvw2SH83JjXl5yJ_pad-12" x="168000" y="-87500"/><use xlink:href="#JMCOjNvw2SH83JjXl5yJ_pad-13" x="133210.914" y="-87500"/><use xlink:href="#JMCOjNvw2SH83JjXl5yJ_pad-13" x="153210.914" y="-87500"/><use xlink:href="#JMCOjNvw2SH83JjXl5yJ_pad-14" x="154900" y="-104500"/><use xlink:href="#JMCOjNvw2SH83JjXl5yJ_pad-14" x="163100" y="-104500"/></g></svg>